STARTFONT 2.1
COMMENT
COMMENT Converted from OpenType font "Exo-Bold.otf" by "otf2bdf 3.0".
COMMENT
FONT -FreeType-Exo-Bold-R-Normal--53-380-100-100-P-255-ISO10646-1
SIZE 38 100 100
FONTBOUNDINGBOX 75 71 -4 -17
STARTPROPERTIES 19
FOUNDRY "FreeType"
FAMILY_NAME "Exo"
WEIGHT_NAME "Bold"
SLANT "R"
SETWIDTH_NAME "Normal"
ADD_STYLE_NAME ""
PIXEL_SIZE 53
POINT_SIZE 380
RESOLUTION_X 100
RESOLUTION_Y 100
SPACING "P"
AVERAGE_WIDTH 255
CHARSET_REGISTRY "ISO10646"
CHARSET_ENCODING "1"
FONT_ASCENT 53
FONT_DESCENT 15
COPYRIGHT "Copyright (c) 2011 Natanael Gama (exo@ndiscovered.com), with Reserved Font Name "Exo""
_OTF_FONTFILE "Exo-Bold.otf"
_OTF_PSNAME "Exo-Bold"
ENDPROPERTIES
CHARS 398
STARTCHAR 000D
ENCODING 13
SWIDTH 757 0
DWIDTH 40 0
BBX 0 0 0 0
BITMAP
ENDCHAR
STARTCHAR 0020
ENCODING 32
SWIDTH 246 0
DWIDTH 13 0
BBX 0 0 0 0
BITMAP
ENDCHAR
STARTCHAR 0021
ENCODING 33
SWIDTH 265 0
DWIDTH 14 0
BBX 8 40 3 -1
BITMAP
FF
FF
FF
FF
7F
7F
7F
7F
7F
7F
7F
7F
7F
7F
7E
7E
7E
7E
7E
7E
7E
7E
7E
7E
7E
7E
7E
7E
7E
7E
00
00
00
7F
7F
7F
7F
7F
7F
7E
ENDCHAR
STARTCHAR 0022
ENCODING 34
SWIDTH 435 0
DWIDTH 23 0
BBX 17 11 3 29
BITMAP
FF3F80
FF3F80
FF3F80
FF3F80
FE3F80
7E3F80
7E3F80
7E3F80
7E3F80
7E3F80
7E3F80
ENDCHAR
STARTCHAR 0023
ENCODING 35
SWIDTH 720 0
DWIDTH 38 0
BBX 36 41 1 -1
BITMAP
000FC0F800
000F80F800
000F80F800
000F80F800
000F81F000
000F81F000
000F81F000
001F01F000
001F01F000
001F01F000
001F03F000
001F03E000
3FFFFFFFF0
3FFFFFFFF0
3FFFFFFFF0
3FFFFFFFF0
3FFFFFFFF0
003E07C000
007E07C000
007C07C000
007C07C000
007C07C000
007C07C000
007C0F8000
FFFFFFFFC0
FFFFFFFFC0
FFFFFFFFC0
FFFFFFFFC0
FFFFFFFFC0
00F81F0000
01F01F0000
01F01F0000
01F01F0000
01F01F0000
01F03E0000
01F03E0000
03F03E0000
03E03E0000
03E03E0000
03E03E0000
03E07C0000
ENDCHAR
STARTCHAR 0024
ENCODING 36
SWIDTH 568 0
DWIDTH 30 0
BBX 26 49 2 -5
BITMAP
001E0000
001E0000
001E0000
001E0000
001E0000
03FFF000
0FFFFF00
1FFFFF00
3FFFFF00
7FFFFF00
7FFFFF00
7FFFFF00
FF800000
FF000000
FF000000
FF000000
FF000000
FF000000
FF000000
FF000000
FF800000
7FFFF000
7FFFFC00
7FFFFE00
3FFFFF00
1FFFFF80
0FFFFF80
07FFFF80
0000FFC0
00003FC0
00003FC0
00003FC0
00001FC0
00001FC0
00003FC0
00003FC0
00007FC0
7FFFFF80
7FFFFF80
7FFFFF80
7FFFFF00
7FFFFE00
7FFFFC00
07FFF000
001E0000
001E0000
001E0000
001E0000
001E0000
ENDCHAR
STARTCHAR 0025
ENCODING 37
SWIDTH 966 0
DWIDTH 51 0
BBX 47 40 2 0
BITMAP
1FFF0000FC00
3FFF8000F800
7FFFC001F000
FFFFE003F000
FFFFE003E000
FC07E007E000
F803E007C000
F803E00F8000
F803E00F8000
F803E01F0000
F803E03F0000
F803E03E0000
F803E07E0000
F803E07C0000
F803E0F80000
FC07E1F80000
FFFFE1F00000
FFFFE3F00000
7FFFC3E00000
3FFF87E1FFF0
1FFF07C7FFF8
00000F87FFFC
00001F8FFFFE
00001F0FFFFE
00003F0FC07E
00003E0F803E
00007C0F803E
0000FC0F803E
0000F80F803E
0001F80F803E
0001F00F803E
0003F00F803E
0007E00F803E
0007C00F803E
000FC00FC07E
000F800FFFFE
001F800FFFFE
001F0007FFFC
003E0007FFF8
007E0001FFF0
ENDCHAR
STARTCHAR 0026
ENCODING 38
SWIDTH 682 0
DWIDTH 36 0
BBX 34 39 1 -3
BITMAP
003FE00000
01FFFF0000
03FFFF8000
07FFFF8000
07FFFF8000
0FFFFF8000
0FFFFF8000
0FF8000000
0FF0000000
0FF0000000
07F8000000
07F8000000
03FC000000
03FE000000
01FF000000
00FF000000
00FF800000
01FFC00000
03FFE00000
07FFE00C00
0FFFF01E00
1FFFF83F00
3FE7FC7E00
3FC7FCFE00
7F83FFFC00
7F01FFFC00
7F00FFF800
FE007FF000
FE007FE000
FF007FE000
7F00FFF000
7F81FFF000
7FFFFFF800
3FFFFFFC00
3FFFFBFE00
1FFFF1FE00
0FFFE1FF00
07FFC0FF80
01FF007FC0
ENDCHAR
STARTCHAR 0027
ENCODING 39
SWIDTH 227 0
DWIDTH 12 0
BBX 8 11 2 29
BITMAP
FF
FF
FF
FF
FF
FF
FE
7E
7E
7E
7E
ENDCHAR
STARTCHAR 0028
ENCODING 40
SWIDTH 378 0
DWIDTH 20 0
BBX 16 56 3 -11
BITMAP
007F
00FE
01FC
01FC
03F8
07F8
07F0
0FF0
0FF0
0FE0
1FE0
1FC0
3FC0
3FC0
3F80
3F80
7F80
7F80
7F00
7F00
7F00
FF00
FF00
FF00
FF00
FE00
FE00
FE00
FE00
FE00
FE00
FF00
FF00
FF00
FF00
7F00
7F00
7F00
7F80
7F80
7F80
3F80
3FC0
3FC0
1FC0
1FE0
1FE0
0FF0
0FF0
07F0
07F8
03F8
03FC
01FC
00FE
007F
ENDCHAR
STARTCHAR 0029
ENCODING 41
SWIDTH 378 0
DWIDTH 20 0
BBX 16 56 1 -11
BITMAP
FE00
7F00
7F80
3F80
3FC0
1FC0
1FE0
0FE0
0FF0
07F0
07F8
07F8
03F8
03FC
03FC
01FC
01FE
01FE
01FE
00FE
00FE
00FF
00FF
00FF
00FF
00FF
007F
007F
007F
00FF
00FF
00FF
00FF
00FF
00FF
00FE
00FE
00FE
01FE
01FE
01FC
03FC
03FC
03FC
03F8
07F8
07F0
0FF0
0FF0
1FE0
1FE0
1FC0
3F80
7F80
7F00
FE00
ENDCHAR
STARTCHAR 002A
ENCODING 42
SWIDTH 435 0
DWIDTH 23 0
BBX 18 18 2 21
BITMAP
00C000
01E000
01E000
00F000
00F000
1EF8C0
FEFBC0
FF47C0
FF1F80
001F00
0F2E00
0F3400
0F7800
0FFC00
1E7F00
1E1F00
1C0700
040200
ENDCHAR
STARTCHAR 002B
ENCODING 43
SWIDTH 492 0
DWIDTH 26 0
BBX 22 22 2 8
BITMAP
00FC00
00FC00
00FC00
00FC00
00FC00
00FC00
00FC00
00FC00
FFFFFC
FFFFFC
FFFFFC
FFFFFC
FFFFFC
FFFFFC
00FC00
00FC00
00FC00
00FC00
00FC00
00FC00
00FC00
00FC00
ENDCHAR
STARTCHAR 002C
ENCODING 44
SWIDTH 265 0
DWIDTH 14 0
BBX 7 12 3 -6
BITMAP
FE
FE
FE
FE
FE
FE
7E
3E
3E
7E
7C
78
ENDCHAR
STARTCHAR 002D
ENCODING 45
SWIDTH 360 0
DWIDTH 19 0
BBX 17 6 1 12
BITMAP
FFFF80
FFFF80
FFFF80
FFFF80
FFFF80
FFFF80
ENDCHAR
STARTCHAR 002E
ENCODING 46
SWIDTH 265 0
DWIDTH 14 0
BBX 8 7 3 -1
BITMAP
FE
FF
FF
FF
FF
FF
7E
ENDCHAR
STARTCHAR 002F
ENCODING 47
SWIDTH 454 0
DWIDTH 24 0
BBX 22 45 1 -4
BITMAP
0001FC
0003FC
0003FC
0003F8
0007F8
0007F8
0007F0
000FF0
000FF0
000FE0
001FE0
001FE0
001FC0
003FC0
003FC0
003F80
007F80
007F80
007F00
00FF00
00FF00
00FE00
01FE00
01FE00
01FC00
03FC00
03FC00
03F800
07F800
07F800
07F000
0FF000
0FF000
0FE000
1FE000
1FE000
1FC000
3FC000
3FC000
3F8000
7F8000
7F8000
7F0000
FF0000
FF0000
ENDCHAR
STARTCHAR 0030
ENCODING 48
SWIDTH 625 0
DWIDTH 33 0
BBX 28 41 3 -1
BITMAP
03FFFC00
0FFFFF00
3FFFFF80
3FFFFFC0
7FFFFFE0
7FFFFFE0
FFFFFFE0
FF801FE0
FF000FE0
FE000FF0
FE000FF0
FE000FF0
FE000FF0
FE000FF0
FE000FF0
FE000FF0
FE000FF0
FE000FF0
FE000FF0
FE000FF0
FE000FF0
FE000FF0
FE000FF0
FE000FF0
FE000FF0
FE000FF0
FE000FF0
FE000FF0
FE000FF0
FE000FF0
FE000FF0
FE000FE0
FF000FE0
FF801FE0
FFFFFFE0
FFFFFFE0
7FFFFFC0
7FFFFFC0
3FFFFF80
0FFFFF00
03FFFC00
ENDCHAR
STARTCHAR 0031
ENCODING 49
SWIDTH 378 0
DWIDTH 20 0
BBX 14 41 2 -1
BITMAP
03FC
07FC
1FFC
7FFC
FFFC
FFFC
FFFC
FFFC
F1FC
81FC
01FC
01FC
01FC
01FC
01FC
01FC
01FC
01FC
01FC
01FC
01FC
01FC
01FC
01FC
01FC
01FC
01FC
01FC
01FC
01FC
01FC
01FC
01FC
01FC
01FC
01FC
01FC
01FC
01FC
01FC
01FC
ENDCHAR
STARTCHAR 0032
ENCODING 50
SWIDTH 587 0
DWIDTH 31 0
BBX 27 39 2 -1
BITMAP
1FFFE000
FFFFFC00
FFFFFE00
FFFFFF00
FFFFFF80
FFFFFFC0
FFFFFFC0
00007FC0
00001FE0
00001FE0
00001FE0
00000FE0
00000FE0
00001FE0
00001FE0
00003FC0
00003FC0
00007FC0
0000FF80
0001FF80
0003FF00
0007FE00
000FFE00
001FFC00
003FF800
007FF000
00FFE000
01FFC000
07FF8000
0FFF0000
1FFE0000
7FF80000
FFFFFFE0
FFFFFFE0
FFFFFFE0
FFFFFFE0
FFFFFFE0
FFFFFFE0
FFFFFFE0
ENDCHAR
STARTCHAR 0033
ENCODING 51
SWIDTH 587 0
DWIDTH 31 0
BBX 27 40 1 0
BITMAP
03FFF800
7FFFFE00
FFFFFF00
FFFFFF80
FFFFFFC0
FFFFFFC0
FFFFFFC0
00003FE0
00001FE0
00001FE0
00001FE0
00001FE0
00001FE0
00001FE0
00001FE0
00001FC0
00007FC0
0FFFFFC0
0FFFFF80
0FFFFF00
0FFFFF00
0FFFFF80
0FFFFFC0
003FFFC0
00003FC0
00001FE0
00001FE0
00001FE0
00001FE0
00001FE0
00001FE0
00001FE0
00003FE0
0FFFFFC0
7FFFFFC0
7FFFFFC0
7FFFFF80
7FFFFF00
7FFFFE00
1FFFF800
ENDCHAR
STARTCHAR 0034
ENCODING 52
SWIDTH 625 0
DWIDTH 33 0
BBX 31 39 1 1
BITMAP
0007F800
0007F800
000FF000
000FF000
001FF000
001FE000
003FE000
003FC000
007FC000
007F8000
00FF8000
00FF07E0
01FF07E0
01FE0FE0
03FE0FE0
03FC0FE0
07FC0FE0
07F80FE0
0FF80FE0
0FF00FE0
1FF00FE0
1FE00FE0
3FE00FE0
3FC00FE0
7FFFFFFE
7FFFFFFE
FFFFFFFE
FFFFFFFE
FFFFFFFE
7FFFFFFE
7FFFFFF8
00000FE0
00000FE0
00000FE0
00000FE0
00000FE0
00000FE0
00000FE0
00000FE0
ENDCHAR
STARTCHAR 0035
ENCODING 53
SWIDTH 587 0
DWIDTH 31 0
BBX 26 41 3 -1
BITMAP
7FFFFF80
7FFFFF80
7FFFFF80
7FFFFF80
7FFFFF80
7FFFFF80
7FFFFF80
7F000000
7F000000
7F000000
7F000000
7F000000
7F000000
7F000000
7F000000
7F3FF000
7FFFFC00
FFFFFF00
FFFFFF00
FFFFFF80
FFFFFF80
FFFFFFC0
FF003FC0
FE003FC0
FE001FC0
00001FC0
00001FC0
00001FC0
00001FC0
00001FC0
00001FC0
00001FC0
00003FC0
00007FC0
FFFFFFC0
FFFFFF80
FFFFFF80
FFFFFF00
FFFFFE00
FFFFFC00
07FFF000
ENDCHAR
STARTCHAR 0036
ENCODING 54
SWIDTH 606 0
DWIDTH 32 0
BBX 27 39 3 -1
BITMAP
00FFC000
07FFFFC0
0FFFFFC0
1FFFFFC0
3FFFFFC0
3FFFFFC0
7FFFFFC0
7FC00000
7F800000
7F000000
FF000000
FF000000
FE000000
FE000000
FE000000
FE000000
FFFFFE00
FFFFFF00
FFFFFF80
FFFFFFC0
FFFFFFC0
FFFFFFE0
FE003FE0
FE001FE0
FE001FE0
FE001FE0
FE001FE0
FE001FE0
FF001FE0
FF001FE0
7F801FE0
7FC01FE0
7FFFFFE0
3FFFFFC0
3FFFFFC0
1FFFFFC0
1FFFFF80
07FFFF00
01FFF800
ENDCHAR
STARTCHAR 0037
ENCODING 55
SWIDTH 549 0
DWIDTH 29 0
BBX 27 41 1 -1
BITMAP
FFFFFF80
FFFFFFC0
FFFFFFE0
FFFFFFE0
FFFFFFE0
FFFFFFC0
FFFFFFC0
00003FC0
00007F80
00007F80
00007F80
0000FF00
0000FF00
0000FF00
0001FE00
0001FE00
0001FE00
0003FC00
0003FC00
0003FC00
0007F800
0007F800
000FF800
000FF000
000FF000
001FE000
001FE000
001FE000
003FC000
003FC000
003FC000
007F8000
007F8000
007F8000
00FF0000
00FF0000
00FF0000
01FE0000
01FE0000
01FE0000
03FC0000
ENDCHAR
STARTCHAR 0038
ENCODING 56
SWIDTH 625 0
DWIDTH 33 0
BBX 27 41 3 -1
BITMAP
03FFF800
1FFFFF00
3FFFFF80
7FFFFFC0
7FFFFFC0
FFFFFFC0
FFFFFFE0
FF001FE0
FF001FE0
FE001FE0
FE000FE0
FE000FE0
FE000FE0
FE000FE0
FE001FE0
FF001FE0
FF803FC0
7FFFFFC0
7FFFFF00
3FFFFF00
1FFFFF80
1FFFFFC0
3FFFFFC0
7F803FE0
FF001FE0
FF001FE0
FE000FE0
FE000FE0
FE000FE0
FE000FE0
FE000FE0
FE000FE0
FF001FE0
FF001FE0
FFFFFFE0
FFFFFFC0
7FFFFFC0
7FFFFFC0
3FFFFF80
1FFFFF00
03FFFC00
ENDCHAR
STARTCHAR 0039
ENCODING 57
SWIDTH 606 0
DWIDTH 32 0
BBX 28 40 2 -1
BITMAP
03FFF800
0FFFFE00
3FFFFF00
3FFFFF00
7FFFFF80
7FFFFF80
7FFFFFC0
FF807FC0
FF003FC0
FF001FE0
FF001FE0
FF000FE0
FF000FE0
FF000FE0
FF000FE0
FF000FE0
FF000FE0
7FE00FE0
7FFFFFF0
7FFFFFF0
3FFFFFF0
3FFFFFF0
1FFFFFF0
03FFCFE0
00000FE0
00000FE0
00000FE0
00000FE0
00000FE0
00001FE0
00001FE0
00003FC0
00003FC0
3FFFFFC0
3FFFFF80
3FFFFF80
3FFFFF00
3FFFFE00
3FFFFC00
07FFF800
ENDCHAR
STARTCHAR 003A
ENCODING 58
SWIDTH 265 0
DWIDTH 14 0
BBX 8 30 3 -1
BITMAP
7E
FF
FF
FF
FF
FF
FE
00
00
00
00
00
00
00
00
00
00
00
00
00
00
00
00
FE
FF
FF
FF
FF
FF
7E
ENDCHAR
STARTCHAR 003B
ENCODING 59
SWIDTH 265 0
DWIDTH 14 0
BBX 8 34 3 -6
BITMAP
7E
FF
FF
FF
FF
FF
7F
00
00
00
00
00
00
00
00
00
00
00
00
00
00
7E
FE
FE
FE
FE
FE
FE
7E
3E
3E
7E
7C
78
ENDCHAR
STARTCHAR 003C
ENCODING 60
SWIDTH 454 0
DWIDTH 24 0
BBX 20 23 2 7
BITMAP
000010
000070
0003F0
000FF0
007FF0
03FFF0
0FFFF0
7FFFE0
FFFF00
FFF800
FFC000
FF0000
FFE000
FFF800
FFFF00
3FFFC0
0FFFF0
01FFF0
007FF0
001FF0
0003F0
0000F0
000010
ENDCHAR
STARTCHAR 003D
ENCODING 61
SWIDTH 473 0
DWIDTH 25 0
BBX 23 17 1 10
BITMAP
FFFFFE
FFFFFE
FFFFFE
FFFFFE
FFFFFE
FFFFFE
000000
000000
000000
000000
000000
FFFFFE
FFFFFE
FFFFFE
FFFFFE
FFFFFE
FFFFFE
ENDCHAR
STARTCHAR 003E
ENCODING 62
SWIDTH 454 0
DWIDTH 24 0
BBX 20 22 2 8
BITMAP
E00000
FC0000
FF0000
FFE000
FFF800
FFFF00
7FFFE0
0FFFF0
01FFF0
007FF0
000FF0
007FF0
03FFF0
0FFFF0
7FFFC0
FFFF00
FFF800
FFE000
FF0000
FC0000
E00000
800000
ENDCHAR
STARTCHAR 003F
ENCODING 63
SWIDTH 549 0
DWIDTH 29 0
BBX 26 39 1 -1
BITMAP
03FFE000
FFFFF800
FFFFFE00
FFFFFF00
FFFFFF00
FFFFFF80
FFFFFF80
00007FC0
00003FC0
00003FC0
00001FC0
00001FC0
00001FC0
00001FC0
00001FC0
00001FC0
00003FC0
00007FC0
0007FF80
00FFFF80
00FFFF80
00FFFF00
00FFFE00
00FFF000
00FC0000
00FC0000
00FC0000
00FC0000
00FC0000
00000000
00000000
00000000
00FE0000
00FE0000
00FE0000
00FE0000
00FE0000
00FE0000
00FC0000
ENDCHAR
STARTCHAR 0040
ENCODING 64
SWIDTH 871 0
DWIDTH 46 0
BBX 39 48 3 -12
BITMAP
003FFFFF00
01FFFFFFC0
01FFFFFFF0
01FFFFFFF8
01FFFFFFF8
01FFFFFFFC
00000001FE
00000000FE
000000007E
000000007E
03FFFF807E
0FFFFFE07E
1FFFFFF03E
3FFFFFF83E
7FFFFFF83E
FFFFFFFC3E
FF0001FC3E
FC0000FC3E
FC0000FC3E
FC0000FC3E
FC0000FC3E
FC03FFFC3E
FC0FFFFC3E
FC1FFFFC3E
FC3FFFFC3E
FC3FFCFC3E
FC7F00FC3E
FC7E00FC3E
FC7E00FC3E
FC7E00FC3E
FC7E01FC3E
FC7F07FC3E
FC7FFFFC3E
FC3FFFFC3E
FC3FFFFC3E
FC1FFE7C3E
FC0FF87C3E
FC07E0007E
FC0000007E
FC0000007E
FE000000FE
FF000001FE
7FFFFFFFFC
7FFFFFFFFC
3FFFFFFFF8
1FFFFFFFF0
0FFFFFFFE0
01FFFFFF80
ENDCHAR
STARTCHAR 0041
ENCODING 65
SWIDTH 701 0
DWIDTH 37 0
BBX 34 41 2 -1
BITMAP
0007F80000
000FFC0000
000FFC0000
000FFC0000
001FFE0000
001FFE0000
001FFE0000
003FFF0000
003FFF0000
003FFF0000
007FFF0000
007FFF8000
007F3F8000
007F3F8000
00FF3FC000
00FE1FC000
00FE1FC000
01FE1FE000
01FE1FE000
01FC0FE000
03FC0FF000
03FC0FF000
03F807F000
07F807F000
07F807F800
07FFFFF800
0FFFFFF800
0FFFFFFC00
0FFFFFFC00
1FFFFFFC00
1FFFFFFE00
1FFFFFFE00
3FC001FE00
3FC000FE00
3FC000FF00
3F8000FF00
7F80007F00
7F80007F80
7F00007F80
FF00007F80
FF00003FC0
ENDCHAR
STARTCHAR 0042
ENCODING 66
SWIDTH 606 0
DWIDTH 32 0
BBX 28 41 3 -1
BITMAP
FFFFF000
FFFFFE00
FFFFFF00
FFFFFF80
FFFFFFC0
FFFFFFC0
FFFFFFC0
FF003FE0
FF001FE0
FF001FE0
FF000FE0
FF000FE0
FF000FE0
FF000FE0
FF001FE0
FF001FC0
FF007FC0
FFFFFF80
FFFFFF80
FFFFFE00
FFFFFE00
FFFFFF80
FFFFFFC0
FF003FC0
FF001FE0
FF000FE0
FF000FE0
FF000FF0
FF000FF0
FF000FF0
FF000FF0
FF000FF0
FF000FE0
FF001FE0
FFFFFFE0
FFFFFFE0
FFFFFFC0
FFFFFF80
FFFFFF00
FFFFFE00
FFFFF800
ENDCHAR
STARTCHAR 0043
ENCODING 67
SWIDTH 568 0
DWIDTH 30 0
BBX 27 39 2 -1
BITMAP
007FF800
03FFFFC0
07FFFFE0
0FFFFFE0
1FFFFFE0
1FFFFFE0
3FFFFFE0
3FE00020
7FC00000
7F800000
7F800000
7F000000
7F000000
FF000000
FF000000
FF000000
FF000000
FF000000
FF000000
FF000000
FF000000
FF000000
FF000000
FF000000
FF000000
7F000000
7F000000
7F000000
7F800000
7F800000
3FC00000
3FF00000
3FFFFFE0
1FFFFFE0
0FFFFFE0
0FFFFFE0
03FFFFE0
01FFFFE0
003FFC00
ENDCHAR
STARTCHAR 0044
ENCODING 68
SWIDTH 663 0
DWIDTH 35 0
BBX 30 41 3 -1
BITMAP
FFFFF000
FFFFFE00
FFFFFF00
FFFFFF80
FFFFFFC0
FFFFFFE0
FFFFFFF0
FF001FF0
FF000FF0
FF0007F8
FF0007F8
FF0003F8
FF0003F8
FF0003FC
FF0003FC
FF0003FC
FF0003FC
FF0001FC
FF0001FC
FF0001FC
FF0001FC
FF0001FC
FF0001FC
FF0001FC
FF0003FC
FF0003FC
FF0003FC
FF0003FC
FF0003F8
FF0003F8
FF0007F8
FF0007F8
FF000FF0
FF001FF0
FFFFFFE0
FFFFFFE0
FFFFFFC0
FFFFFF80
FFFFFF00
FFFFFE00
FFFFF800
ENDCHAR
STARTCHAR 0045
ENCODING 69
SWIDTH 568 0
DWIDTH 30 0
BBX 25 41 3 -1
BITMAP
07FFF000
1FFFFF80
3FFFFF80
7FFFFF80
7FFFFF80
FFFFFF80
FFFFFF80
FF000000
FF000000
FE000000
FE000000
FE000000
FE000000
FE000000
FE000000
FE000000
FE000000
FFFF0000
FFFFFE00
FFFFFE00
FFFFFE00
FFFFFE00
FFFFFE00
FFFFFE00
FE000000
FE000000
FE000000
FE000000
FE000000
FE000000
FE000000
FE000000
FF000000
FF000000
FFFFFF80
FFFFFF80
7FFFFF80
7FFFFF80
3FFFFF80
1FFFFF80
07FFF800
ENDCHAR
STARTCHAR 0046
ENCODING 70
SWIDTH 568 0
DWIDTH 30 0
BBX 25 41 3 -1
BITMAP
07FFF000
1FFFFF80
3FFFFF80
7FFFFF80
7FFFFF80
FFFFFF80
FFFFFF80
FF000000
FF000000
FE000000
FE000000
FE000000
FE000000
FE000000
FE000000
FE000000
FE000000
FFFFFE00
FFFFFE00
FFFFFE00
FFFFFE00
FFFFFE00
FFFFFE00
FFFF0000
FE000000
FE000000
FE000000
FE000000
FE000000
FE000000
FE000000
FE000000
FE000000
FE000000
FE000000
FE000000
FE000000
FE000000
FE000000
FE000000
FE000000
ENDCHAR
STARTCHAR 0047
ENCODING 71
SWIDTH 606 0
DWIDTH 32 0
BBX 28 40 2 -1
BITMAP
00060000
01FFFF80
03FFFFF0
0FFFFFF0
0FFFFFF0
1FFFFFF0
3FFFFFF0
3FF001F0
3FC00000
7F800000
7F800000
7F000000
7F000000
7F000000
FF000000
FF000000
FF000000
FF000000
FF007FF0
FF01FFF0
FF01FFF0
FF01FFF0
FF01FFF0
FF01FFF0
FF0007F0
FF0007F0
FF0007F0
7F0007F0
7F0007F0
7F0007F0
7F8007F0
7F800FF0
3FE07FF0
3FFFFFF0
3FFFFFF0
1FFFFFF0
0FFFFFF0
07FFFFF0
03FFE3F0
00FF81F0
ENDCHAR
STARTCHAR 0048
ENCODING 72
SWIDTH 644 0
DWIDTH 34 0
BBX 28 41 3 -1
BITMAP
FF0007F0
FF0007F0
FF0007F0
FF0007F0
FF0007F0
FF0007F0
FF0007F0
FF0007F0
FF0007F0
FF0007F0
FF0007F0
FF0007F0
FF0007F0
FF0007F0
FF0007F0
FF0007F0
FF0007F0
FF0007F0
FFFFFFF0
FFFFFFF0
FFFFFFF0
FFFFFFF0
FFFFFFF0
FFFFFFF0
FFFFFFF0
FF0007F0
FF0007F0
FF0007F0
FF0007F0
FF0007F0
FF0007F0
FF0007F0
FF0007F0
FF0007F0
FF0007F0
FF0007F0
FF0007F0
FF0007F0
FF0007F0
FF0007F0
FF0007F0
ENDCHAR
STARTCHAR 0049
ENCODING 73
SWIDTH 246 0
DWIDTH 13 0
BBX 8 41 3 -1
BITMAP
FF
FF
FF
FF
FF
FF
FF
FF
FF
FF
FF
FF
FF
FF
FF
FF
FF
FF
FF
FF
FF
FF
FF
FF
FF
FF
FF
FF
FF
FF
FF
FF
FF
FF
FF
FF
FF
FF
FF
FF
FF
ENDCHAR
STARTCHAR 004A
ENCODING 74
SWIDTH 360 0
DWIDTH 19 0
BBX 15 39 1 1
BITMAP
00FE
00FE
00FE
00FE
00FE
00FE
00FE
00FE
00FE
00FE
00FE
00FE
00FE
00FE
00FE
00FE
00FE
00FE
00FE
00FE
00FE
00FE
00FE
00FE
00FE
00FE
00FE
00FE
00FE
00FE
01FE
03FE
FFFE
FFFE
FFFE
FFFE
FFFC
7FF8
1FE0
ENDCHAR
STARTCHAR 004B
ENCODING 75
SWIDTH 625 0
DWIDTH 33 0
BBX 29 41 3 -1
BITMAP
FE000FF8
FE001FF0
FE001FE0
FE003FE0
FE003FC0
FE007FC0
FE007F80
FE00FF80
FE01FF00
FE01FE00
FE03FE00
FE03FC00
FE07FC00
FE07F800
FE0FF800
FE1FF000
FE1FE000
FFFFE000
FFFFC000
FFFFC000
FFFF8000
FFFF8000
FFFFC000
FFFFE000
FE1FE000
FE1FF000
FE0FF000
FE0FF800
FE07FC00
FE03FC00
FE03FE00
FE01FE00
FE01FF00
FE00FF00
FE00FF80
FE007FC0
FE003FC0
FE003FE0
FE001FE0
FE001FF0
FE000FF8
ENDCHAR
STARTCHAR 004C
ENCODING 76
SWIDTH 530 0
DWIDTH 28 0
BBX 24 41 3 -1
BITMAP
FF0000
FF0000
FF0000
FF0000
FF0000
FF0000
FF0000
FF0000
FF0000
FF0000
FF0000
FF0000
FF0000
FF0000
FF0000
FF0000
FF0000
FF0000
FF0000
FF0000
FF0000
FF0000
FF0000
FF0000
FF0000
FF0000
FF0000
FF0000
FF0000
FF0000
FF0000
FF0000
FF0000
FF0000
FFFFFF
FFFFFF
7FFFFF
7FFFFF
3FFFFF
1FFFFF
07FFFF
ENDCHAR
STARTCHAR 004D
ENCODING 77
SWIDTH 852 0
DWIDTH 45 0
BBX 40 41 2 -1
BITMAP
0FFC001FF8
1FFC003FF8
1FFC003FF8
1FFE003FF8
1FFE003FF8
1FFE007FF8
1FFE007FFC
1FFF007FFC
1FFF007FFC
1FFF007FFC
1FFF00FFFC
1FFF80FFFC
1FFF80FFFC
3FFF80FFFC
3FFF81FFFC
3FFF81FDFC
3FFFC1FDFC
3F9FC1FDFC
3F9FC3FDFE
3F9FC3F9FE
3F9FE3F9FE
3F8FE3F9FE
3F8FE3F8FE
3F8FE7F0FE
3F8FF7F0FE
7F87F7F0FE
7F87F7F0FE
7F87FFF0FE
7F87FFE0FE
7F03FFE0FF
7F03FFE0FF
7F03FFE0FF
7F03FFC0FF
7F03FFC07F
7F01FFC07F
7F01FFC07F
7F01FFC07F
FF01FF807F
FF00FF807F
FF00FF807F
FF00FF807F
ENDCHAR
STARTCHAR 004E
ENCODING 78
SWIDTH 682 0
DWIDTH 36 0
BBX 30 41 3 -1
BITMAP
FF0001FC
FF8001FC
FF8001FC
FFC001FC
FFC001FC
FFE001FC
FFE001FC
FFF001FC
FFF801FC
FFF801FC
FFFC01FC
FFFC01FC
FFFE01FC
FFFF01FC
FFFF01FC
FFFF81FC
FF7F81FC
FF7FC1FC
FF3FC1FC
FF3FE1FC
FF1FF1FC
FF0FF1FC
FF0FF9FC
FF07F9FC
FF07FDFC
FF03FDFC
FF03FFFC
FF01FFFC
FF00FFFC
FF00FFFC
FF007FFC
FF007FFC
FF003FFC
FF001FFC
FF001FFC
FF000FFC
FF000FFC
FF0007FC
FF0003FC
FF0003FC
FF0001FC
ENDCHAR
STARTCHAR 004F
ENCODING 79
SWIDTH 663 0
DWIDTH 35 0
BBX 31 41 3 -1
BITMAP
007FF800
03FFFF00
07FFFF80
0FFFFFE0
1FFFFFE0
3FFFFFF0
3FFFFFF0
7FE00FF8
7F8007F8
7F8003FC
7F0003FC
FF0003FC
FF0001FC
FE0001FC
FE0001FC
FE0001FC
FE0001FE
FE0001FE
FE0001FE
FE0001FE
FE0001FE
FE0001FE
FE0001FE
FE0001FE
FE0001FE
FE0001FC
FE0001FC
FE0001FC
FE0001FC
FF0003FC
FF0003FC
7F0003FC
7F8007F8
7FE01FF8
3FFFFFF8
3FFFFFF0
1FFFFFE0
1FFFFFE0
07FFFFC0
03FFFF00
007FF800
ENDCHAR
STARTCHAR 0050
ENCODING 80
SWIDTH 606 0
DWIDTH 32 0
BBX 27 41 3 -1
BITMAP
FFFFF000
FFFFFE00
FFFFFF00
FFFFFF80
FFFFFF80
FFFFFFC0
FFFFFFC0
FE003FC0
FE001FE0
FE001FE0
FE001FE0
FE000FE0
FE000FE0
FE000FE0
FE001FE0
FE001FE0
FE001FE0
FE001FE0
FE003FC0
FFFFFFC0
FFFFFFC0
FFFFFF80
FFFFFF80
FFFFFF00
FFFFFC00
FE01E000
FE000000
FE000000
FE000000
FE000000
FE000000
FE000000
FE000000
FE000000
FE000000
FE000000
FE000000
FE000000
FE000000
FE000000
FE000000
ENDCHAR
STARTCHAR 0051
ENCODING 81
SWIDTH 663 0
DWIDTH 35 0
BBX 31 50 3 -11
BITMAP
007FF800
03FFFF00
07FFFF80
0FFFFFC0
1FFFFFE0
3FFFFFF0
3FFFFFF0
7FE00FF8
7F8007F8
7F8003FC
7F0003FC
FF0003FC
FF0001FC
FE0001FC
FE0001FC
FE0001FC
FE0001FE
FE0001FE
FE0001FE
FE0001FE
FE0001FE
FE0001FE
FE0001FE
FE0001FE
FE0001FE
FE0001FC
FE0001FC
FE0001FC
FE0001FC
FF0003FC
FF0003FC
7F0003FC
7F8007F8
7FE01FF8
3FFFFFF8
3FFFFFF0
1FFFFFE0
1FFFFFE0
07FFFFC0
03FFFF00
007FF800
00000000
00000000
0007C000
0007F1C0
0003FFC0
0003FFC0
0001FFC0
0000FFC0
00003FC0
ENDCHAR
STARTCHAR 0052
ENCODING 82
SWIDTH 606 0
DWIDTH 32 0
BBX 28 41 3 -1
BITMAP
FFFFF000
FFFFFE00
FFFFFF00
FFFFFF80
FFFFFF80
FFFFFFC0
FFFFFFC0
FE003FE0
FE001FE0
FE001FE0
FE000FE0
FE000FE0
FE000FE0
FE000FE0
FE000FE0
FE001FE0
FE001FE0
FE003FE0
FFFFFFC0
FFFFFFC0
FFFFFFC0
FFFFFF80
FFFFFF00
FFFFFE00
FE1FF800
FE03FC00
FE03FC00
FE01FC00
FE01FE00
FE01FE00
FE00FF00
FE00FF00
FE007F80
FE007F80
FE007F80
FE003FC0
FE003FC0
FE001FE0
FE001FE0
FE001FF0
FE000FF0
ENDCHAR
STARTCHAR 0053
ENCODING 83
SWIDTH 587 0
DWIDTH 31 0
BBX 26 40 3 0
BITMAP
03FFE000
0FFFFF80
3FFFFF80
7FFFFF80
7FFFFF80
FFFFFF80
FFFFFF80
FF000000
FE000000
FE000000
FE000000
FE000000
FE000000
FE000000
FE000000
FF000000
FF800000
FFFFFC00
FFFFFE00
7FFFFF00
7FFFFF80
3FFFFF80
1FFFFFC0
03FFFFC0
00003FC0
00001FC0
00001FC0
00001FC0
00001FC0
00001FC0
00001FC0
00001FC0
00003FC0
7FFFFFC0
7FFFFFC0
7FFFFF80
7FFFFF80
7FFFFF00
7FFFFC00
03FFF000
ENDCHAR
STARTCHAR 0054
ENCODING 84
SWIDTH 587 0
DWIDTH 31 0
BBX 28 41 2 -1
BITMAP
FFFFFFF0
FFFFFFF0
FFFFFFF0
FFFFFFF0
FFFFFFF0
FFFFFFF0
FFFFFFF0
003F8000
003F8000
003F8000
003F8000
003F8000
003F8000
003F8000
003F8000
003F8000
003F8000
003F8000
003F8000
003F8000
003F8000
003F8000
003F8000
003F8000
003F8000
003F8000
003F8000
003F8000
003F8000
003F8000
003F8000
003F8000
003F8000
003F8000
003F8000
003F8000
003F8000
003F8000
003F8000
003F8000
003F8000
ENDCHAR
STARTCHAR 0055
ENCODING 85
SWIDTH 663 0
DWIDTH 35 0
BBX 30 41 3 -1
BITMAP
FF0003FC
FF0003FC
FF0003FC
FF0003FC
FF0003FC
FF0003FC
FF0003FC
FF0003FC
FF0003FC
FF0003FC
FF0003FC
FF0003FC
FF0003FC
FF0003FC
FF0003FC
FF0003FC
FF0003FC
FF0003FC
FF0003FC
FF0003FC
FF0003FC
FF0003FC
FF0003FC
FF0003FC
FF0003FC
FF0003FC
FF0003FC
FF0003FC
FF0003F8
7F0003F8
7F0007F8
7F8007F8
7FC00FF8
7FE01FF0
3FFFFFF0
3FFFFFE0
1FFFFFE0
1FFFFFC0
0FFFFF80
03FFFF00
00FFF800
ENDCHAR
STARTCHAR 0056
ENCODING 86
SWIDTH 682 0
DWIDTH 36 0
BBX 33 41 2 -1
BITMAP
FF00007F80
FF00007F80
FF00007F00
7F8000FF00
7F8000FF00
7F8000FF00
3F8001FE00
3FC001FE00
3FC001FE00
1FC001FC00
1FE003FC00
1FE003FC00
1FE003F800
0FE007F800
0FF007F800
0FF007F000
07F00FF000
07F80FF000
07F80FE000
03F80FE000
03F81FE000
03FC1FE000
03FC1FC000
01FC3FC000
01FE3FC000
01FE3F8000
00FE7F8000
00FE7F8000
00FF7F0000
00FF7F0000
007FFF0000
007FFE0000
007FFE0000
003FFE0000
003FFC0000
003FFC0000
001FFC0000
001FFC0000
001FF80000
001FF80000
000FF80000
ENDCHAR
STARTCHAR 0057
ENCODING 87
SWIDTH 985 0
DWIDTH 52 0
BBX 49 41 2 -1
BITMAP
FF0001FE007F80
FF0001FE007F80
FF0001FC007F80
7F8003FC007F00
7F8003FC007F00
7F8003FC00FF00
3F8003F800FF00
3FC007F800FE00
3FC007F800FE00
1FC007F801FE00
1FE007F001FE00
1FE007F801FC00
1FE00FF801FC00
0FE00FF803FC00
0FF00FFC03FC00
0FF00FFC03F800
07F01FFC03F800
07F81FFE03F800
07F81FFE07F800
03F81FFE07F000
03F83FFE07F000
03FC3FFF07F000
03FC3FFF0FF000
01FC3FFF0FE000
01FE3FFF8FE000
01FE7FFF8FE000
00FE7F3F9FE000
00FE7F3FDFC000
00FF7F3FDFC000
00FFFF1FDFC000
007FFE1FDFC000
007FFE1FFF8000
007FFE0FFF8000
003FFE0FFF8000
003FFC0FFF0000
003FFC07FF0000
001FFC07FF0000
001FF807FF0000
001FF807FE0000
001FF803FE0000
000FF803FE0000
ENDCHAR
STARTCHAR 0058
ENCODING 88
SWIDTH 644 0
DWIDTH 34 0
BBX 31 41 2 -1
BITMAP
FF0003FE
7F8003FC
7F8007F8
3FC007F8
3FC00FF0
1FE00FF0
1FE01FE0
0FF01FE0
07F03FC0
07F83F80
03F87F80
03FC7F00
01FCFF00
01FEFE00
00FFFE00
00FFFC00
007FFC00
003FF800
003FF000
001FF000
001FE000
001FF000
003FF000
003FF800
007FFC00
00FFFC00
00FFFE00
01FFFE00
01FEFF00
03FCFF00
03FC7F80
07F87F80
07F83FC0
0FF01FC0
0FF01FE0
1FE00FF0
3FC00FF0
3FC007F8
7F8007F8
7F8003FC
FF0003FC
ENDCHAR
STARTCHAR 0059
ENCODING 89
SWIDTH 663 0
DWIDTH 35 0
BBX 31 41 2 -1
BITMAP
FF0001FE
FF0001FE
7F8001FE
7F8003FC
3FC003FC
3FC007F8
3FC007F8
1FE00FF0
1FE00FF0
0FE00FE0
0FF01FE0
07F01FE0
07F83FC0
07F83FC0
03F83F80
03FC7F80
01FC7F00
01FEFF00
01FEFE00
00FFFE00
00FFFC00
007FFC00
007FFC00
003FF800
003FF800
003FF000
001FF000
001FE000
000FE000
000FE000
000FE000
000FE000
000FE000
000FE000
000FE000
000FE000
000FE000
000FE000
000FE000
000FE000
000FE000
ENDCHAR
STARTCHAR 005A
ENCODING 90
SWIDTH 549 0
DWIDTH 29 0
BBX 27 41 1 -1
BITMAP
FFFFFFE0
FFFFFFE0
FFFFFFE0
FFFFFFE0
FFFFFFE0
FFFFFFE0
FFFFFFE0
00003FE0
00007FC0
0000FF80
0000FF80
0001FF00
0003FF00
0003FE00
0007FC00
000FFC00
000FF800
001FF000
001FF000
003FE000
007FE000
007FC000
00FF8000
01FF8000
01FF0000
03FF0000
07FE0000
07FC0000
0FFC0000
1FF80000
1FF00000
3FF00000
3FE00000
7FE00000
FFFFFFE0
FFFFFFE0
FFFFFFE0
FFFFFFE0
FFFFFFE0
FFFFFFE0
FFFFFFE0
ENDCHAR
STARTCHAR 005B
ENCODING 91
SWIDTH 341 0
DWIDTH 18 0
BBX 14 55 3 -11
BITMAP
07FC
1FFC
3FFC
3FFC
7FFC
7FFC
7F80
7F00
FF00
FF00
FF00
FF00
FF00
FF00
FF00
FF00
FF00
FF00
FF00
FF00
FF00
FF00
FF00
FF00
FF00
FF00
FF00
FF00
FF00
FF00
FF00
FF00
FF00
FF00
FF00
FF00
FF00
FF00
FF00
FF00
FF00
FF00
FF00
FF00
FF00
FF00
FF00
7F80
7FC0
7FFC
7FFC
3FFC
1FFC
0FFC
03FC
ENDCHAR
STARTCHAR 005C
ENCODING 92
SWIDTH 454 0
DWIDTH 24 0
BBX 22 45 1 -4
BITMAP
FE0000
FF0000
FF0000
7F0000
7F8000
7F8000
3F8000
3FC000
3FC000
1FC000
1FE000
1FE000
0FE000
0FF000
0FF000
07F000
07F800
07F800
03F800
03FC00
03FC00
01FC00
01FE00
01FE00
00FF00
00FF00
00FF00
007F80
007F80
007F80
003FC0
003FC0
003FC0
001FE0
001FE0
001FE0
000FF0
000FF0
000FF0
0007F8
0007F8
0007F8
0003FC
0003FC
0003FC
ENDCHAR
STARTCHAR 005D
ENCODING 93
SWIDTH 341 0
DWIDTH 18 0
BBX 13 55 1 -11
BITMAP
FF00
FFC0
FFE0
FFF0
FFF0
FFF8
0FF8
07F8
03F8
03F8
03F8
03F8
03F8
03F8
03F8
03F8
03F8
03F8
03F8
03F8
03F8
03F8
03F8
03F8
03F8
03F8
03F8
03F8
03F8
03F8
03F8
03F8
03F8
03F8
03F8
03F8
03F8
03F8
03F8
03F8
03F8
03F8
03F8
03F8
03F8
03F8
03F8
07F8
0FF8
FFF8
FFF0
FFF0
FFE0
FFC0
FF00
ENDCHAR
STARTCHAR 005E
ENCODING 94
SWIDTH 378 0
DWIDTH 20 0
BBX 16 7 2 28
BITMAP
07F0
0FF0
0FF8
1FFC
3F7C
7E3E
F81F
ENDCHAR
STARTCHAR 005F
ENCODING 95
SWIDTH 682 0
DWIDTH 36 0
BBX 34 6 1 -1
BITMAP
FFFFFFFFC0
FFFFFFFFC0
FFFFFFFFC0
FFFFFFFFC0
FFFFFFFFC0
FFFFFFFFC0
ENDCHAR
STARTCHAR 0060
ENCODING 96
SWIDTH 246 0
DWIDTH 13 0
BBX 11 7 1 28
BITMAP
FE00
7E00
3F00
1F80
0F80
07C0
03E0
ENDCHAR
STARTCHAR 0061
ENCODING 97
SWIDTH 511 0
DWIDTH 27 0
BBX 23 29 2 -1
BITMAP
01FF80
3FFFF0
7FFFF8
7FFFFC
7FFFFE
7FFFFE
4001FE
0000FE
0000FE
0000FE
0000FE
07FFFE
1FFFFE
7FFFFE
7FFFFE
FFFFFE
FF80FE
FE00FE
FE00FE
FE00FE
FE00FE
FE01FE
FF07FE
FFFFFE
FFFFFE
7FFFFE
7FFEFE
1FF87E
07E07E
ENDCHAR
STARTCHAR 0062
ENCODING 98
SWIDTH 549 0
DWIDTH 29 0
BBX 25 42 2 -1
BITMAP
FF000000
FF000000
FF000000
FF000000
FF000000
FF000000
FF000000
FF000000
FF000000
FF000000
FF000000
FF000000
FF000000
FF03E000
FF7FF800
FFFFFE00
FFFFFE00
FFFFFF00
FFFFFF00
FFC0FF80
FF007F80
FF007F80
FF003F80
FF003F80
FF003F80
FF003F80
FF003F80
FF003F80
FF003F80
FF003F80
FF003F80
FF003F80
FF003F80
FF007F80
FF807F80
FFF9FF00
FFFFFF00
FFFFFF00
FFFFFE00
FF7FFC00
FE3FF800
FE07F000
ENDCHAR
STARTCHAR 0063
ENCODING 99
SWIDTH 492 0
DWIDTH 26 0
BBX 22 30 2 -1
BITMAP
03FF80
0FFFF8
1FFFFC
3FFFFC
3FFFFC
7FFFFC
7F8000
7F0000
FF0000
FF0000
FF0000
FE0000
FE0000
FE0000
FE0000
FE0000
FE0000
FE0000
FE0000
FF0000
FF0000
FF0000
7F0000
7FC000
7FFFFC
3FFFFC
3FFFFC
1FFFFC
0FFFFC
03FFE0
ENDCHAR
STARTCHAR 0064
ENCODING 100
SWIDTH 549 0
DWIDTH 29 0
BBX 25 42 2 -1
BITMAP
00003F80
00003F80
00003F80
00003F80
00003F80
00003F80
00003F80
00003F80
00003F80
00003F80
00003F80
00003F80
00003F80
03F03F80
0FFF3F80
1FFFFF80
3FFFFF80
7FFFFF80
7FFFFF80
7F80FF80
7F003F80
FF003F80
FF003F80
FF003F80
FE003F80
FF003F80
FE003F80
FE003F80
FE003F80
FE003F80
FF003F80
FF003F80
FF003F80
FF003F80
7F807F80
7FCFFF80
7FFFFF80
3FFFFF80
3FFFFF80
1FFFBF80
0FFE3F80
03F01F80
ENDCHAR
STARTCHAR 0065
ENCODING 101
SWIDTH 530 0
DWIDTH 28 0
BBX 24 30 2 -1
BITMAP
01FFC0
0FFFF8
1FFFFC
3FFFFE
3FFFFE
7FFFFF
7F80FF
7F00FF
FF007F
FF007F
FE007F
FE00FF
FE01FF
FFFFFF
FFFFFE
FFFFFE
FFFFFC
FFFFF0
FE0000
FE0000
FF0000
FF0000
7F0000
7F8001
7FFFFF
7FFFFF
3FFFFF
1FFFFF
0FFFFF
07FFE0
ENDCHAR
STARTCHAR 0066
ENCODING 102
SWIDTH 397 0
DWIDTH 21 0
BBX 20 44 1 -1
BITMAP
001C00
01FFE0
03FFF0
07FFF0
07FFF0
07FFF0
0FF000
0FF000
0FF000
0FF000
0FF000
0FF000
0FF000
0FF000
3FFFC0
FFFFC0
FFFFC0
FFFFC0
FFFFC0
FFFFC0
0FF000
0FF000
0FF000
0FF000
0FF000
0FF000
0FF000
0FF000
0FF000
0FF000
0FF000
0FF000
0FF000
0FF000
0FF000
0FF000
0FF000
0FF000
0FF000
0FF000
0FF000
0FF000
0FF000
0FF000
ENDCHAR
STARTCHAR 0067
ENCODING 103
SWIDTH 568 0
DWIDTH 30 0
BBX 27 44 2 -15
BITMAP
03FFFFE0
0FFFFFE0
3FFFFFE0
3FFFFFE0
7FFFFFC0
7FFFFF00
FF80FF00
FF007F00
FF007F80
FE007F80
FE007F80
FF007F80
FF007F80
FF007F80
7F80FF00
7FFFFF00
7FFFFF00
3FFFFE00
1FFFFC00
7FFFF800
7FFFE000
FE000000
FE000000
FE000000
FFFFF800
FFFFFE00
FFFFFF00
7FFFFF00
3FFFFF80
3FFFFF80
7F007F80
7F003FC0
FF003FC0
FF003FC0
FF003FC0
FF003FC0
FF003FC0
FF007F80
FFFFFF80
7FFFFF80
7FFFFF00
3FFFFF00
1FFFFE00
07FFF000
ENDCHAR
STARTCHAR 0068
ENCODING 104
SWIDTH 549 0
DWIDTH 29 0
BBX 25 43 2 -1
BITMAP
FF000000
FF000000
FF000000
FF000000
FF000000
FF000000
FF000000
FF000000
FF000000
FF000000
FF000000
FF000000
FF000000
FF07F000
FF1FFC00
FF7FFE00
FFFFFF00
FFFFFF00
FFFFFF00
FFE0FF80
FF807F80
FF003F80
FF003F80
FF003F80
FF003F80
FF003F80
FF003F80
FF003F80
FF003F80
FF003F80
FF003F80
FF003F80
FF003F80
FF003F80
FF003F80
FF003F80
FF003F80
FF003F80
FF003F80
FF003F80
FF003F80
FF003F80
FF003F80
ENDCHAR
STARTCHAR 0069
ENCODING 105
SWIDTH 227 0
DWIDTH 12 0
BBX 8 40 2 -1
BITMAP
FF
FF
FF
FF
FF
FF
FF
00
00
00
FF
FF
FF
FF
FF
FF
FF
FF
FF
FF
FF
FF
FF
FF
FF
FF
FF
FF
FF
FF
FF
FF
FF
FF
FF
FF
FF
FF
FF
FF
ENDCHAR
STARTCHAR 006A
ENCODING 106
SWIDTH 246 0
DWIDTH 13 0
BBX 8 52 2 -13
BITMAP
7F
FF
FF
FF
FF
FF
7F
00
00
00
7F
7F
7F
7F
7F
7F
7F
7F
7F
7F
7F
7F
7F
7F
7F
7F
7F
7F
7F
7F
7F
7F
7F
7F
7F
7F
7F
7F
7F
7F
7F
7F
7F
7F
7F
7F
7F
7F
7E
7E
7E
7E
ENDCHAR
STARTCHAR 006B
ENCODING 107
SWIDTH 549 0
DWIDTH 29 0
BBX 26 43 2 -1
BITMAP
FF000000
FF000000
FF000000
FF000000
FF000000
FF000000
FF000000
FF000000
FF000000
FF000000
FF000000
FF000000
FF000000
FF007FC0
FF00FF80
FF01FF80
FF01FF00
FF03FE00
FF07FC00
FF0FF800
FF1FF800
FF1FF000
FF3FE000
FFFFC000
FFFF8000
FFFF8000
FFFF0000
FFFF8000
FFFFC000
FF3FC000
FF3FE000
FF1FF000
FF1FF000
FF0FF800
FF07F800
FF07FC00
FF03FE00
FF03FE00
FF01FF00
FF00FF00
FF00FF80
FF007FC0
FF003FC0
ENDCHAR
STARTCHAR 006C
ENCODING 108
SWIDTH 322 0
DWIDTH 17 0
BBX 14 43 2 -1
BITMAP
FF00
FF00
FF00
FF00
FF00
FF00
FF00
FF00
FF00
FF00
FF00
FF00
FF00
FF00
FF00
FF00
FF00
FF00
FF00
FF00
FF00
FF00
FF00
FF00
FF00
FF00
FF00
FF00
FF00
FF00
FF00
FF00
FF00
FF00
FF00
7F00
7F80
7FE0
7FFC
3FFC
3FFC
1FFC
07FC
ENDCHAR
STARTCHAR 006D
ENCODING 109
SWIDTH 871 0
DWIDTH 46 0
BBX 42 30 2 -1
BITMAP
FE07F003F800
FE1FFC1FFE00
FE7FFE7FFF00
FFFFFFFFFF80
FFFFFFFFFF80
FFFFFFFFFFC0
FFE0FFF03FC0
FF807FC03FC0
FF007F801FC0
FF007F801FC0
FF003F801FC0
FF003F801FC0
FF003F801FC0
FF003F801FC0
FF003F801FC0
FF003F801FC0
FF003F801FC0
FF003F801FC0
FF003F801FC0
FF003F801FC0
FF003F801FC0
FF003F801FC0
FF003F801FC0
FF003F801FC0
FF003F801FC0
FF003F801FC0
FF003F801FC0
FF003F801FC0
FF003F801FC0
FF003F801FC0
ENDCHAR
STARTCHAR 006E
ENCODING 110
SWIDTH 549 0
DWIDTH 29 0
BBX 25 30 2 -1
BITMAP
FE07F000
FE1FFC00
FE7FFE00
FFFFFF00
FFFFFF00
FFFFFF00
FFE0FF80
FF807F80
FF003F80
FF003F80
FF003F80
FF003F80
FF003F80
FF003F80
FF003F80
FF003F80
FF003F80
FF003F80
FF003F80
FF003F80
FF003F80
FF003F80
FF003F80
FF003F80
FF003F80
FF003F80
FF003F80
FF003F80
FF003F80
FF003F80
ENDCHAR
STARTCHAR 006F
ENCODING 111
SWIDTH 568 0
DWIDTH 30 0
BBX 26 30 2 -1
BITMAP
00FFC000
07FFF800
1FFFFC00
1FFFFE00
3FFFFF00
7FFFFF00
7FC0FF80
7F007F80
7F003F80
FF003F80
FF003F80
FE003F80
FE003F80
FE003FC0
FE003FC0
FE003FC0
FE003FC0
FE003F80
FE003F80
FF003F80
FF003F80
FF003F80
7F807F80
7FC0FF80
7FFFFF00
3FFFFF00
1FFFFE00
1FFFFC00
07FFF800
00FFC000
ENDCHAR
STARTCHAR 0070
ENCODING 112
SWIDTH 549 0
DWIDTH 29 0
BBX 25 43 2 -14
BITMAP
FE07E000
FE3FF800
FE7FFC00
FFFFFE00
FFFFFF00
FFFFFF00
FFF9FF00
FF807F80
FF007F80
FF003F80
FF003F80
FF003F80
FF003F80
FF003F80
FF003F80
FF003F80
FF003F80
FF003F80
FF003F80
FF003F80
FF007F80
FF007F80
FF80FF80
FFFFFF00
FFFFFF00
FFFFFE00
FFFFFE00
FFFFFC00
FF0FF000
FF000000
FF000000
FF000000
FF000000
FF000000
FF000000
FF000000
FF000000
FF000000
FF000000
FF000000
FF000000
FF000000
FF000000
ENDCHAR
STARTCHAR 0071
ENCODING 113
SWIDTH 549 0
DWIDTH 29 0
BBX 25 44 2 -15
BITMAP
01FFC000
07FFFF80
1FFFFF80
1FFFFF80
3FFFFF80
7FFFFF80
7F803F80
7F803F80
7F003F80
FF003F80
FF003F80
FE003F80
FE003F80
FE003F80
FE003F80
FE003F80
FE003F80
FE003F80
FE003F80
FF003F80
FF003F80
FF003F80
7F003F80
7FC0FF80
7FFFFF80
3FFFFF80
3FFFFF80
1FFFFF80
07FF3F80
01F83F80
00003F80
00003F80
00003F80
00003F80
00003F80
00003F80
00003F80
00003F80
00003F80
00003F80
00003F80
00003F80
00003F80
00003F80
ENDCHAR
STARTCHAR 0072
ENCODING 114
SWIDTH 416 0
DWIDTH 22 0
BBX 19 30 2 -1
BITMAP
FE07E0
FE1FE0
FE7FE0
FFFFE0
FFFFE0
FFFFE0
FFFFE0
FFF800
FFC000
FF8000
FF0000
FF0000
FF0000
FF0000
FF0000
FF0000
FF0000
FF0000
FF0000
FF0000
FF0000
FF0000
FF0000
FF0000
FF0000
FF0000
FF0000
FF0000
FF0000
FF0000
ENDCHAR
STARTCHAR 0073
ENCODING 115
SWIDTH 511 0
DWIDTH 27 0
BBX 23 30 2 -1
BITMAP
0FFFC0
3FFFFC
7FFFFC
FFFFFC
FFFFFC
FFFFFC
FF0000
FE0000
FE0000
FE0000
FE0000
FE0000
FFFFE0
FFFFF8
FFFFFC
7FFFFC
7FFFFE
1FFFFE
0001FE
0000FE
0000FE
0000FE
0000FE
0001FE
7FFFFE
7FFFFE
7FFFFC
7FFFFC
7FFFF8
03FFE0
ENDCHAR
STARTCHAR 0074
ENCODING 116
SWIDTH 378 0
DWIDTH 20 0
BBX 18 38 1 -1
BITMAP
07F000
07F000
07F000
07F000
07F000
07F000
07F000
0FF000
1FFFC0
FFFFC0
FFFFC0
FFFFC0
FFFFC0
FFFFC0
0FF000
0FF000
0FF000
0FF000
0FF000
0FF000
0FF000
0FF000
0FF000
0FF000
0FF000
0FF000
0FF000
0FF000
0FF000
0FF000
0FF000
07F800
07FE00
07FFC0
07FFC0
03FFC0
01FFC0
00FFC0
ENDCHAR
STARTCHAR 0075
ENCODING 117
SWIDTH 549 0
DWIDTH 29 0
BBX 25 30 2 -1
BITMAP
FE007F80
FE007F80
FE007F80
FE007F80
FE007F80
FE007F80
FE007F80
FE007F80
FE007F80
FE007F80
FE007F80
FE007F80
FE007F80
FE007F80
FE007F80
FE007F80
FE007F80
FE007F80
FE007F80
FE007F80
FE007F80
FF007F80
FF00FF80
FF83FF80
7FFFFF80
7FFFFF80
7FFFFF80
3FFF3F80
1FFC3F80
07F03F80
ENDCHAR
STARTCHAR 0076
ENCODING 118
SWIDTH 568 0
DWIDTH 30 0
BBX 28 30 1 -1
BITMAP
FF000FF0
FF000FF0
7F001FE0
7F801FE0
7F801FC0
3F803FC0
3FC03FC0
3FC03F80
1FC03F80
1FE07F80
1FE07F00
0FE07F00
0FE0FF00
0FF0FE00
0FF0FE00
07F1FE00
07F9FC00
07F9FC00
03F9FC00
03FBF800
03FFF800
01FFF800
01FFF000
01FFF000
00FFF000
00FFE000
00FFE000
007FE000
007FC000
007FC000
ENDCHAR
STARTCHAR 0077
ENCODING 119
SWIDTH 833 0
DWIDTH 44 0
BBX 42 30 1 -1
BITMAP
FF003FC03FC0
FF003F803F80
7F003F807F80
7F807F807F80
7F807F807F00
7F807F00FF00
3F807F00FF00
3FC0FF00FF00
3FC0FF00FE00
1FC0FF01FE00
1FE0FF81FE00
1FE0FF81FC00
0FE1FF81FC00
0FE1FFC3FC00
0FF1FFC3F800
0FF1FFC3F800
07F3FFE3F800
07F3FFE7F800
07FBFFF7F000
03FBFFF7F000
03FFF7FFF000
03FFF7FFE000
03FFE3FFE000
01FFE3FFE000
01FFE3FFC000
01FFC1FFC000
00FFC1FFC000
00FFC0FFC000
00FFC0FF8000
007F80FF8000
ENDCHAR
STARTCHAR 0078
ENCODING 120
SWIDTH 568 0
DWIDTH 30 0
BBX 28 30 1 -1
BITMAP
FF801FF0
7FC03FE0
3FC03FE0
3FE07FC0
1FE07F80
1FF0FF80
0FF9FF00
07F9FE00
07FFFE00
03FFFC00
01FFF800
01FFF800
00FFF000
007FE000
007FE000
007FE000
007FE000
00FFF000
01FFF800
01FFF800
03FFFC00
07FFFC00
07F9FE00
0FF9FF00
0FF0FF00
1FF07F80
3FE07FC0
3FC03FC0
7FC03FE0
FF801FF0
ENDCHAR
STARTCHAR 0079
ENCODING 121
SWIDTH 587 0
DWIDTH 31 0
BBX 28 42 1 -13
BITMAP
FF0007F0
FF000FF0
FF000FF0
7F000FF0
7F800FE0
7F801FE0
3F801FE0
3F801FE0
3FC01FC0
3FC03FC0
1FC03FC0
1FC03FC0
1FE03F80
1FE07F80
0FE07F80
0FE07F00
0FF07F00
0FF0FF00
07F0FF00
07F0FE00
07F8FE00
07FDFE00
03FFFE00
03FFFC00
01FFFC00
00FFFC00
007FFC00
001FF800
0003F800
0007F800
0007F800
0007F000
000FF000
000FF000
000FE000
000FE000
001FE000
001FC000
001FC000
003F8000
003F0000
003F0000
ENDCHAR
STARTCHAR 007A
ENCODING 122
SWIDTH 473 0
DWIDTH 25 0
BBX 23 29 1 0
BITMAP
FFFFFE
FFFFFE
FFFFFE
FFFFFE
FFFFFE
FFFFFE
0007FE
0007FC
000FF8
001FF0
003FF0
003FE0
007FC0
00FFC0
01FF80
01FF00
03FE00
07FE00
0FFC00
0FF800
1FF000
3FF000
7FE000
7FFFFE
7FFFFE
7FFFFE
7FFFFE
7FFFFE
7FFFFE
ENDCHAR
STARTCHAR 007B
ENCODING 123
SWIDTH 322 0
DWIDTH 17 0
BBX 15 55 1 -11
BITMAP
003E
00FE
03FE
03FE
07FE
0FFE
0FF8
0FF0
0FE0
0FE0
0FE0
0FE0
0FE0
0FE0
0FE0
0FE0
0FE0
0FE0
0FE0
0FE0
0FE0
0FE0
1FE0
7FE0
FFC0
FF80
FC00
FF80
FFC0
3FE0
1FE0
0FE0
0FE0
0FE0
0FE0
0FE0
0FE0
0FE0
0FE0
0FE0
0FE0
0FE0
0FE0
0FE0
0FE0
0FE0
0FE0
0FF0
0FF8
0FFE
07FE
07FE
03FE
00FE
003E
ENDCHAR
STARTCHAR 007C
ENCODING 124
SWIDTH 246 0
DWIDTH 13 0
BBX 7 45 3 -4
BITMAP
FE
FE
FE
FE
FE
FE
FE
FE
FE
FE
FE
FE
FE
FE
FE
FE
FE
FE
FE
FE
FE
FE
FE
FE
FE
FE
FE
FE
FE
FE
FE
FE
FE
FE
FE
FE
FE
FE
FE
FE
FE
FE
FE
FE
FE
ENDCHAR
STARTCHAR 007D
ENCODING 125
SWIDTH 322 0
DWIDTH 17 0
BBX 15 55 1 -11
BITMAP
F800
FE00
FF00
FF80
FFC0
FFE0
3FE0
1FE0
1FE0
0FE0
0FE0
0FE0
0FE0
0FE0
0FE0
0FE0
0FE0
0FE0
0FE0
0FE0
0FE0
0FE0
0FF0
0FFC
07FE
03FE
007E
03FE
07FE
0FF8
0FF0
0FE0
0FE0
0FE0
0FE0
0FE0
0FE0
0FE0
0FE0
0FE0
0FE0
0FE0
0FE0
0FE0
0FE0
0FE0
0FE0
1FE0
3FE0
FFE0
FFC0
FFC0
FF80
FE00
F800
ENDCHAR
STARTCHAR 007E
ENCODING 126
SWIDTH 416 0
DWIDTH 22 0
BBX 18 7 2 28
BITMAP
0F0080
1FC180
7FFFC0
FFFFC0
FFFF80
70FF00
403C00
ENDCHAR
STARTCHAR 00A1
ENCODING 161
SWIDTH 284 0
DWIDTH 15 0
BBX 8 38 3 -14
BITMAP
7F
7F
7F
7F
7F
7F
7E
00
00
00
7E
7E
7E
7E
7E
7E
7E
7E
7E
7E
7F
7F
7F
7F
7F
7F
7F
7F
7F
7F
7F
7F
7F
7F
7F
7F
FF
FF
ENDCHAR
STARTCHAR 00A2
ENCODING 162
SWIDTH 492 0
DWIDTH 26 0
BBX 22 39 2 -6
BITMAP
007C00
007C00
007C00
007C00
007C00
01FC00
0FFFF0
1FFFFC
3FFFFC
7FFFFC
7FFFFC
7FC03C
FF0000
FF0000
FE0000
FE0000
FE0000
FE0000
FE0000
FE0000
FE0000
FE0000
FE0000
FE0000
FE0000
FF0000
FF0000
FF8000
7FFFFC
7FFFFC
3FFFFC
3FFFFC
0FFFFC
03FFC0
007C00
007C00
007C00
007C00
007C00
ENDCHAR
STARTCHAR 00A3
ENCODING 163
SWIDTH 587 0
DWIDTH 31 0
BBX 27 41 2 -1
BITMAP
001FFE00
00FFFFE0
01FFFFE0
03FFFFE0
07FFFFE0
07FFFFE0
0FFFFFE0
0FF00000
0FF00000
0FE00000
0FE00000
0FE00000
1FE00000
1FE00000
1FE00000
1FE00000
1FE00000
1FE00000
3FFF8000
FFFFFE00
FFFFFE00
FFFFFE00
FFFFFE00
1FE00000
1FE00000
1FE00000
1FE00000
1FE00000
1FE00000
1FE00000
1FE00000
1FE00000
1FE00000
1FE00000
1FFFFFE0
FFFFFFE0
FFFFFFE0
FFFFFFE0
FFFFFFE0
FFFFFFE0
FFFFFFE0
ENDCHAR
STARTCHAR 00A4
ENCODING 164
SWIDTH 454 0
DWIDTH 24 0
BBX 20 20 2 6
BITMAP
200080
71F1C0
FFFFF0
7FFFE0
3FFFC0
3F1F80
3E07C0
3C07C0
7C03C0
7C03C0
7C03C0
3C07C0
3E07C0
3F0F80
3FFF80
7FFFC0
FFFFE0
79FBE0
3001C0
000080
ENDCHAR
STARTCHAR 00A5
ENCODING 165
SWIDTH 625 0
DWIDTH 33 0
BBX 31 41 1 -1
BITMAP
FF0001FE
FF0001FE
7F8003FC
7F8003FC
3FC003F8
3FC007F8
1FE007F0
1FE00FF0
0FE00FE0
0FF01FE0
07F01FC0
07F83FC0
07F83F80
03F83F80
03FC7F80
01FC7F00
01FEFF00
00FEFE00
00FFFE00
007FFC00
007FFC00
003FF800
0FFFFFE0
0FFFFFE0
0FFFFFE0
0FFFFFE0
000FE000
000FE000
000FE000
0FFFFFE0
0FFFFFE0
0FFFFFE0
0FFFFFE0
000FE000
000FE000
000FE000
000FE000
000FE000
000FE000
000FE000
000FE000
ENDCHAR
STARTCHAR 00A6
ENCODING 166
SWIDTH 246 0
DWIDTH 13 0
BBX 7 45 3 -4
BITMAP
FE
FE
FE
FE
FE
FE
FE
FE
FE
FE
FE
FE
FE
FE
FE
FE
FE
FE
00
00
00
00
00
00
00
00
00
FE
FE
FE
FE
FE
FE
FE
FE
FE
FE
FE
FE
FE
FE
FE
FE
FE
FE
ENDCHAR
STARTCHAR 00A7
ENCODING 167
SWIDTH 549 0
DWIDTH 29 0
BBX 24 42 2 0
BITMAP
0FFFC0
1FFFFC
3FFFFC
7FFFFC
7FFFFC
FFFFFC
FF8000
FF0000
FF0000
FF0000
FF0000
FF0000
FFFFF0
7FFFFC
7FFFFE
1FFFFF
3FFFFF
7FFFFF
7F007F
FF007F
FF007F
FF007F
FF007F
FF007F
FFFFFE
FFFFFC
7FFFFE
7FFFFF
3FFFFF
0FFFFF
00007F
00007F
00007F
00007F
00007F
0000FF
3FFFFF
3FFFFF
3FFFFF
3FFFFE
3FFFFC
0FFFF8
ENDCHAR
STARTCHAR 00A8
ENCODING 168
SWIDTH 454 0
DWIDTH 24 0
BBX 20 6 2 28
BITMAP
3801C0
FC03E0
FC07F0
FC07F0
FC03E0
7801E0
ENDCHAR
STARTCHAR 00A9
ENCODING 169
SWIDTH 795 0
DWIDTH 42 0
BBX 38 41 2 -1
BITMAP
003FFFF800
01FFFFFF00
03FFFFFF80
07FFFFFFC0
0FFFFFFFE0
1FC00007E0
1F800003F0
3F000001F0
3E004000F8
7E07FFC0F8
7C0FFFE0F8
7C0FFFE078
7C1FFFE07C
7C1F80207C
F83F00007C
F83E00007C
F83E00007C
F83E00007C
F83E00007C
F83E00007C
F83E00007C
F83E00007C
F83E00007C
F83E00007C
F83E00007C
F83E00007C
783E00007C
7C1F00007C
7C1FFFE078
7C1FFFE0F8
7C0FFFE0F8
3E07FFE0F8
3E01FF01F0
1F000001F0
1F800003F0
0FC00007E0
0FFFFFFFC0
07FFFFFFC0
03FFFFFF80
00FFFFFE00
003FFFF800
ENDCHAR
STARTCHAR 00AA
ENCODING 170
SWIDTH 360 0
DWIDTH 19 0
BBX 17 25 1 14
BITMAP
0FF800
7FFE00
7FFF00
7FFF80
7FFF80
001F80
001F80
001F80
3FFF80
7FFF80
7FFF80
FC1F80
FC1F80
FC1F80
FC3F80
FFFF80
7FFF80
7FEF80
1F8F80
000000
000000
FFFF80
FFFF80
FFFF80
FFFF80
ENDCHAR
STARTCHAR 00AB
ENCODING 171
SWIDTH 587 0
DWIDTH 31 0
BBX 26 21 2 8
BITMAP
00300200
00780F00
00FC1F80
01FE3FC0
03FC7FC0
07F8FF80
0FF1FF00
1FE3FE00
3FC7FC00
7F8FF000
FF0FF000
7F87F800
3FC3FC00
1FE1FE00
0FF0FF00
07F87F80
03FC3FC0
01FE1FC0
00FC0F80
00780700
00300200
ENDCHAR
STARTCHAR 00AC
ENCODING 172
SWIDTH 492 0
DWIDTH 26 0
BBX 22 11 2 8
BITMAP
FFF000
FFFFFC
FFFFFC
FFFFFC
FFFFFC
FFFFFC
0000FC
0000FC
0000FC
0000FC
0000FC
ENDCHAR
STARTCHAR 00AD
ENCODING 173
SWIDTH 360 0
DWIDTH 19 0
BBX 17 6 1 12
BITMAP
FFFF80
FFFF80
FFFF80
FFFF80
FFFF80
FFFF80
ENDCHAR
STARTCHAR 00AE
ENCODING 174
SWIDTH 795 0
DWIDTH 42 0
BBX 38 41 2 -1
BITMAP
003FFFF800
01FFFFFF00
03FFFFFF80
07FFFFFFC0
0FFFFFFFE0
1FC00007E0
1F800003F0
3F000001F0
3E1FF800F8
7E1FFF80F8
7C1FFFC0F8
7C1FFFE078
7C1FFFE07C
781F03F07C
F81F01F07C
F81F01F07C
F81F01F07C
F81F01F07C
F81F03F07C
F81FFFE07C
F81FFFE07C
F81FFFC07C
F81FFF807C
F81F1F007C
F81F1F007C
F81F0F807C
7C1F0F807C
7C1F07C07C
7C1F07C078
7C1F03E0F8
7E1F03E0F8
3E1F03F0F8
3E1F01F1F0
1F000001F0
1F800003E0
0FC00007E0
0FFFFFFFC0
07FFFFFFC0
03FFFFFF80
00FFFFFE00
003FFFF800
ENDCHAR
STARTCHAR 00AF
ENCODING 175
SWIDTH 360 0
DWIDTH 19 0
BBX 15 4 2 28
BITMAP
FFFE
FFFE
FFFE
FFFE
ENDCHAR
STARTCHAR 00B0
ENCODING 176
SWIDTH 284 0
DWIDTH 15 0
BBX 11 11 2 29
BITMAP
1F00
3F80
7FC0
F1C0
E1E0
E0E0
E1E0
F1C0
7FC0
3F80
1F00
ENDCHAR
STARTCHAR 00B1
ENCODING 177
SWIDTH 492 0
DWIDTH 26 0
BBX 22 30 2 4
BITMAP
00FC00
00FC00
00FC00
00FC00
00FC00
00FC00
00FC00
00FC00
FFFFFC
FFFFFC
FFFFFC
FFFFFC
FFFFFC
FFFFFC
00FC00
00FC00
00FC00
00FC00
00FC00
00FC00
00FC00
00FC00
000000
000000
FFFFFC
FFFFFC
FFFFFC
FFFFFC
FFFFFC
FFFFFC
ENDCHAR
STARTCHAR 00B2
ENCODING 178
SWIDTH 397 0
DWIDTH 21 0
BBX 18 26 1 20
BITMAP
1FFC00
FFFF00
FFFF80
FFFFC0
FFFFC0
001FC0
000FC0
0007C0
0007C0
000FC0
000FC0
001FC0
003F80
003F00
007F00
01FE00
03FC00
07F800
0FF000
3FE000
7FC000
FFFFC0
FFFFC0
FFFFC0
FFFFC0
FFFFC0
ENDCHAR
STARTCHAR 00B3
ENCODING 179
SWIDTH 416 0
DWIDTH 22 0
BBX 18 25 1 20
BITMAP
7FFE00
FFFF00
FFFF80
FFFFC0
FFFFC0
000FC0
000FC0
0007C0
000FC0
001FC0
1FFFC0
1FFF80
1FFE00
1FFF80
1FFFC0
000FC0
000FC0
000FC0
000FC0
000FC0
FFFFC0
FFFFC0
FFFF80
FFFF80
7FFE00
ENDCHAR
STARTCHAR 00B4
ENCODING 180
SWIDTH 246 0
DWIDTH 13 0
BBX 11 7 1 28
BITMAP
0FE0
1F80
1F80
3F00
7E00
7C00
F800
ENDCHAR
STARTCHAR 00B5
ENCODING 181
SWIDTH 587 0
DWIDTH 31 0
BBX 24 44 4 -15
BITMAP
FE007F
FE007F
FE007F
FE007F
FE007F
FE007F
FE007F
FE007F
FE007F
FE007F
FE007F
FE007F
FE007F
FE007F
FE007F
FE007F
FE007F
FE007F
FE007F
FE007F
FE007F
FE007F
FE00FF
FF03FF
FFFFFF
FFFFFF
FFFFFF
FFFF7F
FFFC3F
FFF03F
FE0000
FE0000
FE0000
FE0000
FE0000
FE0000
FE0000
FE0000
FE0000
FE0000
FE0000
FE0000
FE0000
FE0000
ENDCHAR
STARTCHAR 00B6
ENCODING 182
SWIDTH 568 0
DWIDTH 30 0
BBX 28 54 2 -14
BITMAP
0FFFFFF0
3FFFFFF0
7FFFFFF0
7FFFFFF0
FFFFFFF0
FE1F0FF0
F81F0F80
F81F0F80
F81F0F80
F81F0F80
F81F0F80
F81F0F80
F81F0F80
F81F0F80
F81F0F80
FE1F0F80
FFFF0F80
7FFF0F80
7FFF0F80
3FFF0F80
07DF0F80
001F0F80
001F0F80
001F0F80
001F0F80
001F0F80
001F0F80
001F0F80
001F0F80
001F0F80
001F0F80
001F0F80
001F0F80
001F0F80
001F0F80
001F0F80
001F0F80
001F0F80
001F0F80
001F0F80
001F0F80
001F0000
001F0000
001F0000
001F0000
001F0000
001F0000
001F0000
001F0000
001F0000
001F0000
001F0000
001F0000
001F0000
ENDCHAR
STARTCHAR 00B7
ENCODING 183
SWIDTH 265 0
DWIDTH 14 0
BBX 8 7 3 17
BITMAP
7E
FF
FF
FF
FF
FF
FE
ENDCHAR
STARTCHAR 00B8
ENCODING 184
SWIDTH 246 0
DWIDTH 13 0
BBX 9 8 2 -10
BITMAP
0F80
0F80
0F80
3F80
FF00
FF00
FE00
F000
ENDCHAR
STARTCHAR 00B9
ENCODING 185
SWIDTH 265 0
DWIDTH 14 0
BBX 11 25 1 20
BITMAP
1FE0
7FE0
FFE0
FFE0
FFE0
C7E0
07E0
07E0
07E0
07E0
07E0
07E0
07E0
07E0
07E0
07E0
07E0
07E0
07E0
07E0
07E0
07E0
07E0
07E0
07E0
ENDCHAR
STARTCHAR 00BA
ENCODING 186
SWIDTH 397 0
DWIDTH 21 0
BBX 19 26 1 14
BITMAP
07FC00
1FFF00
3FFF80
7FFFC0
7FFFC0
7E0FC0
FC07C0
FC07E0
FC07E0
FC07E0
FC07E0
FC07E0
FC07E0
FC07C0
7E0FC0
7FFFC0
7FFF80
3FFF80
0FFE00
00C000
000000
000000
7FFFC0
7FFFC0
7FFFC0
7FFFC0
ENDCHAR
STARTCHAR 00BB
ENCODING 187
SWIDTH 587 0
DWIDTH 31 0
BBX 26 21 2 8
BITMAP
18018000
3C03C000
7E07E000
FF0FF000
7F87F800
3FC3FC00
1FE1FE00
0FF0FF00
07F87F80
03FC3FC0
01FE3FC0
03FC7F80
07F8FF00
0FF1FE00
1FE3FC00
3FC7F800
7F8FF000
FF0FE000
7E07C000
3C038000
18010000
ENDCHAR
STARTCHAR 00BC
ENCODING 188
SWIDTH 928 0
DWIDTH 49 0
BBX 47 41 1 0
BITMAP
00000003E000
0FE00007E000
3FE00007C000
7FE0000FC000
FFE0000F8000
FFE0001F8000
F7E0001F0000
07E0003F0000
07E0003E0000
07E0007C0000
07E0007C0000
07E000F80000
07E001F80000
07E001F00000
07E003F00000
07E003E03F00
07E007E03F00
07E007C07E00
07E00FC07E00
07E00F80FC00
07E01F80FC00
07E01F01F800
07E03F01F8F8
07E03E03F8F8
07E07C03F1F8
07E07C07F1F8
07E0F807E1F8
0001F80FE1F8
0001F00FC1F8
0003F01FC1F8
0003E01FFFFE
0007E03FFFFE
0007C03FFFFE
000FC03FFFFE
000F803FFFFE
001F800001F8
001F000001F8
003F000001F8
003E000001F8
007C000001F8
007C000001F8
ENDCHAR
STARTCHAR 00BD
ENCODING 189
SWIDTH 985 0
DWIDTH 52 0
BBX 50 42 1 -1
BITMAP
00000003E00000
0FE00007C00000
3FE0000FC00000
7FE0000F800000
FFE0001F800000
FFE0001F000000
FFE0003F000000
87E0003E000000
07E0007E000000
07E0007C000000
07E000FC000000
07E000F8000000
07E001F8000000
07E001F0000000
07E003F0000000
07E003E03FF800
07E007E1FFFE00
07E007C1FFFF00
07E00F81FFFF80
07E00F81FFFF80
07E01F00003F80
07E01F00000FC0
07E03E00000FC0
07E03E00000FC0
07E07C00000F80
07E0FC00001F80
07E0F800001F80
07E1F800003F00
0001F000007F00
0003F00000FE00
0003E00001FE00
0007E00003FC00
0007C00007F800
000FC0000FF000
000F80001FE000
001F80007FC000
001F0000FF8000
003F0001FFFFC0
003E0001FFFFC0
007E0001FFFFC0
007C0001FFFFC0
00F80001FFFFC0
ENDCHAR
STARTCHAR 00BE
ENCODING 190
SWIDTH 1042 0
DWIDTH 55 0
BBX 52 40 1 -1
BITMAP
000000001F8000
3FFC00001F0000
FFFF00003F0000
FFFF80003E0000
FFFFC0007E0000
FFFFC0007C0000
001FC000F80000
0007C000F80000
0007C001F00000
0007C003F00000
000FC003E00000
1FFFC007E00000
1FFF8007C00000
1FFF000FC00000
1FFF000F800000
1FFF801F81F800
001FC01F01F800
000FC03E03F000
0007C03E03F000
0007C07C07E000
0007C0FC07E000
001FC0F80FC000
FFFFC1F81FC7C0
FFFFC1F01F8FC0
FFFF83F03F8FC0
FFFF03E03F0FC0
3FFE07C07F0FC0
000007C07E0FC0
00000F80FE0FC0
00001F80FC0FC0
00001F01FFFFF0
00003F01FFFFF0
00003E03FFFFF0
00007E01FFFFF0
00007C01FFFFE0
0000F800000FC0
0000F800000FC0
0001F000000FC0
0003F000000FC0
0003E000000FC0
ENDCHAR
STARTCHAR 00BF
ENCODING 191
SWIDTH 549 0
DWIDTH 29 0
BBX 26 39 2 -14
BITMAP
001FC000
001FC000
001FC000
001FC000
001FC000
001FC000
001FC000
00000000
00000000
00000000
00000000
000FC000
000FC000
001FC000
001FC000
03FFC000
1FFFC000
3FFFC000
7FFFC000
7FFFC000
FFFFC000
FF800000
FF000000
FE000000
FE000000
FE000000
FE000000
FE000000
FE000000
FF000000
FF000000
FF800000
FFFFFFC0
7FFFFFC0
7FFFFFC0
3FFFFFC0
1FFFFFC0
0FFFFFC0
01FFF800
ENDCHAR
STARTCHAR 00C0
ENCODING 192
SWIDTH 701 0
DWIDTH 37 0
BBX 34 52 2 -1
BITMAP
00FE000000
007F000000
003F000000
001F800000
000F800000
0007C00000
0003E00000
0001E00000
0000000000
0000000000
0000000000
0007F80000
000FFC0000
000FFC0000
000FFC0000
001FFE0000
001FFE0000
001FFE0000
003FFF0000
003FFF0000
003FFF0000
007FFF0000
007FFF8000
007F3F8000
007F3F8000
00FF3FC000
00FE1FC000
00FE1FC000
01FE1FE000
01FE1FE000
01FC0FE000
03FC0FF000
03FC0FF000
03F807F000
07F807F000
07F807F800
07FFFFF800
0FFFFFF800
0FFFFFFC00
0FFFFFFC00
1FFFFFFC00
1FFFFFFE00
1FFFFFFE00
3FC001FE00
3FC000FE00
3FC000FF00
3F8000FF00
7F80007F00
7F80007F80
7F00007F80
FF00007F80
FF00003FC0
ENDCHAR
STARTCHAR 00C1
ENCODING 193
SWIDTH 701 0
DWIDTH 37 0
BBX 34 52 2 -1
BITMAP
00001FC000
00001F8000
00003F0000
00007E0000
00007C0000
0000F80000
0001F00000
0001E00000
0000000000
0000000000
0000000000
0007F80000
000FFC0000
000FFC0000
000FFC0000
001FFE0000
001FFE0000
001FFE0000
003FFF0000
003FFF0000
003FFF0000
007FFF0000
007FFF8000
007F3F8000
007F3F8000
00FF3FC000
00FE1FC000
00FE1FC000
01FE1FE000
01FE1FE000
01FC0FE000
03FC0FF000
03FC0FF000
03F807F000
07F807F000
07F807F800
07FFFFF800
0FFFFFF800
0FFFFFFC00
0FFFFFFC00
1FFFFFFC00
1FFFFFFE00
1FFFFFFE00
3FC001FE00
3FC000FE00
3FC000FF00
3F8000FF00
7F80007F00
7F80007F80
7F00007F80
FF00007F80
FF00003FC0
ENDCHAR
STARTCHAR 00C2
ENCODING 194
SWIDTH 701 0
DWIDTH 37 0
BBX 34 52 2 -1
BITMAP
0001F00000
0003F80000
0007FC0000
000FFC0000
001FFE0000
001F3F0000
003E1F0000
007C0F8000
0000000000
0000000000
0000000000
0007F80000
000FFC0000
000FFC0000
000FFC0000
001FFE0000
001FFE0000
001FFE0000
003FFF0000
003FFF0000
003FFF0000
007FFF0000
007FFF8000
007F3F8000
007F3F8000
00FF3FC000
00FE1FC000
00FE1FC000
01FE1FE000
01FE1FE000
01FC0FE000
03FC0FF000
03FC0FF000
03F807F000
07F807F000
07F807F800
07FFFFF800
0FFFFFF800
0FFFFFFC00
0FFFFFFC00
1FFFFFFC00
1FFFFFFE00
1FFFFFFE00
3FC001FE00
3FC000FE00
3FC000FF00
3F8000FF00
7F80007F00
7F80007F80
7F00007F80
FF00007F80
FF00003FC0
ENDCHAR
STARTCHAR 00C3
ENCODING 195
SWIDTH 701 0
DWIDTH 37 0
BBX 34 51 2 -1
BITMAP
000F008000
003FC38000
007FFFC000
00FFFFC000
00FFFF8000
0060FE0000
00001C0000
0000000000
0000000000
0000000000
0007F80000
000FFC0000
000FFC0000
000FFC0000
001FFE0000
001FFE0000
001FFE0000
003FFF0000
003FFF0000
003FFF0000
007FFF0000
007FFF8000
007F3F8000
007F3F8000
00FF3FC000
00FE1FC000
00FE1FC000
01FE1FE000
01FE1FE000
01FC0FE000
03FC0FF000
03FC0FF000
03F807F000
07F807F000
07F807F800
07FFFFF800
0FFFFFF800
0FFFFFFC00
0FFFFFFC00
1FFFFFFC00
1FFFFFFE00
1FFFFFFE00
3FC001FE00
3FC000FE00
3FC000FF00
3F8000FF00
7F80007F00
7F80007F80
7F00007F80
FF00007F80
FF00003FC0
ENDCHAR
STARTCHAR 00C4
ENCODING 196
SWIDTH 701 0
DWIDTH 37 0
BBX 34 51 2 -1
BITMAP
0070038000
00F807C000
01F807E000
01F807E000
01F807E000
00F003C000
0000000000
0000000000
0000000000
0000000000
0007F80000
000FFC0000
000FFC0000
000FFC0000
001FFE0000
001FFE0000
001FFE0000
003FFF0000
003FFF0000
003FFF0000
007FFF0000
007FFF8000
007F3F8000
007F3F8000
00FF3FC000
00FE1FC000
00FE1FC000
01FE1FE000
01FE1FE000
01FC0FE000
03FC0FF000
03FC0FF000
03F807F000
07F807F000
07F807F800
07FFFFF800
0FFFFFF800
0FFFFFFC00
0FFFFFFC00
1FFFFFFC00
1FFFFFFE00
1FFFFFFE00
3FC001FE00
3FC000FE00
3FC000FF00
3F8000FF00
7F80007F00
7F80007F80
7F00007F80
FF00007F80
FF00003FC0
ENDCHAR
STARTCHAR 00C5
ENCODING 197
SWIDTH 701 0
DWIDTH 37 0
BBX 34 49 2 -1
BITMAP
0001E00000
0007F80000
000FFC0000
000F3C0000
000E1C0000
000E1C0000
000E1C0000
000FFC0000
0007F80000
0003F00000
0000C00000
0007FC0000
000FFC0000
000FFC0000
001FFE0000
001FFE0000
001FFE0000
003FFF0000
003FFF0000
003FFF0000
007FFF0000
007FFF8000
007F3F8000
00FF3F8000
00FF3FC000
00FE1FC000
01FE1FC000
01FE1FE000
01FC0FE000
03FC0FE000
03FC0FF000
03F807F000
07F807F000
07F807F800
07FFFFF800
0FFFFFF800
0FFFFFFC00
0FFFFFFC00
1FFFFFFC00
1FFFFFFE00
1FFFFFFE00
3FC001FE00
3FC000FF00
3FC000FF00
7F8000FF00
7F80007F80
7F80007F80
FF00007F80
FF00003FC0
ENDCHAR
STARTCHAR 00C6
ENCODING 198
SWIDTH 947 0
DWIDTH 50 0
BBX 47 41 2 -1
BITMAP
000001FFFFC0
00000FFFFFFE
00001FFFFFFE
00003FFFFFFE
00007FFFFFFE
0000FFFFFFFE
0001FFFFFFFE
0001FFFC0000
0003FFF80000
0003FFF80000
0007FFF80000
0007FBF80000
000FFBF80000
000FF3F80000
001FF3F80000
001FE3F80000
003FE3F80000
003FC3FFF800
007FC3FFFFF0
007F83FFFFF0
00FF83FFFFF0
00FF83FFFFF0
00FF03FFFFF0
01FFFFFFFFF0
01FFFFF80000
03FFFFF80000
03FFFFF80000
07FFFFF80000
07FFFFF80000
0FFFFFF80000
0FF003F80000
1FF003F80000
1FE003F80000
3FE003FC0000
3FC003FFFFFE
7FC003FFFFFE
7F8003FFFFFE
FF8003FFFFFE
FF0001FFFFFE
FF0000FFFFFE
0000003FFFE0
ENDCHAR
STARTCHAR 00C7
ENCODING 199
SWIDTH 568 0
DWIDTH 30 0
BBX 27 48 2 -10
BITMAP
007FF800
03FFFFC0
07FFFFE0
0FFFFFE0
1FFFFFE0
1FFFFFE0
3FFFFFE0
3FE00020
7FC00000
7F800000
7F800000
7F000000
7F000000
FF000000
FF000000
FF000000
FF000000
FF000000
FF000000
FF000000
FF000000
FF000000
FF000000
FF000000
FF000000
7F000000
7F000000
7F000000
7F800000
7F800000
3FC00000
3FF00000
3FFFFFE0
1FFFFFE0
0FFFFFE0
0FFFFFE0
03FFFFE0
01FFFFE0
003FFC00
00000000
00000000
00F80000
00F80000
01F80000
07F00000
0FF00000
0FF00000
0FC00000
ENDCHAR
STARTCHAR 00C8
ENCODING 200
SWIDTH 568 0
DWIDTH 30 0
BBX 25 50 3 -1
BITMAP
03F80000
01F80000
00FC0000
007E0000
003E0000
001F0000
000F8000
00000000
00000000
07FFF000
1FFFFF80
3FFFFF80
7FFFFF80
7FFFFF80
FFFFFF80
FFFFFF80
FF000000
FF000000
FE000000
FE000000
FE000000
FE000000
FE000000
FE000000
FE000000
FE000000
FFFF0000
FFFFFE00
FFFFFE00
FFFFFE00
FFFFFE00
FFFFFE00
FFFFFE00
FE000000
FE000000
FE000000
FE000000
FE000000
FE000000
FE000000
FE000000
FF000000
FF000000
FFFFFF80
FFFFFF80
7FFFFF80
7FFFFF80
3FFFFF80
1FFFFF80
07FFF800
ENDCHAR
STARTCHAR 00C9
ENCODING 201
SWIDTH 568 0
DWIDTH 30 0
BBX 25 50 3 -1
BITMAP
0000FC00
0001F800
0003F000
0003E000
0007E000
0007C000
000F8000
00000000
00000000
07FFF000
1FFFFF80
3FFFFF80
7FFFFF80
7FFFFF80
FFFFFF80
FFFFFF80
FF000000
FF000000
FE000000
FE000000
FE000000
FE000000
FE000000
FE000000
FE000000
FE000000
FFFF0000
FFFFFE00
FFFFFE00
FFFFFE00
FFFFFE00
FFFFFE00
FFFFFE00
FE000000
FE000000
FE000000
FE000000
FE000000
FE000000
FE000000
FE000000
FF000000
FF000000
FFFFFF80
FFFFFF80
7FFFFF80
7FFFFF80
3FFFFF80
1FFFFF80
07FFF800
ENDCHAR
STARTCHAR 00CA
ENCODING 202
SWIDTH 568 0
DWIDTH 30 0
BBX 25 50 3 -1
BITMAP
001F8000
003FC000
007FE000
00FFE000
00F9F000
01F0F800
03E07C00
00000000
00000000
07FFF000
1FFFFF80
3FFFFF80
7FFFFF80
7FFFFF80
FFFFFF80
FFFFFF80
FF000000
FF000000
FE000000
FE000000
FE000000
FE000000
FE000000
FE000000
FE000000
FE000000
FFFF0000
FFFFFE00
FFFFFE00
FFFFFE00
FFFFFE00
FFFFFE00
FFFFFE00
FE000000
FE000000
FE000000
FE000000
FE000000
FE000000
FE000000
FE000000
FF000000
FF000000
FFFFFF80
FFFFFF80
7FFFFF80
7FFFFF80
3FFFFF80
1FFFFF80
07FFF800
ENDCHAR
STARTCHAR 00CB
ENCODING 203
SWIDTH 568 0
DWIDTH 30 0
BBX 25 50 3 -1
BITMAP
07803C00
0FC07E00
0FC07E00
0FC07E00
0F803E00
07003C00
00000000
00000000
00000000
07FFF000
1FFFFF80
3FFFFF80
7FFFFF80
7FFFFF80
FFFFFF80
FFFFFF80
FF000000
FF000000
FE000000
FE000000
FE000000
FE000000
FE000000
FE000000
FE000000
FE000000
FFFF0000
FFFFFE00
FFFFFE00
FFFFFE00
FFFFFE00
FFFFFE00
FFFFFE00
FE000000
FE000000
FE000000
FE000000
FE000000
FE000000
FE000000
FE000000
FF000000
FF000000
FFFFFF80
FFFFFF80
7FFFFF80
7FFFFF80
3FFFFF80
1FFFFF80
07FFF800
ENDCHAR
STARTCHAR 00CC
ENCODING 204
SWIDTH 246 0
DWIDTH 13 0
BBX 13 52 -2 -1
BITMAP
FE00
7E00
3F00
1F80
0F80
07C0
03E0
03E0
0000
0000
0000
07F8
07F8
07F8
07F8
07F8
07F8
07F8
07F8
07F8
07F8
07F8
07F8
07F8
07F8
07F8
07F8
07F8
07F8
07F8
07F8
07F8
07F8
07F8
07F8
07F8
07F8
07F8
07F8
07F8
07F8
07F8
07F8
07F8
07F8
07F8
07F8
07F8
07F8
07F8
07F8
07F8
ENDCHAR
STARTCHAR 00CD
ENCODING 205
SWIDTH 246 0
DWIDTH 13 0
BBX 12 52 3 -1
BITMAP
03F0
07F0
07E0
0FC0
1F80
1F00
3E00
3C00
0000
0000
0000
FF00
FF00
FF00
FF00
FF00
FF00
FF00
FF00
FF00
FF00
FF00
FF00
FF00
FF00
FF00
FF00
FF00
FF00
FF00
FF00
FF00
FF00
FF00
FF00
FF00
FF00
FF00
FF00
FF00
FF00
FF00
FF00
FF00
FF00
FF00
FF00
FF00
FF00
FF00
FF00
FF00
ENDCHAR
STARTCHAR 00CE
ENCODING 206
SWIDTH 246 0
DWIDTH 13 0
BBX 16 52 -1 -1
BITMAP
07E0
07F0
0FF0
1FF8
3FFC
7E7E
7C3E
F81F
0000
0000
0000
0FF0
0FF0
0FF0
0FF0
0FF0
0FF0
0FF0
0FF0
0FF0
0FF0
0FF0
0FF0
0FF0
0FF0
0FF0
0FF0
0FF0
0FF0
0FF0
0FF0
0FF0
0FF0
0FF0
0FF0
0FF0
0FF0
0FF0
0FF0
0FF0
0FF0
0FF0
0FF0
0FF0
0FF0
0FF0
0FF0
0FF0
0FF0
0FF0
0FF0
0FF0
ENDCHAR
STARTCHAR 00CF
ENCODING 207
SWIDTH 246 0
DWIDTH 13 0
BBX 20 51 -3 -1
BITMAP
3801C0
FC03E0
FC03F0
FC03F0
FC03E0
7801E0
000000
000000
000000
000000
03FC00
03FC00
03FC00
03FC00
03FC00
03FC00
03FC00
03FC00
03FC00
03FC00
03FC00
03FC00
03FC00
03FC00
03FC00
03FC00
03FC00
03FC00
03FC00
03FC00
03FC00
03FC00
03FC00
03FC00
03FC00
03FC00
03FC00
03FC00
03FC00
03FC00
03FC00
03FC00
03FC00
03FC00
03FC00
03FC00
03FC00
03FC00
03FC00
03FC00
03FC00
ENDCHAR
STARTCHAR 00D0
ENCODING 208
SWIDTH 663 0
DWIDTH 35 0
BBX 33 41 0 -1
BITMAP
1FFFFE0000
1FFFFFC000
1FFFFFE000
1FFFFFF000
1FFFFFF800
1FFFFFFC00
1FFFFFFE00
1FE003FE00
1FE001FE00
1FE000FF00
1FE000FF00
1FE0007F00
1FE0007F00
1FE0007F80
1FE0007F80
1FE0007F80
1FE0007F80
1FE0007F80
1FE0007F80
FFFF007F80
FFFF003F80
FFFF003F80
1FE0007F80
1FE0007F80
1FE0007F80
1FE0007F80
1FE0007F80
1FE0007F80
1FE0007F00
1FE000FF00
1FE000FF00
1FE000FF00
1FE001FE00
1FE003FE00
1FFFFFFC00
1FFFFFFC00
1FFFFFF800
1FFFFFF000
1FFFFFE000
1FFFFFC000
1FFFFF0000
ENDCHAR
STARTCHAR 00D1
ENCODING 209
SWIDTH 682 0
DWIDTH 36 0
BBX 30 51 3 -1
BITMAP
003E0200
007F8F00
01FFFF00
03FFFF00
01FFFE00
0181FC00
01006000
00000000
00000000
00000000
FF0001FC
FF8001FC
FF8001FC
FFC001FC
FFC001FC
FFE001FC
FFE001FC
FFF001FC
FFF801FC
FFF801FC
FFFC01FC
FFFC01FC
FFFE01FC
FFFF01FC
FFFF01FC
FFFF81FC
FF7F81FC
FF7FC1FC
FF3FC1FC
FF3FE1FC
FF1FF1FC
FF0FF1FC
FF0FF9FC
FF07F9FC
FF07FDFC
FF03FDFC
FF03FFFC
FF01FFFC
FF00FFFC
FF00FFFC
FF007FFC
FF007FFC
FF003FFC
FF001FFC
FF001FFC
FF000FFC
FF000FFC
FF0007FC
FF0003FC
FF0003FC
FF0001FC
ENDCHAR
STARTCHAR 00D2
ENCODING 210
SWIDTH 663 0
DWIDTH 35 0
BBX 31 52 3 -1
BITMAP
03F80000
01F80000
00FC0000
007E0000
003E0000
001F0000
000F8000
000F8000
00000000
00000000
00000000
007FF800
03FFFF00
07FFFF80
0FFFFFE0
1FFFFFE0
3FFFFFF0
3FFFFFF0
7FE00FF8
7F8007F8
7F8003FC
7F0003FC
FF0003FC
FF0001FC
FE0001FC
FE0001FC
FE0001FC
FE0001FE
FE0001FE
FE0001FE
FE0001FE
FE0001FE
FE0001FE
FE0001FE
FE0001FE
FE0001FE
FE0001FC
FE0001FC
FE0001FC
FE0001FC
FF0003FC
FF0003FC
7F0003FC
7F8007F8
7FE01FF8
3FFFFFF8
3FFFFFF0
1FFFFFE0
1FFFFFE0
07FFFFC0
03FFFF00
007FF800
ENDCHAR
STARTCHAR 00D3
ENCODING 211
SWIDTH 663 0
DWIDTH 35 0
BBX 31 52 3 -1
BITMAP
00003F00
00007E00
0000FC00
0000F800
0001F800
0003F000
0003E000
0007C000
00000000
00000000
00000000
007FF800
03FFFF00
07FFFF80
0FFFFFE0
1FFFFFE0
3FFFFFF0
3FFFFFF0
7FE00FF8
7F8007F8
7F8003FC
7F0003FC
FF0003FC
FF0001FC
FE0001FC
FE0001FC
FE0001FC
FE0001FE
FE0001FE
FE0001FE
FE0001FE
FE0001FE
FE0001FE
FE0001FE
FE0001FE
FE0001FE
FE0001FC
FE0001FC
FE0001FC
FE0001FC
FF0003FC
FF0003FC
7F0003FC
7F8007F8
7FE01FF8
3FFFFFF8
3FFFFFF0
1FFFFFE0
1FFFFFE0
07FFFFC0
03FFFF00
007FF800
ENDCHAR
STARTCHAR 00D4
ENCODING 212
SWIDTH 663 0
DWIDTH 35 0
BBX 31 51 3 -1
BITMAP
000FE000
001FE000
003FF000
003FF800
007CFC00
00F87C00
01F03E00
00000000
00000000
00000000
007FF800
03FFFF00
07FFFF80
0FFFFFE0
1FFFFFE0
3FFFFFF0
3FFFFFF0
7FE00FF8
7F8007F8
7F8003FC
7F0003FC
FF0003FC
FF0001FC
FE0001FC
FE0001FC
FE0001FC
FE0001FE
FE0001FE
FE0001FE
FE0001FE
FE0001FE
FE0001FE
FE0001FE
FE0001FE
FE0001FE
FE0001FC
FE0001FC
FE0001FC
FE0001FC
FF0003FC
FF0003FC
7F0003FC
7F8007F8
7FE01FF8
3FFFFFF8
3FFFFFF0
1FFFFFE0
1FFFFFE0
07FFFFC0
03FFFF00
007FF800
ENDCHAR
STARTCHAR 00D5
ENCODING 213
SWIDTH 663 0
DWIDTH 35 0
BBX 31 51 3 -1
BITMAP
001C0200
007F0F00
01FFFF00
03FFFF00
03FFFE00
01C3FC00
01006000
00000000
00000000
00000000
007FF800
03FFFF00
07FFFF80
0FFFFFE0
1FFFFFE0
3FFFFFF0
3FFFFFF0
7FE00FF8
7F8007F8
7F8003FC
7F0003FC
FF0003FC
FF0001FC
FE0001FC
FE0001FC
FE0001FC
FE0001FE
FE0001FE
FE0001FE
FE0001FE
FE0001FE
FE0001FE
FE0001FE
FE0001FE
FE0001FE
FE0001FC
FE0001FC
FE0001FC
FE0001FC
FF0003FC
FF0003FC
7F0003FC
7F8007F8
7FE01FF8
3FFFFFF8
3FFFFFF0
1FFFFFE0
1FFFFFE0
07FFFFC0
03FFFF00
007FF800
ENDCHAR
STARTCHAR 00D6
ENCODING 214
SWIDTH 663 0
DWIDTH 35 0
BBX 31 50 3 -1
BITMAP
03C00F00
03E01F80
07E01F80
07E01F80
03E01F80
01C00F00
00000000
00000000
00000000
007FF800
03FFFF00
07FFFF80
0FFFFFE0
1FFFFFE0
3FFFFFF0
3FFFFFF0
7FE00FF8
7F8007F8
7F8003FC
7F0003FC
FF0003FC
FF0001FC
FE0001FC
FE0001FC
FE0001FC
FE0001FE
FE0001FE
FE0001FE
FE0001FE
FE0001FE
FE0001FE
FE0001FE
FE0001FE
FE0001FE
FE0001FC
FE0001FC
FE0001FC
FE0001FC
FF0003FC
FF0003FC
7F0003FC
7F8007F8
7FE01FF8
3FFFFFF8
3FFFFFF0
1FFFFFE0
1FFFFFE0
07FFFFC0
03FFFF00
007FF800
ENDCHAR
STARTCHAR 00D7
ENCODING 215
SWIDTH 454 0
DWIDTH 24 0
BBX 20 20 2 9
BITMAP
080000
1C0180
3E03C0
7F07E0
FF8FF0
7FDFE0
3FFFC0
1FFF80
0FFF00
07FE00
03FE00
07FF00
0FFF80
1FFFC0
3FFFE0
7F9FF0
7F0FE0
3E07C0
1C0380
080100
ENDCHAR
STARTCHAR 00D8
ENCODING 216
SWIDTH 682 0
DWIDTH 36 0
BBX 31 41 3 -1
BITMAP
003FF83C
01FFFF78
07FFFFF8
0FFFFFF0
1FFFFFF0
1FFFFFF0
3FFFFFF8
3FE00FF8
7F8007FC
7F800FFC
7F001FFC
7F001FFC
FF003DFC
FF0079FE
FF0079FE
FE00F1FE
FE00E1FE
FE01E1FE
FE03C1FE
FE03C0FE
FE0780FE
FE0F00FE
FE0F00FE
FE1E01FE
FE1C01FE
FE3C01FE
FF7801FE
FF7801FE
FFF001FC
FFE001FC
7FE003FC
7FC003FC
7FC007FC
7FE00FF8
3FFFFFF8
3FFFFFF0
1FFFFFF0
3FFFFFE0
7FFFFFC0
7BFFFF00
F07FF800
ENDCHAR
STARTCHAR 00D9
ENCODING 217
SWIDTH 663 0
DWIDTH 35 0
BBX 30 52 3 -1
BITMAP
03F80000
01F80000
00FC0000
007E0000
003E0000
001F0000
000F8000
000F8000
00000000
00000000
00000000
FF0003FC
FF0003FC
FF0003FC
FF0003FC
FF0003FC
FF0003FC
FF0003FC
FF0003FC
FF0003FC
FF0003FC
FF0003FC
FF0003FC
FF0003FC
FF0003FC
FF0003FC
FF0003FC
FF0003FC
FF0003FC
FF0003FC
FF0003FC
FF0003FC
FF0003FC
FF0003FC
FF0003FC
FF0003FC
FF0003FC
FF0003FC
FF0003FC
FF0003F8
7F0003F8
7F0007F8
7F8007F8
7FC00FF8
7FE01FF0
3FFFFFF0
3FFFFFE0
1FFFFFE0
1FFFFFC0
0FFFFF80
03FFFF00
00FFF800
ENDCHAR
STARTCHAR 00DA
ENCODING 218
SWIDTH 663 0
DWIDTH 35 0
BBX 30 52 3 -1
BITMAP
00007F00
0000FE00
0000FC00
0001F800
0001F000
0003E000
0007C000
00078000
00000000
00000000
00000000
FF0003FC
FF0003FC
FF0003FC
FF0003FC
FF0003FC
FF0003FC
FF0003FC
FF0003FC
FF0003FC
FF0003FC
FF0003FC
FF0003FC
FF0003FC
FF0003FC
FF0003FC
FF0003FC
FF0003FC
FF0003FC
FF0003FC
FF0003FC
FF0003FC
FF0003FC
FF0003FC
FF0003FC
FF0003FC
FF0003FC
FF0003FC
FF0003FC
FF0003F8
7F0003F8
7F0007F8
7F8007F8
7FC00FF8
7FE01FF0
3FFFFFF0
3FFFFFE0
1FFFFFE0
1FFFFFC0
0FFFFF80
03FFFF00
00FFF800
ENDCHAR
STARTCHAR 00DB
ENCODING 219
SWIDTH 663 0
DWIDTH 35 0
BBX 30 52 3 -1
BITMAP
000FC000
000FE000
001FE000
003FF000
007FF800
00FCFC00
00F87C00
01F03E00
00000000
00000000
00000000
FF0003FC
FF0003FC
FF0003FC
FF0003FC
FF0003FC
FF0003FC
FF0003FC
FF0003FC
FF0003FC
FF0003FC
FF0003FC
FF0003FC
FF0003FC
FF0003FC
FF0003FC
FF0003FC
FF0003FC
FF0003FC
FF0003FC
FF0003FC
FF0003FC
FF0003FC
FF0003FC
FF0003FC
FF0003FC
FF0003FC
FF0003FC
FF0003FC
FF0003F8
7F0003F8
7F0007F8
7F8007F8
7FC00FF8
7FE01FF0
3FFFFFF0
3FFFFFE0
1FFFFFE0
1FFFFFC0
0FFFFF80
03FFFF00
00FFF800
ENDCHAR
STARTCHAR 00DC
ENCODING 220
SWIDTH 663 0
DWIDTH 35 0
BBX 30 51 3 -1
BITMAP
01C00E00
03E01F00
07E01F80
07E01F80
07E01F00
03C00F00
00000000
00000000
00000000
00000000
FF0003FC
FF0003FC
FF0003FC
FF0003FC
FF0003FC
FF0003FC
FF0003FC
FF0003FC
FF0003FC
FF0003FC
FF0003FC
FF0003FC
FF0003FC
FF0003FC
FF0003FC
FF0003FC
FF0003FC
FF0003FC
FF0003FC
FF0003FC
FF0003FC
FF0003FC
FF0003FC
FF0003FC
FF0003FC
FF0003FC
FF0003FC
FF0003FC
FF0003F8
7F0003F8
7F0007F8
7F8007F8
7FC00FF8
7FE01FF0
3FFFFFF0
3FFFFFE0
1FFFFFE0
1FFFFFC0
0FFFFF80
03FFFF00
00FFF800
ENDCHAR
STARTCHAR 00DD
ENCODING 221
SWIDTH 663 0
DWIDTH 35 0
BBX 31 52 2 -1
BITMAP
00003F00
00007E00
00007E00
0000FC00
0001F800
0001F000
0003E000
0007C000
00000000
00000000
00000000
FF0001FE
FF0001FE
7F8001FE
7F8003FC
3FC003FC
3FC007F8
1FC007F8
1FE00FF0
0FE00FF0
0FE00FE0
0FF01FE0
07F01FE0
07F83FC0
03F83FC0
03F83F80
01FC7F80
01FC7F00
01FEFF00
00FEFE00
00FFFE00
007FFC00
007FFC00
003FFC00
003FF800
001FF800
001FF000
001FF000
000FE000
000FE000
000FE000
000FE000
000FE000
000FE000
000FE000
000FE000
000FE000
000FE000
000FE000
000FE000
000FE000
000FE000
ENDCHAR
STARTCHAR 00DE
ENCODING 222
SWIDTH 549 0
DWIDTH 29 0
BBX 25 38 2 -1
BITMAP
FF000000
FF000000
FF000000
FF000000
FF000000
FF000000
FF000000
FFFFE000
FFFFF800
FFFFFC00
FFFFFE00
FFFFFF00
FFFFFF00
FFFFFF00
FF00FF80
FF007F80
FF007F80
FF007F80
FF007F80
FF007F80
FF007F80
FF007F80
FF00FF00
FF07FF00
FFFFFF00
FFFFFF00
FFFFFE00
FFFFFC00
FFFFF800
FF3FE000
FF000000
FF000000
FF000000
FF000000
FF000000
FF000000
FF000000
FF000000
ENDCHAR
STARTCHAR 00DF
ENCODING 223
SWIDTH 568 0
DWIDTH 30 0
BBX 27 42 2 -1
BITMAP
007FC000
03FFF800
07FFFC00
1FFFFF00
1FFFFF00
3FFFFF80
7FFFFFC0
7FC07FC0
7F803FC0
7F801FC0
FF001FC0
FF001FC0
FF001FC0
FF003F80
FF007F80
FF007F80
FF01FF00
FF03FE00
FF07FC00
FF07F800
FF0FF000
FF0FE000
FF0FE000
FF0FE000
FF0FF000
FF0FFC00
FF07FF00
FF03FF80
FF00FFC0
FF003FE0
FF001FE0
FF000FE0
FF000FE0
FF000FE0
FF000FE0
FF001FE0
FF1FFFE0
FF1FFFE0
FF1FFFC0
FF1FFFC0
FF1FFF00
FF07FC00
ENDCHAR
STARTCHAR 00E0
ENCODING 224
SWIDTH 511 0
DWIDTH 27 0
BBX 23 39 2 -1
BITMAP
0FC000
07E000
03F000
01F000
00F800
00FC00
007C00
000000
000000
000000
01FF80
3FFFF0
7FFFF8
7FFFFC
7FFFFE
7FFFFE
4001FE
0000FE
0000FE
0000FE
0000FE
07FFFE
1FFFFE
7FFFFE
7FFFFE
FFFFFE
FF80FE
FE00FE
FE00FE
FE00FE
FE00FE
FE01FE
FF07FE
FFFFFE
FFFFFE
7FFFFE
7FFEFE
1FF87E
07E07E
ENDCHAR
STARTCHAR 00E1
ENCODING 225
SWIDTH 511 0
DWIDTH 27 0
BBX 23 39 2 -1
BITMAP
0003F0
0007E0
000FC0
000F80
001F80
001F00
003E00
000000
000000
000000
01FF80
3FFFF0
7FFFF8
7FFFFC
7FFFFE
7FFFFE
4001FE
0000FE
0000FE
0000FE
0000FE
07FFFE
1FFFFE
7FFFFE
7FFFFE
FFFFFE
FF80FE
FE00FE
FE00FE
FE00FE
FE00FE
FE01FE
FF07FE
FFFFFE
FFFFFE
7FFFFE
7FFEFE
1FF87E
07E07E
ENDCHAR
STARTCHAR 00E2
ENCODING 226
SWIDTH 511 0
DWIDTH 27 0
BBX 23 41 2 -1
BITMAP
007E00
00FF00
00FF80
01FF80
03FFC0
07E7E0
07C3E0
0F81F0
000000
000000
000000
07FFC0
7FFFF0
7FFFF8
7FFFFC
7FFFFE
7FFFFE
0001FE
0000FE
0000FE
0000FE
0000FE
01FFFE
1FFFFE
3FFFFE
7FFFFE
FFFFFE
FFF8FE
FF00FE
FE00FE
FE00FE
FE00FE
FE00FE
FE01FE
FF07FE
FFFFFE
FFFFFE
7FFFFE
7FFEFE
1FF87E
07E07E
ENDCHAR
STARTCHAR 00E3
ENCODING 227
SWIDTH 511 0
DWIDTH 27 0
BBX 23 39 2 -1
BITMAP
00E010
03F830
0FFFF8
1FFFF8
1FFFF0
1E1FE0
080780
000000
000000
000000
01FF80
3FFFF0
7FFFF8
7FFFFC
7FFFFE
7FFFFE
4001FE
0000FE
0000FE
0000FE
0000FE
07FFFE
1FFFFE
7FFFFE
7FFFFE
FFFFFE
FF80FE
FE00FE
FE00FE
FE00FE
FE00FE
FE01FE
FF07FE
FFFFFE
FFFFFE
7FFFFE
7FFEFE
1FF87E
07E07E
ENDCHAR
STARTCHAR 00E4
ENCODING 228
SWIDTH 511 0
DWIDTH 27 0
BBX 23 38 2 -1
BITMAP
1E0078
3F00F8
3F00FC
3F00FC
1F00F8
0E0070
000000
000000
000000
01FF80
3FFFF0
7FFFF8
7FFFFC
7FFFFE
7FFFFE
4001FE
0000FE
0000FE
0000FE
0000FE
07FFFE
1FFFFE
7FFFFE
7FFFFE
FFFFFE
FF80FE
FE00FE
FE00FE
FE00FE
FE00FE
FE01FE
FF07FE
FFFFFE
FFFFFE
7FFFFE
7FFEFE
1FF87E
07E07E
ENDCHAR
STARTCHAR 00E5
ENCODING 229
SWIDTH 511 0
DWIDTH 27 0
BBX 23 42 2 -1
BITMAP
003E00
00FF00
01FF80
01E780
01C380
01C380
01C380
01E780
00FF80
00FF00
003C00
000000
000000
01FF80
3FFFF0
7FFFF8
7FFFFC
7FFFFE
7FFFFE
4001FE
0000FE
0000FE
0000FE
0000FE
07FFFE
1FFFFE
7FFFFE
7FFFFE
FFFFFE
FF80FE
FE00FE
FE00FE
FE00FE
FE00FE
FE01FE
FF07FE
FFFFFE
FFFFFE
7FFFFE
7FFEFE
1FF87E
07E07E
ENDCHAR
STARTCHAR 00E6
ENCODING 230
SWIDTH 833 0
DWIDTH 44 0
BBX 41 29 2 -1
BITMAP
03FF801E0000
3FFFF3FFF800
7FFFFFFFFE00
7FFFFFFFFE00
7FFFFFFFFF00
7FFFFFFFFF00
0001FFC07F80
0000FF807F80
0000FF007F80
0000FF007F80
0000FF007F80
0000FF007F80
0FFFFFFFFF80
3FFFFFFFFF00
7FFFFFFFFF00
7FFFFFFFFE00
FFFEFFFFF800
FF00FF000000
FE00FF000000
FE00FF000000
FE00FF800000
FE01FF800000
FE07FFC00000
FFFFFFFFFF00
FFFFFFFFFF00
7FFFFFFFFF00
7FFF9FFFFF00
3FFE0FFFFF00
0FF003FFF800
ENDCHAR
STARTCHAR 00E7
ENCODING 231
SWIDTH 492 0
DWIDTH 26 0
BBX 22 39 2 -10
BITMAP
03FF00
0FFFF8
1FFFFC
3FFFFC
3FFFFC
7FFFFC
7F8000
7F0000
FF0000
FF0000
FF0000
FE0000
FE0000
FE0000
FE0000
FE0000
FE0000
FE0000
FE0000
FF0000
FF0000
FF0000
7F0000
7FC000
7FFFFC
3FFFFC
3FFFFC
1FFFFC
0FFFFC
03FFC0
000000
000000
003E00
003E00
003E00
00FE00
03FC00
03FC00
03F800
ENDCHAR
STARTCHAR 00E8
ENCODING 232
SWIDTH 530 0
DWIDTH 28 0
BBX 24 41 2 -1
BITMAP
0FC000
07E000
03F000
01F000
01F800
00FC00
007C00
003E00
000000
000000
000000
01FFC0
0FFFF8
1FFFFC
3FFFFE
3FFFFE
7FFFFF
7F80FF
7F00FF
FF007F
FF007F
FE007F
FE00FF
FE01FF
FFFFFF
FFFFFE
FFFFFE
FFFFFC
FFFFF0
FE0000
FE0000
FF0000
FF0000
7F0000
7F8001
7FFFFF
7FFFFF
3FFFFF
1FFFFF
0FFFFF
07FFE0
ENDCHAR
STARTCHAR 00E9
ENCODING 233
SWIDTH 530 0
DWIDTH 28 0
BBX 24 41 2 -1
BITMAP
0003F8
0003F0
0007E0
000FC0
000F80
001F00
001F00
003E00
000000
000000
000000
01FFC0
0FFFF8
1FFFFC
3FFFFE
3FFFFE
7FFFFF
7F80FF
7F00FF
FF007F
FF007F
FE007F
FE00FF
FE01FF
FFFFFF
FFFFFE
FFFFFE
FFFFFC
FFFFF0
FE0000
FE0000
FF0000
FF0000
7F0000
7F8001
7FFFFF
7FFFFF
3FFFFF
1FFFFF
0FFFFF
07FFE0
ENDCHAR
STARTCHAR 00EA
ENCODING 234
SWIDTH 530 0
DWIDTH 28 0
BBX 24 41 2 -1
BITMAP
007E00
00FF00
00FF80
01FF80
03FFC0
07E7E0
07C3E0
0F81F0
000000
000000
000000
01FFC0
0FFFF8
1FFFFC
3FFFFE
3FFFFE
7FFFFF
7F80FF
7F00FF
FF007F
FF007F
FE007F
FE00FF
FE01FF
FFFFFF
FFFFFE
FFFFFE
FFFFFC
FFFFF0
FE0000
FE0000
FF0000
FF0000
7F0000
7F8001
7FFFFF
7FFFFF
3FFFFF
1FFFFF
0FFFFF
07FFE0
ENDCHAR
STARTCHAR 00EB
ENCODING 235
SWIDTH 530 0
DWIDTH 28 0
BBX 24 39 2 -1
BITMAP
1E0078
3F00F8
3F00FC
3F00FC
1F00F8
0E0070
000000
000000
000000
01FFC0
0FFFF8
1FFFFC
3FFFFE
3FFFFE
7FFFFF
7F80FF
7F00FF
FF007F
FF007F
FE007F
FE00FF
FE01FF
FFFFFF
FFFFFE
FFFFFE
FFFFFC
FFFFF0
FE0000
FE0000
FF0000
FF0000
7F0000
7F8001
7FFFFF
7FFFFF
3FFFFF
1FFFFF
0FFFFF
07FFE0
ENDCHAR
STARTCHAR 00EC
ENCODING 236
SWIDTH 227 0
DWIDTH 12 0
BBX 12 41 -2 -1
BITMAP
FC00
7E00
7E00
3F00
1F80
0F80
07C0
0000
0000
0000
0000
0FF0
0FF0
0FF0
0FF0
0FF0
0FF0
0FF0
0FF0
0FF0
0FF0
0FF0
0FF0
0FF0
0FF0
0FF0
0FF0
0FF0
0FF0
0FF0
0FF0
0FF0
0FF0
0FF0
0FF0
0FF0
0FF0
0FF0
0FF0
0FF0
0FF0
ENDCHAR
STARTCHAR 00ED
ENCODING 237
SWIDTH 227 0
DWIDTH 12 0
BBX 13 41 2 -1
BITMAP
03F8
03F0
07E0
0FC0
0F80
1F00
3E00
0000
0000
0000
0000
FF00
FF00
FF00
FF00
FF00
FF00
FF00
FF00
FF00
FF00
FF00
FF00
FF00
FF00
FF00
FF00
FF00
FF00
FF00
FF00
FF00
FF00
FF00
FF00
FF00
FF00
FF00
FF00
FF00
FF00
ENDCHAR
STARTCHAR 00EE
ENCODING 238
SWIDTH 227 0
DWIDTH 12 0
BBX 16 41 -2 -1
BITMAP
07E0
07F0
0FF8
1FFC
3F7C
7E7E
7C3F
8000
0000
0000
0000
0FF0
0FF0
0FF0
0FF0
0FF0
0FF0
0FF0
0FF0
0FF0
0FF0
0FF0
0FF0
0FF0
0FF0
0FF0
0FF0
0FF0
0FF0
0FF0
0FF0
0FF0
0FF0
0FF0
0FF0
0FF0
0FF0
0FF0
0FF0
0FF0
0FF0
ENDCHAR
STARTCHAR 00EF
ENCODING 239
SWIDTH 227 0
DWIDTH 12 0
BBX 20 40 -4 -1
BITMAP
3801E0
7C03E0
FC03F0
FC03F0
7C03F0
7801E0
000000
000000
000000
000000
03FC00
03FC00
03FC00
03FC00
03FC00
03FC00
03FC00
03FC00
03FC00
03FC00
03FC00
03FC00
03FC00
03FC00
03FC00
03FC00
03FC00
03FC00
03FC00
03FC00
03FC00
03FC00
03FC00
03FC00
03FC00
03FC00
03FC00
03FC00
03FC00
03FC00
ENDCHAR
STARTCHAR 00F0
ENCODING 240
SWIDTH 549 0
DWIDTH 29 0
BBX 25 43 2 -1
BITMAP
1FC00000
1FF80C00
1FFE3C00
1FFFFE00
1FFFFC00
1FFFE000
007FF000
00FFF800
03FFF800
03E3FC00
0181FC00
0000FE00
0000FE00
03FFFE00
0FFFFF00
1FFFFF00
3FFFFF00
7FFFFF00
7FFFFF00
7FFFFF80
FF00FF80
FF007F80
FE007F80
FE007F80
FE007F80
FE007F80
FE007F80
FE007F80
FE007F80
FE007F80
FE007F80
FE007F80
FE007F80
FE007F00
FF007F00
FF00FF00
FFFFFF00
7FFFFE00
7FFFFE00
3FFFFC00
1FFFFC00
0FFFF000
03FFC000
ENDCHAR
STARTCHAR 00F1
ENCODING 241
SWIDTH 549 0
DWIDTH 29 0
BBX 25 40 2 -1
BITMAP
00F00800
03FC3800
07FFFC00
0FFFF800
0FFFF000
0E0FE000
00018000
00000000
00000000
00000000
FE07F000
FE1FFC00
FE7FFE00
FFFFFF00
FFFFFF00
FFFFFF00
FFE0FF80
FF807F80
FF003F80
FF003F80
FF003F80
FF003F80
FF003F80
FF003F80
FF003F80
FF003F80
FF003F80
FF003F80
FF003F80
FF003F80
FF003F80
FF003F80
FF003F80
FF003F80
FF003F80
FF003F80
FF003F80
FF003F80
FF003F80
FF003F80
ENDCHAR
STARTCHAR 00F2
ENCODING 242
SWIDTH 568 0
DWIDTH 30 0
BBX 26 41 2 -1
BITMAP
07E00000
07F00000
03F00000
01F80000
00F80000
007C0000
003E0000
003E0000
00000000
00000000
00000000
00FFC000
07FFF800
1FFFFC00
1FFFFE00
3FFFFF00
7FFFFF00
7FC0FF80
7F007F80
7F003F80
FF003F80
FF003F80
FE003F80
FE003F80
FE003FC0
FE003FC0
FE003FC0
FE003FC0
FE003F80
FE003F80
FF003F80
FF003F80
FF003F80
7F807F80
7FC0FF80
7FFFFF00
3FFFFF00
1FFFFE00
1FFFFC00
07FFF800
00FFC000
ENDCHAR
STARTCHAR 00F3
ENCODING 243
SWIDTH 568 0
DWIDTH 30 0
BBX 26 41 2 -1
BITMAP
0001F800
0003F000
0003F000
0007E000
000FC000
000F8000
001F0000
003E0000
00000000
00000000
00000000
00FFC000
07FFF800
1FFFFC00
1FFFFE00
3FFFFF00
7FFFFF00
7FC0FF80
7F007F80
7F003F80
FF003F80
FF003F80
FE003F80
FE003F80
FE003FC0
FE003FC0
FE003FC0
FE003FC0
FE003F80
FE003F80
FF003F80
FF003F80
FF003F80
7F807F80
7FC0FF80
7FFFFF00
3FFFFF00
1FFFFE00
1FFFFC00
07FFF800
00FFC000
ENDCHAR
STARTCHAR 00F4
ENCODING 244
SWIDTH 568 0
DWIDTH 30 0
BBX 26 41 2 -1
BITMAP
003F0000
007F8000
007FC000
00FFC000
01FFE000
03F3F000
03E1F000
07C0F800
00000000
00000000
00000000
00FFC000
07FFF800
1FFFFC00
1FFFFE00
3FFFFF00
7FFFFF00
7FC0FF80
7F007F80
7F003F80
FF003F80
FF003F80
FE003F80
FE003F80
FE003FC0
FE003FC0
FE003FC0
FE003FC0
FE003F80
FE003F80
FF003F80
FF003F80
FF003F80
7F807F80
7FC0FF80
7FFFFF00
3FFFFF00
1FFFFE00
1FFFFC00
07FFF800
00FFC000
ENDCHAR
STARTCHAR 00F5
ENCODING 245
SWIDTH 568 0
DWIDTH 30 0
BBX 26 40 2 -1
BITMAP
00700800
01FC3800
07FFFC00
0FFFFC00
0FFFF800
070FE000
0401C000
00000000
00000000
00000000
00FFC000
07FFF800
1FFFFC00
1FFFFE00
3FFFFF00
7FFFFF00
7FC0FF80
7F007F80
7F003F80
FF003F80
FF003F80
FE003F80
FE003F80
FE003FC0
FE003FC0
FE003FC0
FE003FC0
FE003F80
FE003F80
FF003F80
FF003F80
FF003F80
7F807F80
7FC0FF80
7FFFFF00
3FFFFF00
1FFFFE00
1FFFFC00
07FFF800
00FFC000
ENDCHAR
STARTCHAR 00F6
ENCODING 246
SWIDTH 568 0
DWIDTH 30 0
BBX 26 39 2 -1
BITMAP
0F003C00
1F807C00
1F80FE00
1F80FE00
1F807C00
0F003800
00000000
00000000
00000000
00FFC000
07FFF800
1FFFFC00
1FFFFE00
3FFFFF00
7FFFFF00
7FC0FF80
7F007F80
7F003F80
FF003F80
FF003F80
FE003F80
FE003F80
FE003FC0
FE003FC0
FE003FC0
FE003FC0
FE003F80
FE003F80
FF003F80
FF003F80
FF003F80
7F807F80
7FC0FF80
7FFFFF00
3FFFFF00
1FFFFE00
1FFFFC00
07FFF800
00FFC000
ENDCHAR
STARTCHAR 00F7
ENCODING 247
SWIDTH 492 0
DWIDTH 26 0
BBX 22 23 2 7
BITMAP
00FC00
00FC00
00FC00
00FC00
00FC00
00FC00
000000
000000
FFFFFC
FFFFFC
FFFFFC
FFFFFC
FFFFFC
FFFFFC
000000
000000
000000
00FC00
00FC00
00FC00
00FC00
00FC00
00FC00
ENDCHAR
STARTCHAR 00F8
ENCODING 248
SWIDTH 587 0
DWIDTH 31 0
BBX 26 30 2 -1
BITMAP
00FFE3C0
07FFFF80
0FFFFF80
1FFFFF00
3FFFFF00
3FFFFF80
3FC0FF80
7F807F80
7F80FFC0
7F01FFC0
7F03FFC0
7F03FFC0
7F079FC0
7F0F1FC0
7F0E1FC0
7F1E1FC0
7F3C1FC0
7F781FC0
7F781FC0
7FF01FC0
7FE03FC0
7FC03FC0
7FC03F80
7FC07F80
3FFFFF80
3FFFFF00
1FFFFF00
3FFFFE00
7FFFF800
F0FFE000
ENDCHAR
STARTCHAR 00F9
ENCODING 249
SWIDTH 549 0
DWIDTH 29 0
BBX 25 41 2 -1
BITMAP
0FE00000
07E00000
03F00000
01F00000
00F80000
00FC0000
007C0000
00000000
00000000
00000000
00000000
FE007F80
FE007F80
FE007F80
FE007F80
FE007F80
FE007F80
FE007F80
FE007F80
FE007F80
FE007F80
FE007F80
FE007F80
FE007F80
FE007F80
FE007F80
FE007F80
FE007F80
FE007F80
FE007F80
FE007F80
FE007F80
FF007F80
FF00FF80
FF83FF80
7FFFFF80
7FFFFF80
7FFFFF80
3FFF3F80
1FFC3F80
07F03F80
ENDCHAR
STARTCHAR 00FA
ENCODING 250
SWIDTH 549 0
DWIDTH 29 0
BBX 25 41 2 -1
BITMAP
0003F800
0003F000
0007E000
000FC000
000F8000
001F0000
001F0000
00200000
00000000
00000000
00000000
FE007F80
FE007F80
FE007F80
FE007F80
FE007F80
FE007F80
FE007F80
FE007F80
FE007F80
FE007F80
FE007F80
FE007F80
FE007F80
FE007F80
FE007F80
FE007F80
FE007F80
FE007F80
FE007F80
FE007F80
FE007F80
FF007F80
FF00FF80
FF83FF80
7FFFFF80
7FFFFF80
7FFFFF80
3FFF3F80
1FFC3F80
07F03F80
ENDCHAR
STARTCHAR 00FB
ENCODING 251
SWIDTH 549 0
DWIDTH 29 0
BBX 25 41 2 -1
BITMAP
007F0000
007F0000
00FF8000
01FFC000
03F7C000
03E3E000
07C1F000
00000000
00000000
00000000
00000000
FE007F80
FE007F80
FE007F80
FE007F80
FE007F80
FE007F80
FE007F80
FE007F80
FE007F80
FE007F80
FE007F80
FE007F80
FE007F80
FE007F80
FE007F80
FE007F80
FE007F80
FE007F80
FE007F80
FE007F80
FE007F80
FF007F80
FF00FF80
FF83FF80
7FFFFF80
7FFFFF80
7FFFFF80
3FFF3F80
1FFC3F80
07F03F80
ENDCHAR
STARTCHAR 00FC
ENCODING 252
SWIDTH 549 0
DWIDTH 29 0
BBX 25 40 2 -1
BITMAP
0E007800
1F00FC00
1F80FC00
3F80FC00
1F00FC00
0F007800
00000000
00000000
00000000
00000000
FE007F80
FE007F80
FE007F80
FE007F80
FE007F80
FE007F80
FE007F80
FE007F80
FE007F80
FE007F80
FE007F80
FE007F80
FE007F80
FE007F80
FE007F80
FE007F80
FE007F80
FE007F80
FE007F80
FE007F80
FE007F80
FF007F80
FF00FF80
FF83FF80
7FFFFF80
7FFFFF80
7FFFFF80
3FFF3F80
1FFC3F80
07F03F80
ENDCHAR
STARTCHAR 00FD
ENCODING 253
SWIDTH 587 0
DWIDTH 31 0
BBX 28 53 1 -13
BITMAP
0000FE00
0000FC00
0001F800
0003F000
0003E000
0007C000
000F8000
00000000
00000000
00000000
00000000
FF0007F0
FF000FF0
FF000FF0
7F000FF0
7F800FE0
7F801FE0
3F801FE0
3F801FE0
3FC01FC0
3FC03FC0
1FC03FC0
1FC03FC0
1FE03F80
1FE07F80
0FE07F80
0FE07F00
0FF07F00
0FF0FF00
07F0FF00
07F0FE00
07F8FE00
07FDFE00
03FFFE00
03FFFC00
01FFFC00
00FFFC00
007FFC00
001FF800
0003F800
0007F800
0007F800
0007F000
000FF000
000FF000
000FE000
000FE000
001FE000
001FC000
001FC000
003F8000
003F0000
003F0000
ENDCHAR
STARTCHAR 00FE
ENCODING 254
SWIDTH 549 0
DWIDTH 29 0
BBX 25 56 3 -14
BITMAP
FE000000
FE000000
FE000000
FE000000
FE000000
FE000000
FE000000
FE000000
FE000000
FE000000
FE000000
FE000000
FE000000
FE07E000
FE3FF000
FEFFFC00
FFFFFC00
FFFFFE00
FFFFFE00
FFF3FF00
FF80FF00
FE00FF00
FE007F00
FE007F80
FE007F80
FE007F80
FE007F80
FE007F80
FE007F80
FE007F80
FE007F80
FE007F80
FE007F80
FE007F00
FE007F00
FE00FF00
FF81FF00
FFFFFF00
FFFFFE00
FFFFFE00
FFFFFC00
FE7FF800
FE07C000
FE000000
FE000000
FE000000
FE000000
FE000000
FE000000
FE000000
FE000000
FE000000
FE000000
FE000000
FE000000
FE000000
ENDCHAR
STARTCHAR 00FF
ENCODING 255
SWIDTH 587 0
DWIDTH 31 0
BBX 28 52 1 -13
BITMAP
03801E00
07C03F00
0FC03F00
0FE03F00
07C03F00
03801E00
00000000
00000000
00000000
00000000
FF0007F0
FF000FF0
FF000FF0
7F000FF0
7F800FE0
7F801FE0
3F801FE0
3F801FE0
3FC01FC0
3FC03FC0
1FC03FC0
1FC03FC0
1FE03F80
1FE07F80
0FE07F80
0FE07F00
0FF07F00
0FF0FF00
07F0FF00
07F0FE00
07F8FE00
07FDFE00
03FFFE00
03FFFC00
01FFFC00
00FFFC00
007FFC00
001FF800
0003F800
0007F800
0007F800
0007F000
000FF000
000FF000
000FE000
000FE000
001FE000
001FC000
001FC000
003F8000
003F0000
003F0000
ENDCHAR
STARTCHAR 0100
ENCODING 256
SWIDTH 701 0
DWIDTH 37 0
BBX 34 49 2 -1
BITMAP
007FFF8000
007FFF8000
007FFF8000
007FFF8000
0000000000
0000000000
0000000000
0000000000
0007F80000
000FFC0000
000FFC0000
000FFC0000
001FFE0000
001FFE0000
001FFE0000
003FFF0000
003FFF0000
003FFF0000
007FFF0000
007FFF8000
007F3F8000
007F3F8000
00FF3FC000
00FE1FC000
00FE1FC000
01FE1FE000
01FE1FE000
01FC0FE000
03FC0FF000
03FC0FF000
03F807F000
07F807F000
07F807F800
07FFFFF800
0FFFFFF800
0FFFFFFC00
0FFFFFFC00
1FFFFFFC00
1FFFFFFE00
1FFFFFFE00
3FC001FE00
3FC000FE00
3FC000FF00
3F8000FF00
7F80007F00
7F80007F80
7F00007F80
FF00007F80
FF00003FC0
ENDCHAR
STARTCHAR 0101
ENCODING 257
SWIDTH 511 0
DWIDTH 27 0
BBX 23 36 2 -1
BITMAP
07FFF0
07FFF0
07FFF0
07FFF0
000000
000000
000000
01FF80
3FFFF0
7FFFF8
7FFFFC
7FFFFE
7FFFFE
4001FE
0000FE
0000FE
0000FE
0000FE
07FFFE
1FFFFE
7FFFFE
7FFFFE
FFFFFE
FF80FE
FE00FE
FE00FE
FE00FE
FE00FE
FE01FE
FF07FE
FFFFFE
FFFFFE
7FFFFE
7FFEFE
1FF87E
07E07E
ENDCHAR
STARTCHAR 0102
ENCODING 258
SWIDTH 701 0
DWIDTH 37 0
BBX 34 50 2 -1
BITMAP
001C0E0000
001C0E0000
001E1E0000
000FFC0000
0007F80000
0003F00000
0000000000
0000000000
0000000000
0007F80000
000FFC0000
000FFC0000
000FFC0000
001FFE0000
001FFE0000
001FFE0000
003FFF0000
003FFF0000
003FFF0000
007FFF0000
007FFF8000
007F3F8000
007F3F8000
00FF3FC000
00FE1FC000
00FE1FC000
01FE1FE000
01FE1FE000
01FC0FE000
03FC0FF000
03FC0FF000
03F807F000
07F807F000
07F807F800
07FFFFF800
0FFFFFF800
0FFFFFFC00
0FFFFFFC00
1FFFFFFC00
1FFFFFFE00
1FFFFFFE00
3FC001FE00
3FC000FE00
3FC000FF00
3F8000FF00
7F80007F00
7F80007F80
7F00007F80
FF00007F80
FF00003FC0
ENDCHAR
STARTCHAR 0103
ENCODING 259
SWIDTH 511 0
DWIDTH 27 0
BBX 23 38 2 -1
BITMAP
0381C0
03C1C0
01E3C0
01FF80
00FF00
003E00
000000
000000
000000
01FF80
3FFFF0
7FFFF8
7FFFFC
7FFFFE
7FFFFE
4001FE
0000FE
0000FE
0000FE
0000FE
07FFFE
1FFFFE
7FFFFE
7FFFFE
FFFFFE
FF80FE
FE00FE
FE00FE
FE00FE
FE00FE
FE01FE
FF07FE
FFFFFE
FFFFFE
7FFFFE
7FFEFE
1FF87E
07E07E
ENDCHAR
STARTCHAR 0104
ENCODING 260
SWIDTH 701 0
DWIDTH 37 0
BBX 34 51 2 -12
BITMAP
0007F80000
000FFC0000
000FFC0000
000FFC0000
001FFE0000
001FFE0000
001FFE0000
003FFF0000
003FFF0000
003FFF0000
007FFF0000
007FFF8000
007F3F8000
007F3F8000
00FF3FC000
00FE1FC000
00FE1FC000
01FE1FE000
01FE1FE000
01FC0FE000
03FC0FF000
03FC0FF000
03F807F000
07F807F000
07F807F800
07FFFFF800
0FFFFFF800
0FFFFFFC00
0FFFFFFC00
1FFFFFFC00
1FFFFFFE00
1FFFFFFE00
3FC001FE00
3FC000FE00
3FC000FF00
3F8000FF00
7F80007F00
7F80007F80
7F00007F80
FF00007F80
FF00003FC0
0000000E00
0000003C00
0000003800
0000007800
0000007800
0000007C00
0000007F00
0000003F00
0000003F00
0000000F00
ENDCHAR
STARTCHAR 0105
ENCODING 261
SWIDTH 511 0
DWIDTH 27 0
BBX 23 38 2 -11
BITMAP
01FF80
3FFFF0
7FFFF8
7FFFFC
7FFFFE
7FFFFE
4001FE
0000FE
0000FE
0000FE
0000FE
07FFFE
1FFFFE
7FFFFE
7FFFFE
FFFFFE
FF80FE
FE00FE
FE00FE
FE00FE
FE00FE
FE01FE
FF07FE
FFFFFE
FFFFFE
7FFFFE
7FFEFE
1FF87E
07E07E
000038
000070
0000F0
0000F0
0001F0
0000FE
0000FE
00007E
00003E
ENDCHAR
STARTCHAR 0106
ENCODING 262
SWIDTH 568 0
DWIDTH 30 0
BBX 27 49 2 -1
BITMAP
00007E00
00007E00
0000FC00
0001F800
0001F000
0003E000
0007C000
00000000
00000000
00000000
007FF800
03FFFFC0
07FFFFE0
0FFFFFE0
1FFFFFE0
1FFFFFE0
3FFFFFE0
3FE00020
7FC00000
7F800000
7F800000
7F000000
7F000000
FF000000
FF000000
FF000000
FF000000
FF000000
FF000000
FF000000
FF000000
FF000000
FF000000
FF000000
FF000000
7F000000
7F000000
7F000000
7F800000
7F800000
3FC00000
3FF00000
3FFFFFE0
1FFFFFE0
0FFFFFE0
0FFFFFE0
03FFFFE0
01FFFFE0
003FFC00
ENDCHAR
STARTCHAR 0107
ENCODING 263
SWIDTH 492 0
DWIDTH 26 0
BBX 22 41 2 -1
BITMAP
0001F8
0003F0
0007E0
0007C0
000FC0
001F80
001F00
003E00
000000
000000
000000
03FF80
0FFFF8
1FFFFC
3FFFFC
3FFFFC
7FFFFC
7F8000
7F0000
FF0000
FF0000
FF0000
FE0000
FE0000
FE0000
FE0000
FE0000
FE0000
FE0000
FE0000
FF0000
FF0000
FF0000
7F0000
7FC000
7FFFFC
3FFFFC
3FFFFC
1FFFFC
0FFFFC
03FFE0
ENDCHAR
STARTCHAR 0108
ENCODING 264
SWIDTH 568 0
DWIDTH 30 0
BBX 27 49 2 -1
BITMAP
000FE000
000FF000
001FF800
003FF800
007EFC00
00FC7E00
00F83E00
00000000
00000000
00000000
007FF800
03FFFFC0
07FFFFE0
0FFFFFE0
1FFFFFE0
1FFFFFE0
3FFFFFE0
3FE00020
7FC00000
7F800000
7F800000
7F000000
7F000000
FF000000
FF000000
FF000000
FF000000
FF000000
FF000000
FF000000
FF000000
FF000000
FF000000
FF000000
FF000000
7F000000
7F000000
7F000000
7F800000
7F800000
3FC00000
3FF00000
3FFFFFE0
1FFFFFE0
0FFFFFE0
0FFFFFE0
03FFFFE0
01FFFFE0
003FFC00
ENDCHAR
STARTCHAR 0109
ENCODING 265
SWIDTH 492 0
DWIDTH 26 0
BBX 22 41 2 -1
BITMAP
007F00
007F00
00FF80
01FFC0
03F7C0
03E3E0
07C3F0
0F81F0
000000
000000
000000
03FF80
0FFFF8
1FFFFC
3FFFFC
3FFFFC
7FFFFC
7F8000
7F0000
FF0000
FF0000
FF0000
FE0000
FE0000
FE0000
FE0000
FE0000
FE0000
FE0000
FE0000
FF0000
FF0000
FF0000
7F0000
7FC000
7FFFFC
3FFFFC
3FFFFC
1FFFFC
0FFFFC
03FFE0
ENDCHAR
STARTCHAR 010A
ENCODING 266
SWIDTH 568 0
DWIDTH 30 0
BBX 27 49 2 -1
BITMAP
0007C000
000FE000
000FE000
000FE000
000FE000
000FE000
00078000
00000000
00000000
00000000
007FF800
03FFFFC0
07FFFFE0
0FFFFFE0
1FFFFFE0
1FFFFFE0
3FFFFFE0
3FE00020
7FC00000
7F800000
7F800000
7F000000
7F000000
FF000000
FF000000
FF000000
FF000000
FF000000
FF000000
FF000000
FF000000
FF000000
FF000000
FF000000
FF000000
7F000000
7F000000
7F000000
7F800000
7F800000
3FC00000
3FF00000
3FFFFFE0
1FFFFFE0
0FFFFFE0
0FFFFFE0
03FFFFE0
01FFFFE0
003FFC00
ENDCHAR
STARTCHAR 010B
ENCODING 267
SWIDTH 492 0
DWIDTH 26 0
BBX 22 40 2 -1
BITMAP
003F00
003F00
003F00
003F00
003F00
003F00
001E00
000000
000000
000000
03FF80
0FFFF8
1FFFFC
3FFFFC
3FFFFC
7FFFFC
7F8000
7F0000
FF0000
FF0000
FF0000
FE0000
FE0000
FE0000
FE0000
FE0000
FE0000
FE0000
FE0000
FF0000
FF0000
FF0000
7F0000
7FC000
7FFFFC
3FFFFC
3FFFFC
1FFFFC
0FFFFC
03FFE0
ENDCHAR
STARTCHAR 010C
ENCODING 268
SWIDTH 568 0
DWIDTH 30 0
BBX 27 49 2 -1
BITMAP
00FC3F00
007E7E00
003FFC00
001FF800
001FF000
000FF000
0007E000
00000000
00000000
00000000
007FF800
03FFFFC0
07FFFFE0
0FFFFFE0
1FFFFFE0
1FFFFFE0
3FFFFFE0
3FE00020
7FC00000
7F800000
7F800000
7F000000
7F000000
FF000000
FF000000
FF000000
FF000000
FF000000
FF000000
FF000000
FF000000
FF000000
FF000000
FF000000
FF000000
7F000000
7F000000
7F000000
7F800000
7F800000
3FC00000
3FF00000
3FFFFFE0
1FFFFFE0
0FFFFFE0
0FFFFFE0
03FFFFE0
01FFFFE0
003FFC00
ENDCHAR
STARTCHAR 010D
ENCODING 269
SWIDTH 492 0
DWIDTH 26 0
BBX 22 41 2 -1
BITMAP
07C1F0
07E3E0
03F7E0
01FFC0
01FF80
00FF80
007F00
007E00
000000
000000
000000
03FF80
0FFFF8
1FFFFC
3FFFFC
3FFFFC
7FFFFC
7F8000
7F0000
FF0000
FF0000
FF0000
FE0000
FE0000
FE0000
FE0000
FE0000
FE0000
FE0000
FE0000
FF0000
FF0000
FF0000
7F0000
7FC000
7FFFFC
3FFFFC
3FFFFC
1FFFFC
0FFFFC
03FFE0
ENDCHAR
STARTCHAR 010E
ENCODING 270
SWIDTH 663 0
DWIDTH 35 0
BBX 30 51 3 -1
BITMAP
03F0F800
01F9F000
00FFF000
007FE000
007FC000
003F8000
001F8000
00000000
00000000
00000000
FFFFF000
FFFFFE00
FFFFFF00
FFFFFF80
FFFFFFC0
FFFFFFE0
FFFFFFF0
FF001FF0
FF000FF0
FF0007F8
FF0007F8
FF0003F8
FF0003F8
FF0003FC
FF0003FC
FF0003FC
FF0003FC
FF0001FC
FF0001FC
FF0001FC
FF0001FC
FF0001FC
FF0001FC
FF0001FC
FF0003FC
FF0003FC
FF0003FC
FF0003FC
FF0003F8
FF0003F8
FF0007F8
FF0007F8
FF000FF0
FF001FF0
FFFFFFE0
FFFFFFE0
FFFFFFC0
FFFFFF80
FFFFFF00
FFFFFE00
FFFFF800
ENDCHAR
STARTCHAR 010F
ENCODING 271
SWIDTH 606 0
DWIDTH 32 0
BBX 33 42 2 -1
BITMAP
00003F8F80
00003F8F80
00003F8F80
00003F8F80
00003F8F80
00003F8F80
00003F8F80
00003F8F00
00003F8F00
00003F8F00
00003F8F00
00003F8000
00003F8000
03F03F8000
0FFF3F8000
1FFFFF8000
3FFFFF8000
7FFFFF8000
7FFFFF8000
7F80FF8000
7F003F8000
FF003F8000
FF003F8000
FF003F8000
FE003F8000
FF003F8000
FE003F8000
FE003F8000
FE003F8000
FE003F8000
FF003F8000
FF003F8000
FF003F8000
FF003F8000
7F807F8000
7FCFFF8000
7FFFFF8000
3FFFFF8000
3FFFFF8000
1FFFBF8000
0FFE3F8000
03F01F8000
ENDCHAR
STARTCHAR 0110
ENCODING 272
SWIDTH 663 0
DWIDTH 35 0
BBX 33 41 0 -1
BITMAP
1FFFFE0000
1FFFFFC000
1FFFFFE000
1FFFFFF000
1FFFFFF800
1FFFFFFC00
1FFFFFFE00
1FE003FE00
1FE001FE00
1FE000FF00
1FE000FF00
1FE0007F00
1FE0007F00
1FE0007F80
1FE0007F80
1FE0007F80
1FE0007F80
1FE0007F80
1FE0007F80
FFFF007F80
FFFF003F80
FFFF003F80
1FE0007F80
1FE0007F80
1FE0007F80
1FE0007F80
1FE0007F80
1FE0007F80
1FE0007F00
1FE000FF00
1FE000FF00
1FE000FF00
1FE001FE00
1FE003FE00
1FFFFFFC00
1FFFFFFC00
1FFFFFF800
1FFFFFF000
1FFFFFE000
1FFFFFC000
1FFFFF0000
ENDCHAR
STARTCHAR 0111
ENCODING 273
SWIDTH 568 0
DWIDTH 30 0
BBX 28 42 2 -1
BITMAP
00007F80
00007F80
00007F80
00007F80
00007F80
00007F80
00007F80
000FFFF0
000FFFF0
000FFFF0
00007F80
00007F80
00007F80
03F07F80
0FFF7F80
1FFFFF80
3FFFFF80
7FFFFF80
7FFFFF80
7F80FF80
FF007F80
FF007F80
FF007F80
FE007F80
FE007F80
FE007F80
FE007F80
FE007F80
FE007F80
FE007F80
FE007F80
FE007F80
FF007F80
FF007F80
FF80FF80
7FCFFF80
7FFFFF80
7FFFFF80
3FFFFF80
1FFFBF80
0FFE3F80
03F01F80
ENDCHAR
STARTCHAR 0112
ENCODING 274
SWIDTH 568 0
DWIDTH 30 0
BBX 25 48 3 -1
BITMAP
03FFF800
03FFF800
03FFF800
03FFF800
00000000
00000000
00000000
07FFF000
1FFFFF80
3FFFFF80
7FFFFF80
7FFFFF80
FFFFFF80
FFFFFF80
FF000000
FF000000
FE000000
FE000000
FE000000
FE000000
FE000000
FE000000
FE000000
FE000000
FFFF0000
FFFFFE00
FFFFFE00
FFFFFE00
FFFFFE00
FFFFFE00
FFFFFE00
FE000000
FE000000
FE000000
FE000000
FE000000
FE000000
FE000000
FE000000
FF000000
FF000000
FFFFFF80
7FFFFF80
7FFFFF80
7FFFFF80
3FFFFF80
1FFFFF80
07FFF800
ENDCHAR
STARTCHAR 0113
ENCODING 275
SWIDTH 530 0
DWIDTH 28 0
BBX 24 37 2 -1
BITMAP
07FFF0
07FFF0
07FFF0
07FFF0
000000
000000
000000
01FFC0
0FFFF8
1FFFFC
3FFFFE
3FFFFE
7FFFFF
7F80FF
7F00FF
FF007F
FF007F
FE007F
FE00FF
FE01FF
FFFFFF
FFFFFE
FFFFFE
FFFFFC
FFFFF0
FE0000
FE0000
FF0000
FF0000
7F0000
7F8001
7FFFFF
7FFFFF
3FFFFF
1FFFFF
0FFFFF
07FFE0
ENDCHAR
STARTCHAR 0116
ENCODING 278
SWIDTH 568 0
DWIDTH 30 0
BBX 25 51 3 -1
BITMAP
001F8000
001F8000
001F8000
001F8000
001F8000
001F8000
000F8000
00000000
00000000
00000000
07FFF000
1FFFFF80
3FFFFF80
7FFFFF80
7FFFFF80
FFFFFF80
FFFFFF80
FF000000
FF000000
FE000000
FE000000
FE000000
FE000000
FE000000
FE000000
FE000000
FE000000
FFFF0000
FFFFFE00
FFFFFE00
FFFFFE00
FFFFFE00
FFFFFE00
FFFFFE00
FE000000
FE000000
FE000000
FE000000
FE000000
FE000000
FE000000
FE000000
FF000000
FF000000
FFFFFF80
7FFFFF80
7FFFFF80
7FFFFF80
3FFFFF80
1FFFFF80
07FFF800
ENDCHAR
STARTCHAR 0117
ENCODING 279
SWIDTH 530 0
DWIDTH 28 0
BBX 24 40 2 -1
BITMAP
003E00
007E00
007E00
007E00
007E00
007E00
007E00
000000
000000
000000
01FFC0
0FFFF8
1FFFFC
3FFFFE
3FFFFE
7FFFFF
7F80FF
7F00FF
FF007F
FF007F
FE007F
FE00FF
FE01FF
FFFFFF
FFFFFE
FFFFFE
FFFFFC
FFFFF0
FE0000
FE0000
FF0000
FF0000
7F0000
7F8001
7FFFFF
7FFFFF
3FFFFF
1FFFFF
0FFFFF
07FFE0
ENDCHAR
STARTCHAR 0118
ENCODING 280
SWIDTH 568 0
DWIDTH 30 0
BBX 26 49 3 -10
BITMAP
07FFF000
1FFFFF80
3FFFFF80
7FFFFF80
7FFFFF80
FFFFFF80
FFFFFF80
FF000000
FF000000
FE000000
FE000000
FE000000
FE000000
FE000000
FE000000
FE000000
FE000000
FFFFFE00
FFFFFE00
FFFFFE00
FFFFFE00
FFFFFE00
FFFFFE00
FFFF0000
FE000000
FE000000
FE000000
FE000000
FE000000
FE000000
FE000000
FF000000
FF000000
FFFFFF80
FFFFFF80
7FFFFF80
7FFFFF80
3FFFFF80
1FFFFF80
07FFF380
00000F00
00000E00
00001E00
00001E00
00001F00
00001FC0
00000FC0
00000FC0
000003C0
ENDCHAR
STARTCHAR 0119
ENCODING 281
SWIDTH 530 0
DWIDTH 28 0
BBX 24 38 2 -10
BITMAP
01FFC0
0FFFF8
1FFFFC
3FFFFE
3FFFFE
7FFFFF
7F80FF
7F00FF
FF007F
FF007F
FE007F
FE00FF
FE01FF
FFFFFF
FFFFFE
FFFFFE
FFFFFC
FFFFF0
FE0000
FE0000
FF0000
FF0000
7F0000
7F8001
7FFFFF
7FFFFF
3FFFFF
1FFFFF
0FFFFF
07FFFC
00003C
000078
000078
00007C
00007F
00003F
00003F
00000F
ENDCHAR
STARTCHAR 011A
ENCODING 282
SWIDTH 568 0
DWIDTH 30 0
BBX 25 50 3 -1
BITMAP
03E0FC00
01F0F800
00F9F000
00FFE000
007FE000
003FC000
001F8000
00000000
00000000
07FFF000
1FFFFF80
3FFFFF80
7FFFFF80
7FFFFF80
FFFFFF80
FFFFFF80
FF000000
FF000000
FE000000
FE000000
FE000000
FE000000
FE000000
FE000000
FE000000
FE000000
FFFF0000
FFFFFE00
FFFFFE00
FFFFFE00
FFFFFE00
FFFFFE00
FFFFFE00
FE000000
FE000000
FE000000
FE000000
FE000000
FE000000
FE000000
FE000000
FF000000
FF000000
FFFFFF80
FFFFFF80
7FFFFF80
7FFFFF80
3FFFFF80
1FFFFF80
07FFF800
ENDCHAR
STARTCHAR 011B
ENCODING 283
SWIDTH 530 0
DWIDTH 28 0
BBX 24 40 2 -1
BITMAP
07C1F0
03E3E0
03F7E0
01FFC0
00FF80
007F00
003F00
000000
000000
000000
01FFC0
0FFFF8
1FFFFC
3FFFFE
3FFFFE
7FFFFF
7F80FF
7F00FF
FF007F
FF007F
FE007F
FE00FF
FE01FF
FFFFFF
FFFFFE
FFFFFE
FFFFFC
FFFFF0
FE0000
FE0000
FF0000
FF0000
7F0000
7F8001
7FFFFF
7FFFFF
3FFFFF
1FFFFF
0FFFFF
07FFE0
ENDCHAR
STARTCHAR 011C
ENCODING 284
SWIDTH 606 0
DWIDTH 32 0
BBX 28 50 2 -1
BITMAP
0007E000
000FF000
001FF000
003FF800
003EFC00
007C7C00
00F83E00
00000000
00000000
00000000
00060000
01FFFF80
03FFFFF0
0FFFFFF0
0FFFFFF0
1FFFFFF0
3FFFFFF0
3FF001F0
3FC00000
7F800000
7F800000
7F000000
7F000000
7F000000
FF000000
FF000000
FF000000
FF000000
FF007FF0
FF01FFF0
FF01FFF0
FF01FFF0
FF01FFF0
FF01FFF0
FF0007F0
FF0007F0
FF0007F0
7F0007F0
7F0007F0
7F0007F0
7F8007F0
7F800FF0
3FE07FF0
3FFFFFF0
3FFFFFF0
1FFFFFF0
0FFFFFF0
07FFFFF0
03FFE3F0
00FF81F0
ENDCHAR
STARTCHAR 011D
ENCODING 285
SWIDTH 568 0
DWIDTH 30 0
BBX 27 55 2 -15
BITMAP
003F0000
007F8000
00FF8000
00FFC000
01F7E000
03E3E000
07C1F000
00000000
00000000
00000000
00000000
03FFFFE0
0FFFFFE0
3FFFFFE0
3FFFFFE0
7FFFFFC0
7FFFFF00
FF80FF00
FF007F00
FF007F80
FE007F80
FE007F80
FF007F80
FF007F80
FF007F80
7F80FF00
7FFFFF00
7FFFFF00
3FFFFE00
1FFFFC00
7FFFF800
7FFFE000
FE000000
FE000000
FE000000
FFFFF800
FFFFFE00
FFFFFF00
7FFFFF00
3FFFFF80
3FFFFF80
7F007F80
7F003FC0
FF003FC0
FF003FC0
FF003FC0
FF003FC0
FF003FC0
FF007F80
FFFFFF80
7FFFFF80
7FFFFF00
3FFFFF00
1FFFFE00
07FFF000
ENDCHAR
STARTCHAR 011E
ENCODING 286
SWIDTH 606 0
DWIDTH 32 0
BBX 28 49 2 -1
BITMAP
00703800
00783800
00387800
003FF000
001FE000
0007C000
00000000
00000000
00000000
00060000
01FFFF80
03FFFFF0
0FFFFFF0
0FFFFFF0
1FFFFFF0
3FFFFFF0
3FF001F0
3FC00000
7F800000
7F800000
7F000000
7F000000
7F000000
FF000000
FF000000
FF000000
FF000000
FF007FF0
FF01FFF0
FF01FFF0
FF01FFF0
FF01FFF0
FF01FFF0
FF0007F0
FF0007F0
FF0007F0
7F0007F0
7F0007F0
7F0007F0
7F8007F0
7F800FF0
3FE07FF0
3FFFFFF0
3FFFFFF0
1FFFFFF0
0FFFFFF0
07FFFFF0
03FFE3F0
00FF81F0
ENDCHAR
STARTCHAR 011F
ENCODING 287
SWIDTH 568 0
DWIDTH 30 0
BBX 27 53 2 -15
BITMAP
01C0E000
01C1E000
01E3C000
00FFC000
007F8000
003E0000
00000000
00000000
00000000
03FFFFE0
0FFFFFE0
3FFFFFE0
3FFFFFE0
7FFFFFC0
7FFFFF00
FF80FF00
FF007F00
FF007F80
FE007F80
FE007F80
FF007F80
FF007F80
FF007F80
7F80FF00
7FFFFF00
7FFFFF00
3FFFFE00
1FFFFC00
7FFFF800
7FFFE000
FE000000
FE000000
FE000000
FFFFF800
FFFFFE00
FFFFFF00
7FFFFF00
3FFFFF80
3FFFFF80
7F007F80
7F003FC0
FF003FC0
FF003FC0
FF003FC0
FF003FC0
FF003FC0
FF007F80
FFFFFF80
7FFFFF80
7FFFFF00
3FFFFF00
1FFFFE00
07FFF000
ENDCHAR
STARTCHAR 0120
ENCODING 288
SWIDTH 606 0
DWIDTH 32 0
BBX 28 49 2 -1
BITMAP
000FC000
000FC000
000FC000
000FC000
000FC000
000FC000
00078000
00000000
00000000
00060000
01FFFF80
03FFFFF0
0FFFFFF0
0FFFFFF0
1FFFFFF0
3FFFFFF0
3FF001F0
3FC00000
7F800000
7F800000
7F000000
7F000000
7F000000
FF000000
FF000000
FF000000
FF000000
FF007FF0
FF01FFF0
FF01FFF0
FF01FFF0
FF01FFF0
FF01FFF0
FF0007F0
FF0007F0
FF0007F0
7F0007F0
7F0007F0
7F0007F0
7F8007F0
7F800FF0
3FE07FF0
3FFFFFF0
3FFFFFF0
1FFFFFF0
0FFFFFF0
07FFFFF0
03FFE3F0
00FF81F0
ENDCHAR
STARTCHAR 0121
ENCODING 289
SWIDTH 568 0
DWIDTH 30 0
BBX 27 54 2 -15
BITMAP
003F0000
003F0000
003F0000
003F0000
003F0000
003F0000
001E0000
00000000
00000000
00000000
03FFFFE0
0FFFFFE0
3FFFFFE0
3FFFFFE0
7FFFFFC0
7FFFFF00
FF80FF00
FF007F00
FF007F80
FE007F80
FE007F80
FF007F80
FF007F80
FF007F80
7F80FF00
7FFFFF00
7FFFFF00
3FFFFE00
1FFFFC00
7FFFF800
7FFFE000
FE000000
FE000000
FE000000
FFFFF800
FFFFFE00
FFFFFF00
7FFFFF00
3FFFFF80
3FFFFF80
7F007F80
7F003FC0
FF003FC0
FF003FC0
FF003FC0
FF003FC0
FF003FC0
FF007F80
FFFFFF80
7FFFFF80
7FFFFF00
3FFFFF00
1FFFFE00
07FFF000
ENDCHAR
STARTCHAR 0122
ENCODING 290
SWIDTH 606 0
DWIDTH 32 0
BBX 28 55 2 -17
BITMAP
00060000
01FFFF80
03FFFFF0
0FFFFFF0
0FFFFFF0
1FFFFFF0
3FFFFFF0
3FF001F0
3FC00000
7F800000
7F800000
7F000000
7F000000
7F000000
FF000000
FF000000
FF000000
FF000000
FF007FF0
FF01FFF0
FF01FFF0
FF01FFF0
FF01FFF0
FF01FFF0
FF0007F0
FF0007F0
FF0007F0
7F0007F0
7F0007F0
7F0007F0
7F8007F0
7F800FF0
3FE07FF0
3FFFFFF0
3FFFFFF0
1FFFFFF0
0FFFFFF0
07FFFFF0
03FFE3F0
00FF81F0
00000000
00000000
00000000
00000000
001FC000
001FC000
001FC000
001FC000
001FC000
001FC000
0007C000
0007C000
000F8000
000F8000
000E0000
ENDCHAR
STARTCHAR 0123
ENCODING 291
SWIDTH 568 0
DWIDTH 30 0
BBX 27 58 2 -13
BITMAP
001E0000
003E0000
003E0000
007C0000
007E0000
007F0000
007F0000
007F0000
007F0000
007F0000
003E0000
00000000
00000000
00000000
03FFFFE0
0FFFFFE0
1FFFFFE0
3FFFFFE0
7FFFFFC0
7FFFFF00
FF80FF00
FF007F00
FF007F80
FE007F80
FE007F80
FE007F80
FF007F80
FF007F80
7F80FF00
7FFFFF00
7FFFFF00
3FFFFE00
1FFFFC00
7FFFF800
FFFFE000
FE000000
FE000000
FE000000
FFFC0000
FFFFF000
FFFFFC00
7FFFFF00
3FFFFF00
3FFFFF80
7F3FFF80
FF00FF80
FF003F80
FF003FC0
FF003FC0
FF003FC0
FF003FC0
FF007F80
FFFFFF80
7FFFFF80
7FFFFF00
3FFFFF00
1FFFFE00
07FFF000
ENDCHAR
STARTCHAR 0124
ENCODING 292
SWIDTH 644 0
DWIDTH 34 0
BBX 28 52 3 -1
BITMAP
000F8000
001FC000
003FE000
007FE000
007FF000
00F9F800
01F0FC00
03E07C00
00000000
00000000
00000000
FF0007F0
FF0007F0
FF0007F0
FF0007F0
FF0007F0
FF0007F0
FF0007F0
FF0007F0
FF0007F0
FF0007F0
FF0007F0
FF0007F0
FF0007F0
FF0007F0
FF0007F0
FF0007F0
FF0007F0
FF0007F0
FFFFFFF0
FFFFFFF0
FFFFFFF0
FFFFFFF0
FFFFFFF0
FFFFFFF0
FFFFFFF0
FF0007F0
FF0007F0
FF0007F0
FF0007F0
FF0007F0
FF0007F0
FF0007F0
FF0007F0
FF0007F0
FF0007F0
FF0007F0
FF0007F0
FF0007F0
FF0007F0
FF0007F0
FF0007F0
ENDCHAR
STARTCHAR 0125
ENCODING 293
SWIDTH 549 0
DWIDTH 29 0
BBX 29 53 -4 -1
BITMAP
07F00000
0FF00000
1FF80000
1FFC0000
3E7C0000
7C3E0000
F81F0000
00000000
00000000
00000000
0FF00000
0FF00000
0FF00000
0FF00000
0FF00000
0FF00000
0FF00000
0FF00000
0FF00000
0FF00000
0FF00000
0FF00000
0FF00000
0FF07E00
0FF1FFC0
0FF7FFE0
0FFFFFE0
0FFFFFF0
0FFFFFF0
0FFE0FF0
0FF807F8
0FF007F8
0FF007F8
0FF007F8
0FF007F8
0FF007F8
0FF007F8
0FF007F8
0FF007F8
0FF007F8
0FF007F8
0FF007F8
0FF007F8
0FF007F8
0FF007F8
0FF007F8
0FF007F8
0FF007F8
0FF007F8
0FF007F8
0FF007F8
0FF007F8
0FF007F8
ENDCHAR
STARTCHAR 0126
ENCODING 294
SWIDTH 682 0
DWIDTH 36 0
BBX 34 41 1 -1
BITMAP
1FE000FE00
1FE000FE00
1FE000FE00
1FE000FE00
1FE000FE00
1FE000FE00
1FE000FE00
1FE000FE00
1FE000FE00
FFFFFFFFC0
FFFFFFFFC0
FFFFFFFFC0
1FE000FE00
1FE000FE00
1FE000FE00
1FE000FE00
1FE000FE00
1FE000FE00
1FFFFFFE00
1FFFFFFE00
1FFFFFFE00
1FFFFFFE00
1FFFFFFE00
1FFFFFFE00
1FFFFFFE00
1FE000FE00
1FE000FE00
1FE000FE00
1FE000FE00
1FE000FE00
1FE000FE00
1FE000FE00
1FE000FE00
1FE000FE00
1FE000FE00
1FE000FE00
1FE000FE00
1FE000FE00
1FE000FE00
1FE000FE00
1FE000FE00
ENDCHAR
STARTCHAR 0127
ENCODING 295
SWIDTH 568 0
DWIDTH 30 0
BBX 28 43 0 -1
BITMAP
1FE00000
1FE00000
1FE00000
1FE00000
1FE00000
1FE00000
1FE00000
FFFF8000
FFFF8000
FFFF8000
1FE00000
1FE00000
1FE00000
1FE07E00
1FE3FF80
1FEFFFC0
1FFFFFC0
1FFFFFE0
1FFFFFE0
1FFC1FF0
1FF00FF0
1FE00FF0
1FE00FF0
1FE00FF0
1FE00FF0
1FE00FF0
1FE00FF0
1FE00FF0
1FE00FF0
1FE00FF0
1FE00FF0
1FE00FF0
1FE00FF0
1FE00FF0
1FE00FF0
1FE00FF0
1FE00FF0
1FE00FF0
1FE00FF0
1FE00FF0
1FE00FF0
1FE00FF0
1FE00FF0
ENDCHAR
STARTCHAR 0128
ENCODING 296
SWIDTH 246 0
DWIDTH 13 0
BBX 18 51 -2 -1
BITMAP
0F0080
3FC380
7FFFC0
FFFFC0
FFFF80
60FE00
001800
000000
000000
000000
07F800
07F800
07F800
07F800
07F800
07F800
07F800
07F800
07F800
07F800
07F800
07F800
07F800
07F800
07F800
07F800
07F800
07F800
07F800
07F800
07F800
07F800
07F800
07F800
07F800
07F800
07F800
07F800
07F800
07F800
07F800
07F800
07F800
07F800
07F800
07F800
07F800
07F800
07F800
07F800
07F800
ENDCHAR
STARTCHAR 0129
ENCODING 297
SWIDTH 227 0
DWIDTH 12 0
BBX 18 40 -3 -1
BITMAP
0F0080
3FC3C0
7FFFC0
FFFFC0
FFFF80
607F00
001800
000000
000000
000000
07F800
07F800
07F800
07F800
07F800
07F800
07F800
07F800
07F800
07F800
07F800
07F800
07F800
07F800
07F800
07F800
07F800
07F800
07F800
07F800
07F800
07F800
07F800
07F800
07F800
07F800
07F800
07F800
07F800
07F800
ENDCHAR
STARTCHAR 012A
ENCODING 298
SWIDTH 246 0
DWIDTH 13 0
BBX 16 49 -1 -1
BITMAP
FFFF
FFFF
FFFF
FFFF
0000
0000
0000
0000
0FF0
0FF0
0FF0
0FF0
0FF0
0FF0
0FF0
0FF0
0FF0
0FF0
0FF0
0FF0
0FF0
0FF0
0FF0
0FF0
0FF0
0FF0
0FF0
0FF0
0FF0
0FF0
0FF0
0FF0
0FF0
0FF0
0FF0
0FF0
0FF0
0FF0
0FF0
0FF0
0FF0
0FF0
0FF0
0FF0
0FF0
0FF0
0FF0
0FF0
0FF0
ENDCHAR
STARTCHAR 012B
ENCODING 299
SWIDTH 227 0
DWIDTH 12 0
BBX 16 38 -2 -1
BITMAP
FFFF
FFFF
FFFF
FFFF
0000
0000
0000
0000
0FF0
0FF0
0FF0
0FF0
0FF0
0FF0
0FF0
0FF0
0FF0
0FF0
0FF0
0FF0
0FF0
0FF0
0FF0
0FF0
0FF0
0FF0
0FF0
0FF0
0FF0
0FF0
0FF0
0FF0
0FF0
0FF0
0FF0
0FF0
0FF0
0FF0
ENDCHAR
STARTCHAR 012E
ENCODING 302
SWIDTH 246 0
DWIDTH 13 0
BBX 9 50 2 -11
BITMAP
7F80
7F80
7F80
7F80
7F80
7F80
7F80
7F80
7F80
7F80
7F80
7F80
7F80
7F80
7F80
7F80
7F80
7F80
7F80
7F80
7F80
7F80
7F80
7F80
7F80
7F80
7F80
7F80
7F80
7F80
7F80
7F80
7F80
7F80
7F80
7F80
7F80
7F80
7F80
7F80
1C00
3800
7000
F000
F000
F800
FE00
7E00
3E00
1E00
ENDCHAR
STARTCHAR 012F
ENCODING 303
SWIDTH 227 0
DWIDTH 12 0
BBX 9 49 1 -11
BITMAP
7F80
7F80
7F80
7F80
7F80
7F80
7F80
0000
0000
0000
7F80
7F80
7F80
7F80
7F80
7F80
7F80
7F80
7F80
7F80
7F80
7F80
7F80
7F80
7F80
7F80
7F80
7F80
7F80
7F80
7F80
7F80
7F80
7F80
7F80
7F80
7F80
7F80
7F80
1C00
3800
7000
F000
F000
F800
FE00
7E00
3E00
1E00
ENDCHAR
STARTCHAR 0130
ENCODING 304
SWIDTH 246 0
DWIDTH 13 0
BBX 8 51 3 -1
BITMAP
7E
7E
7E
7E
7E
7E
3C
00
00
00
FF
FF
FF
FF
FF
FF
FF
FF
FF
FF
FF
FF
FF
FF
FF
FF
FF
FF
FF
FF
FF
FF
FF
FF
FF
FF
FF
FF
FF
FF
FF
FF
FF
FF
FF
FF
FF
FF
FF
FF
FF
ENDCHAR
STARTCHAR 0131
ENCODING 305
SWIDTH 227 0
DWIDTH 12 0
BBX 8 30 2 -1
BITMAP
FF
FF
FF
FF
FF
FF
FF
FF
FF
FF
FF
FF
FF
FF
FF
FF
FF
FF
FF
FF
FF
FF
FF
FF
FF
FF
FF
FF
FF
FF
ENDCHAR
STARTCHAR 0134
ENCODING 308
SWIDTH 360 0
DWIDTH 19 0
BBX 20 50 1 1
BITMAP
007E00
00FF00
00FF00
01FF80
03FFC0
07E7C0
0FC3E0
0F81F0
000000
000000
000000
00FE00
00FE00
00FE00
00FE00
00FE00
00FE00
00FE00
00FE00
00FE00
00FE00
00FE00
00FE00
00FE00
00FE00
00FE00
00FE00
00FE00
00FE00
00FE00
00FE00
00FE00
00FE00
00FE00
00FE00
00FE00
00FE00
00FE00
00FE00
00FE00
00FE00
01FE00
03FE00
FFFE00
FFFE00
FFFE00
FFFE00
FFFC00
7FF800
1FE000
ENDCHAR
STARTCHAR 0135
ENCODING 309
SWIDTH 246 0
DWIDTH 13 0
BBX 17 53 -2 -13
BITMAP
03F000
07F800
0FF800
1FFC00
1F7E00
3E3E00
7C1F00
F80F80
000000
000000
000000
07F000
07F000
07F000
07F000
07F000
07F000
07F000
07F000
07F000
07F000
07F000
07F000
07F000
07F000
07F000
07F000
07F000
07F000
07F000
07F000
07F000
07F000
07F000
07F000
07F000
07F000
07F000
07F000
07F000
07F000
07F000
07F000
07F000
07F000
07F000
07F000
07F000
07F000
07F000
07E000
07E000
07E000
ENDCHAR
STARTCHAR 0136
ENCODING 310
SWIDTH 625 0
DWIDTH 33 0
BBX 29 56 3 -17
BITMAP
FE000FF8
FE001FF0
FE001FE0
FE003FE0
FE003FC0
FE007FC0
FE007F80
FE00FF80
FE01FF00
FE01FE00
FE03FE00
FE03FC00
FE07FC00
FE07F800
FE0FF800
FE1FF000
FE1FE000
FFFFE000
FFFFC000
FFFFC000
FFFF8000
FFFF8000
FFFFC000
FFFFE000
FE1FE000
FE1FF000
FE0FF000
FE0FF800
FE07FC00
FE03FC00
FE03FE00
FE01FE00
FE01FF00
FE00FF00
FE00FF80
FE007FC0
FE003FC0
FE003FE0
FE001FE0
FE001FF0
FE000FF8
00000000
00000000
00000000
001F0000
003F8000
003F8000
003F8000
003F8000
003F8000
003F8000
000F8000
000F8000
001F0000
001F0000
00180000
ENDCHAR
STARTCHAR 0137
ENCODING 311
SWIDTH 549 0
DWIDTH 29 0
BBX 26 58 2 -17
BITMAP
FF000000
FF000000
FF000000
FF000000
FF000000
FF000000
FF000000
FF000000
FF000000
FF000000
FF000000
FF000000
FF000000
FF007FC0
FF00FF80
FF01FF80
FF01FF00
FF03FE00
FF07FC00
FF0FF800
FF1FF800
FF1FF000
FF3FE000
FFFFC000
FFFF8000
FFFF8000
FFFF0000
FFFF8000
FFFFC000
FF3FC000
FF3FE000
FF1FF000
FF1FF000
FF0FF800
FF07F800
FF07FC00
FF03FE00
FF03FE00
FF01FF00
FF00FF00
FF00FF80
FF007FC0
FF003FC0
00000000
00000000
00000000
003E0000
007F0000
007F0000
007F0000
007F0000
007F0000
007F0000
001F0000
001F0000
003E0000
003E0000
00300000
ENDCHAR
STARTCHAR 0138
ENCODING 312
SWIDTH 568 0
DWIDTH 30 0
BBX 27 30 2 -1
BITMAP
FF003FE0
FF007FC0
FF007FC0
FF00FF80
FF00FF00
FF01FF00
FF03FE00
FF03FC00
FF07FC00
FF0FF800
FF0FF000
FF1FF000
FFFFE000
FFFFC000
FFFFC000
FFFF8000
FFFFC000
FFFFE000
FF1FE000
FF1FF000
FF0FF000
FF0FF800
FF07FC00
FF03FC00
FF03FE00
FF01FE00
FF01FF00
FF00FF80
FF007F80
FF007FC0
ENDCHAR
STARTCHAR 0139
ENCODING 313
SWIDTH 530 0
DWIDTH 28 0
BBX 24 52 3 -1
BITMAP
03F000
07F000
07E000
0FC000
1F8000
1F0000
3E0000
3C0000
000000
000000
000000
FF0000
FF0000
FF0000
FF0000
FF0000
FF0000
FF0000
FF0000
FF0000
FF0000
FF0000
FF0000
FF0000
FF0000
FF0000
FF0000
FF0000
FF0000
FF0000
FF0000
FF0000
FF0000
FF0000
FF0000
FF0000
FF0000
FF0000
FF0000
FF0000
FF0000
FF0000
FF0000
FF0000
FF0000
FFFFFF
FFFFFF
7FFFFF
7FFFFF
3FFFFF
1FFFFF
07FFFF
ENDCHAR
STARTCHAR 013A
ENCODING 314
SWIDTH 322 0
DWIDTH 17 0
BBX 14 54 2 -1
BITMAP
01FC
01F8
03F0
07E0
07C0
0F80
1F00
1F00
0000
0000
0000
FF00
FF00
FF00
FF00
FF00
FF00
FF00
FF00
FF00
FF00
FF00
FF00
FF00
FF00
FF00
FF00
FF00
FF00
FF00
FF00
FF00
FF00
FF00
FF00
FF00
FF00
FF00
FF00
FF00
FF00
FF00
FF00
FF00
FF00
FF00
7F00
7F80
7FE0
7FFC
3FFC
3FFC
1FFC
07FC
ENDCHAR
STARTCHAR 013B
ENCODING 315
SWIDTH 530 0
DWIDTH 28 0
BBX 24 56 3 -17
BITMAP
FF0000
FF0000
FF0000
FF0000
FF0000
FF0000
FF0000
FF0000
FF0000
FF0000
FF0000
FF0000
FF0000
FF0000
FF0000
FF0000
FF0000
FF0000
FF0000
FF0000
FF0000
FF0000
FF0000
FF0000
FF0000
FF0000
FF0000
FF0000
FF0000
FF0000
FF0000
FF0000
FF0000
FF0000
FFFFFF
FFFFFF
7FFFFF
7FFFFF
3FFFFF
1FFFFF
07FFFF
000000
000000
000000
000000
007F00
007F00
007F00
007F00
007F00
007F00
001F00
001F00
003E00
003E00
003800
ENDCHAR
STARTCHAR 013C
ENCODING 316
SWIDTH 322 0
DWIDTH 17 0
BBX 14 58 2 -17
BITMAP
FF00
FF00
FF00
FF00
FF00
FF00
FF00
FF00
FF00
FF00
FF00
FF00
FF00
FF00
FF00
FF00
FF00
FF00
FF00
FF00
FF00
FF00
FF00
FF00
FF00
FF00
FF00
FF00
FF00
FF00
FF00
FF00
FF00
FF00
FF00
7F00
7F80
7FE0
7FFC
3FFC
3FFC
1FFC
07FC
0000
0000
0000
0000
0FC0
0FC0
0FC0
0FC0
0FC0
0FC0
03C0
07C0
0FC0
0F80
0600
ENDCHAR
STARTCHAR 013D
ENCODING 317
SWIDTH 530 0
DWIDTH 28 0
BBX 24 43 3 -1
BITMAP
001F00
001F00
FF1F00
FF1F00
FF1F00
FF1F00
FF1F00
FF1F00
FF1F00
FF1F00
FF1E00
FF0000
FF0000
FF0000
FF0000
FF0000
FF0000
FF0000
FF0000
FF0000
FF0000
FF0000
FF0000
FF0000
FF0000
FF0000
FF0000
FF0000
FF0000
FF0000
FF0000
FF0000
FF0000
FF0000
FF0000
FF0000
FFFFFF
FFFFFF
7FFFFF
7FFFFF
3FFFFF
1FFFFF
07FFFF
ENDCHAR
STARTCHAR 013E
ENCODING 318
SWIDTH 360 0
DWIDTH 19 0
BBX 16 43 2 -1
BITMAP
FF1F
FF1F
FF1F
FF1F
FF1F
FF1F
FF1F
FF0F
FF0F
FF0F
FF0F
FF00
FF00
FF00
FF00
FF00
FF00
FF00
FF00
FF00
FF00
FF00
FF00
FF00
FF00
FF00
FF00
FF00
FF00
FF00
FF00
FF00
FF00
FF00
FF00
7F00
7F80
7FE0
7FFC
7FFC
3FFC
1FFC
07FC
ENDCHAR
STARTCHAR 0141
ENCODING 321
SWIDTH 568 0
DWIDTH 30 0
BBX 28 41 1 -1
BITMAP
0FE00000
0FE00000
0FE00000
0FE00000
0FE00000
0FE00000
0FE00000
0FE00000
0FE00000
0FE00000
0FE00000
0FE00000
0FE08000
0FE38000
0FEF8000
0FFF8000
0FFF0000
0FFC0000
1FF00000
7FE00000
FFE00000
FFE00000
FFE00000
8FE00000
0FE00000
0FE00000
0FE00000
0FE00000
0FE00000
0FE00000
0FE00000
0FE00000
0FE00000
0FF00000
0FFFFFF0
0FFFFFF0
0FFFFFF0
07FFFFF0
07FFFFF0
03FFFFF0
00FFFFF0
ENDCHAR
STARTCHAR 0142
ENCODING 322
SWIDTH 360 0
DWIDTH 19 0
BBX 17 43 1 -1
BITMAP
0FE000
0FE000
0FE000
0FE000
0FE000
0FE000
0FE000
0FE000
0FE000
0FE000
0FE000
0FE000
0FE080
0FE380
0FEF80
0FFF80
0FFF00
0FFC00
1FF000
FFE000
FFE000
FFE000
EFE000
0FE000
0FE000
0FE000
0FE000
0FE000
0FE000
0FE000
0FE000
0FE000
0FE000
0FE000
0FE000
0FE000
0FF000
0FFC00
0FFF80
07FF80
07FF80
03FF80
00FF80
ENDCHAR
STARTCHAR 0143
ENCODING 323
SWIDTH 682 0
DWIDTH 36 0
BBX 30 52 3 -1
BITMAP
00003F00
00007E00
0000FC00
0000FC00
0001F800
0003F000
0003E000
0007C000
00000000
00000000
00000000
FF0001FC
FF8001FC
FF8001FC
FFC001FC
FFC001FC
FFE001FC
FFE001FC
FFF001FC
FFF801FC
FFF801FC
FFFC01FC
FFFC01FC
FFFE01FC
FFFF01FC
FFFF01FC
FFFF81FC
FF7F81FC
FF7FC1FC
FF3FC1FC
FF3FE1FC
FF1FF1FC
FF0FF1FC
FF0FF9FC
FF07F9FC
FF07FDFC
FF03FDFC
FF03FFFC
FF01FFFC
FF00FFFC
FF00FFFC
FF007FFC
FF007FFC
FF003FFC
FF001FFC
FF001FFC
FF000FFC
FF000FFC
FF0007FC
FF0003FC
FF0003FC
FF0001FC
ENDCHAR
STARTCHAR 0144
ENCODING 324
SWIDTH 549 0
DWIDTH 29 0
BBX 25 40 2 -1
BITMAP
0001F800
0003F000
0007E000
0007C000
000FC000
001F8000
001F0000
00000000
00000000
00000000
FE07F000
FE1FFC00
FE7FFE00
FFFFFF00
FFFFFF00
FFFFFF00
FFE0FF80
FF807F80
FF003F80
FF003F80
FF003F80
FF003F80
FF003F80
FF003F80
FF003F80
FF003F80
FF003F80
FF003F80
FF003F80
FF003F80
FF003F80
FF003F80
FF003F80
FF003F80
FF003F80
FF003F80
FF003F80
FF003F80
FF003F80
FF003F80
ENDCHAR
STARTCHAR 0145
ENCODING 325
SWIDTH 682 0
DWIDTH 36 0
BBX 30 56 3 -17
BITMAP
FF0001FC
FF8001FC
FF8001FC
FFC001FC
FFC001FC
FFE001FC
FFE001FC
FFF001FC
FFF801FC
FFF801FC
FFFC01FC
FFFC01FC
FFFE01FC
FFFF01FC
FFFF01FC
FFFF81FC
FF7F81FC
FF7FC1FC
FF3FC1FC
FF3FE1FC
FF1FF1FC
FF0FF1FC
FF0FF9FC
FF07F9FC
FF07FDFC
FF03FDFC
FF03FFFC
FF01FFFC
FF00FFFC
FF00FFFC
FF007FFC
FF007FFC
FF003FFC
FF001FFC
FF001FFC
FF000FFC
FF000FFC
FF0007FC
FF0003FC
FF0003FC
FF0001FC
00000000
00000000
00000000
000FC000
000FC000
000FC000
000FC000
000FC000
000FC000
000FC000
0003C000
0003C000
000FC000
000F8000
00060000
ENDCHAR
STARTCHAR 0146
ENCODING 326
SWIDTH 549 0
DWIDTH 29 0
BBX 25 45 2 -17
BITMAP
FE07F000
FE1FFC00
FE7FFE00
FFFFFF00
FFFFFF00
FFFFFF00
FFE0FF80
FF807F80
FF003F80
FF003F80
FF003F80
FF003F80
FF003F80
FF003F80
FF003F80
FF003F80
FF003F80
FF003F80
FF003F80
FF003F80
FF003F80
FF003F80
FF003F80
FF003F80
FF003F80
FF003F80
FF003F80
FF003F80
FF003F80
FF003F80
00000000
00000000
00000000
00000000
007F0000
007F0000
007F0000
007F0000
007F0000
007F0000
001F0000
001F0000
003E0000
003E0000
00380000
ENDCHAR
STARTCHAR 0147
ENCODING 327
SWIDTH 682 0
DWIDTH 36 0
BBX 30 52 3 -1
BITMAP
01F01F00
00F83E00
007E7C00
003FF800
003FF800
001FF000
000FE000
0007C000
00000000
00000000
00000000
FF0001FC
FF8001FC
FF8001FC
FFC001FC
FFC001FC
FFE001FC
FFE001FC
FFF001FC
FFF801FC
FFF801FC
FFFC01FC
FFFC01FC
FFFE01FC
FFFF01FC
FFFF01FC
FFFF81FC
FF7F81FC
FF7FC1FC
FF3FC1FC
FF3FE1FC
FF1FF1FC
FF0FF1FC
FF0FF9FC
FF07F9FC
FF07FDFC
FF03FDFC
FF03FFFC
FF01FFFC
FF00FFFC
FF00FFFC
FF007FFC
FF007FFC
FF003FFC
FF001FFC
FF001FFC
FF000FFC
FF000FFC
FF0007FC
FF0003FC
FF0003FC
FF0001FC
ENDCHAR
STARTCHAR 0148
ENCODING 328
SWIDTH 549 0
DWIDTH 29 0
BBX 25 41 2 -1
BITMAP
07C0F800
03E1F000
01F3E000
01FFE000
00FFC000
007F8000
003F0000
00000000
00000000
00000000
00000000
FE07F000
FE1FFC00
FE7FFE00
FFFFFF00
FFFFFF00
FFFFFF00
FFE0FF80
FF807F80
FF003F80
FF003F80
FF003F80
FF003F80
FF003F80
FF003F80
FF003F80
FF003F80
FF003F80
FF003F80
FF003F80
FF003F80
FF003F80
FF003F80
FF003F80
FF003F80
FF003F80
FF003F80
FF003F80
FF003F80
FF003F80
FF003F80
ENDCHAR
STARTCHAR 014A
ENCODING 330
SWIDTH 682 0
DWIDTH 36 0
BBX 30 54 3 -15
BITMAP
FF0001FC
FF8001FC
FF8001FC
FFC001FC
FFC001FC
FFE001FC
FFE001FC
FFF001FC
FFF801FC
FFF801FC
FFFC01FC
FFFC01FC
FFFE01FC
FFFF01FC
FFFF01FC
FFFF81FC
FF7F81FC
FF7FC1FC
FF3FC1FC
FF3FE1FC
FF1FF1FC
FF0FF1FC
FF0FF9FC
FF07F9FC
FF07FDFC
FF03FFFC
FF03FFFC
FF01FFFC
FF00FFFC
FF00FFFC
FF007FFC
FF007FFC
FF003FFC
FF001FFC
FF001FFC
FF000FFC
FF000FFC
FF0007FC
FF0007FC
FF0003FC
FF0001FC
000001FC
000001FC
000001FC
000001FC
000001FC
000001FC
000003FC
00000FFC
00007FF8
00007FF8
00007FF0
00007FE0
00007F80
ENDCHAR
STARTCHAR 014B
ENCODING 331
SWIDTH 549 0
DWIDTH 29 0
BBX 25 44 2 -15
BITMAP
FE07F000
FE1FFC00
FE7FFE00
FFFFFF00
FFFFFF00
FFFFFF00
FFE0FF80
FF807F80
FF003F80
FF003F80
FF003F80
FF003F80
FF003F80
FF003F80
FF003F80
FF003F80
FF003F80
FF003F80
FF003F80
FF003F80
FF003F80
FF003F80
FF003F80
FF003F80
FF003F80
FF003F80
FF003F80
FF003F80
FF003F80
FF003F80
00003F80
00003F80
00003F80
00003F80
00003F80
00007F80
00007F80
00007F00
0000FF00
0003FE00
0007FE00
0007FC00
0003F000
0003C000
ENDCHAR
STARTCHAR 014C
ENCODING 332
SWIDTH 663 0
DWIDTH 35 0
BBX 31 48 3 -1
BITMAP
01FFFE00
01FFFE00
01FFFE00
01FFFE00
00000000
00000000
00000000
007FF800
03FFFF00
07FFFF80
0FFFFFE0
1FFFFFE0
3FFFFFF0
3FFFFFF0
7FE00FF8
7F8007F8
7F8003FC
7F0003FC
FF0003FC
FF0001FC
FE0001FC
FE0001FC
FE0001FC
FE0001FE
FE0001FE
FE0001FE
FE0001FE
FE0001FE
FE0001FE
FE0001FE
FE0001FE
FE0001FE
FE0001FC
FE0001FC
FE0001FC
FE0001FC
FF0003FC
FF0003FC
7F0003FC
7F8007F8
7FE01FF8
3FFFFFF8
3FFFFFF0
1FFFFFE0
1FFFFFE0
07FFFFC0
03FFFF00
007FF800
ENDCHAR
STARTCHAR 014D
ENCODING 333
SWIDTH 568 0
DWIDTH 30 0
BBX 26 37 2 -1
BITMAP
07FFF000
07FFF000
07FFF000
07FFF000
00000000
00000000
00000000
00FFC000
07FFF800
1FFFFC00
1FFFFE00
3FFFFF00
7FFFFF00
7FC0FF80
7F007F80
7F003F80
FF003F80
FF003F80
FE003F80
FE003F80
FE003FC0
FE003FC0
FE003FC0
FE003FC0
FE003F80
FE003F80
FF003F80
FF003F80
FF003F80
7F807F80
7FC0FF80
7FFFFF00
3FFFFF00
1FFFFE00
1FFFFC00
07FFF800
00FFC000
ENDCHAR
STARTCHAR 0150
ENCODING 336
SWIDTH 663 0
DWIDTH 35 0
BBX 31 52 3 -1
BITMAP
0007F3F0
0007E7E0
000FCFC0
001F8FC0
001F1F80
003F3F00
003E3E00
007C7C00
00000000
00000000
00000000
007FF800
03FFFF00
07FFFF80
0FFFFFE0
1FFFFFE0
3FFFFFF0
3FFFFFF0
7FE00FF8
7F8007F8
7F8003FC
7F0003FC
FF0003FC
FF0001FC
FE0001FC
FE0001FC
FE0001FC
FE0001FE
FE0001FE
FE0001FE
FE0001FE
FE0001FE
FE0001FE
FE0001FE
FE0001FE
FE0001FE
FE0001FC
FE0001FC
FE0001FC
FE0001FC
FF0003FC
FF0003FC
7F0003FC
7F8007F8
7FE01FF8
3FFFFFF8
3FFFFFF0
1FFFFFE0
1FFFFFE0
07FFFFC0
03FFFF00
007FF800
ENDCHAR
STARTCHAR 0151
ENCODING 337
SWIDTH 568 0
DWIDTH 30 0
BBX 26 41 2 -1
BITMAP
001F9F80
003F3F80
007E3F00
007E7E00
00FCFC00
00F8F800
01F1F000
03E1E000
00000000
00000000
00000000
00FFC000
07FFF800
1FFFFC00
1FFFFE00
3FFFFF00
7FFFFF00
7FC0FF80
7F007F80
7F003F80
FF003F80
FF003F80
FE003F80
FE003F80
FE003FC0
FE003FC0
FE003FC0
FE003FC0
FE003F80
FE003F80
FF003F80
FF003F80
FF003F80
7F807F80
7FC0FF80
7FFFFF00
3FFFFF00
1FFFFE00
1FFFFC00
07FFF800
00FFC000
ENDCHAR
STARTCHAR 0152
ENCODING 338
SWIDTH 1004 0
DWIDTH 53 0
BBX 48 41 3 -1
BITMAP
007FF80FFFE0
03FFFF3FFFFF
07FFFFFFFFFF
0FFFFFFFFFFF
1FFFFFFFFFFF
3FFFFFFFFFFF
3FFFFFFFFFFF
7FE00FFE0000
7F8007FE0000
7F8003FE0000
7F0003FE0000
FF0003FE0000
FF0001FE0000
FE0001FE0000
FE0001FE0000
FE0001FE0000
FE0001FE0000
FE0001FFFE00
FE0001FFFFFC
FE0001FFFFFC
FE0001FFFFFC
FE0001FFFFFC
FE0001FFFFFC
FE0001FFFFFC
FE0001FE0000
FE0001FE0000
FE0001FE0000
FE0001FE0000
FE0001FE0000
FF0003FE0000
FF0003FE0000
7F0003FE0000
7F8007FE0000
7FE01FFF0000
7FFFFFFFFFFF
3FFFFFFFFFFF
1FFFFFFFFFFF
1FFFFFFFFFFF
0FFFFFFFFFFF
03FFFF3FFFFF
007FF80FFFE0
ENDCHAR
STARTCHAR 0153
ENCODING 339
SWIDTH 871 0
DWIDTH 46 0
BBX 42 30 2 -1
BITMAP
00FFC07FF000
07FFF1FFFE00
1FFFFFFFFF00
1FFFFFFFFF80
3FFFFFFFFF80
7FFFFFFFFFC0
7FC0FFE03FC0
7F007FC01FC0
7F003FC01FC0
FF003FC01FC0
FF003FC01FC0
FE003FC01FC0
FE003FC03FC0
FE003FFFFFC0
FE003FFFFFC0
FE003FFFFF80
FE003FFFFF00
FE003FFFFC00
FE003FC00000
FF003FC00000
FF003FC00000
FF003FC00000
7F807FC00000
7FC0FFF00040
7FFFFFFFFFC0
3FFFFFFFFFC0
1FFFFFFFFFC0
1FFFFFFFFFC0
07FFF3FFFFC0
00FFC0FFF800
ENDCHAR
STARTCHAR 0154
ENCODING 340
SWIDTH 606 0
DWIDTH 32 0
BBX 28 52 3 -1
BITMAP
0001FC00
0001F800
0003F000
0007E000
0007C000
000F8000
001F8000
001F0000
00000000
00000000
00000000
FFFFF000
FFFFFE00
FFFFFF00
FFFFFF80
FFFFFF80
FFFFFFC0
FFFFFFC0
FE003FE0
FE001FE0
FE001FE0
FE000FE0
FE000FE0
FE000FE0
FE000FE0
FE000FE0
FE001FE0
FE001FE0
FE003FE0
FFFFFFC0
FFFFFFC0
FFFFFFC0
FFFFFF80
FFFFFF00
FFFFFE00
FE1FF800
FE03FC00
FE03FC00
FE01FC00
FE01FE00
FE01FE00
FE00FF00
FE00FF00
FE007F80
FE007F80
FE007F80
FE003FC0
FE003FC0
FE001FE0
FE001FE0
FE001FF0
FE000FF0
ENDCHAR
STARTCHAR 0155
ENCODING 341
SWIDTH 416 0
DWIDTH 22 0
BBX 19 41 2 -1
BITMAP
000FE0
000FC0
001F80
003F00
003E00
007C00
00FC00
00F800
000000
000000
000000
FE07E0
FE1FE0
FE7FE0
FFFFE0
FFFFE0
FFFFE0
FFFFE0
FFF800
FFC000
FF8000
FF0000
FF0000
FF0000
FF0000
FF0000
FF0000
FF0000
FF0000
FF0000
FF0000
FF0000
FF0000
FF0000
FF0000
FF0000
FF0000
FF0000
FF0000
FF0000
FF0000
ENDCHAR
STARTCHAR 0156
ENCODING 342
SWIDTH 606 0
DWIDTH 32 0
BBX 28 56 3 -17
BITMAP
FFFFF000
FFFFFE00
FFFFFF00
FFFFFF80
FFFFFF80
FFFFFFC0
FFFFFFC0
FE003FE0
FE001FE0
FE001FE0
FE000FE0
FE000FE0
FE000FE0
FE000FE0
FE000FE0
FE001FE0
FE001FE0
FE003FE0
FFFFFFC0
FFFFFFC0
FFFFFFC0
FFFFFF80
FFFFFF00
FFFFFE00
FE1FF800
FE03FC00
FE03FC00
FE01FC00
FE01FE00
FE01FE00
FE00FF00
FE00FF00
FE007F80
FE007F80
FE007F80
FE003FC0
FE003FC0
FE001FE0
FE001FE0
FE001FF0
FE000FF0
00000000
00000000
00000000
003F0000
003F0000
003F0000
003F0000
003F0000
003F0000
003F0000
001F0000
001F0000
003F0000
003E0000
00180000
ENDCHAR
STARTCHAR 0157
ENCODING 343
SWIDTH 416 0
DWIDTH 22 0
BBX 19 45 2 -17
BITMAP
FC07E0
FE3FE0
FE7FE0
FEFFE0
FFFFE0
FFFFE0
FFFFE0
FFF820
FFC000
FF8000
FF0000
FF0000
FF0000
FF0000
FF0000
FF0000
FF0000
FF0000
FF0000
FF0000
FF0000
FF0000
FF0000
FF0000
FF0000
FF0000
FF0000
FF0000
FF0000
FF0000
000000
000000
000000
7C0000
7E0000
7E0000
7E0000
7E0000
7E0000
7E0000
3E0000
3E0000
7E0000
7C0000
300000
ENDCHAR
STARTCHAR 0158
ENCODING 344
SWIDTH 606 0
DWIDTH 32 0
BBX 28 52 3 -1
BITMAP
07C0F800
03E1F000
01F3F000
01FFE000
00FFC000
007F8000
003F8000
003F0000
00000000
00000000
00000000
FFFFF000
FFFFFE00
FFFFFF00
FFFFFF80
FFFFFF80
FFFFFFC0
FFFFFFC0
FE003FE0
FE001FE0
FE001FE0
FE000FE0
FE000FE0
FE000FE0
FE000FE0
FE000FE0
FE001FE0
FE001FE0
FE003FE0
FFFFFFC0
FFFFFFC0
FFFFFFC0
FFFFFF80
FFFFFF00
FFFFFE00
FE1FF800
FE03FC00
FE03FC00
FE01FC00
FE01FE00
FE01FE00
FE00FF00
FE00FF00
FE007F80
FE007F80
FE007F80
FE003FC0
FE003FC0
FE001FE0
FE001FE0
FE001FF0
FE000FF0
ENDCHAR
STARTCHAR 0159
ENCODING 345
SWIDTH 416 0
DWIDTH 22 0
BBX 19 41 2 -1
BITMAP
3E0FC0
1F0F80
1F9F00
0FFE00
07FE00
07FC00
03F800
01F800
000000
000000
000000
FE07E0
FE1FE0
FE7FE0
FFFFE0
FFFFE0
FFFFE0
FFFFE0
FFF800
FFC000
FF8000
FF0000
FF0000
FF0000
FF0000
FF0000
FF0000
FF0000
FF0000
FF0000
FF0000
FF0000
FF0000
FF0000
FF0000
FF0000
FF0000
FF0000
FF0000
FF0000
FF0000
ENDCHAR
STARTCHAR 015A
ENCODING 346
SWIDTH 587 0
DWIDTH 31 0
BBX 26 51 3 0
BITMAP
0000FC00
0001F800
0003F000
0003E000
0007E000
000FC000
000F8000
001F0000
00000000
00000000
00000000
03FFE000
0FFFFF80
3FFFFF80
7FFFFF80
7FFFFF80
FFFFFF80
FFFFFF80
FF000000
FE000000
FE000000
FE000000
FE000000
FE000000
FE000000
FE000000
FF000000
FF800000
FFFFFC00
FFFFFE00
7FFFFF00
7FFFFF80
3FFFFF80
1FFFFFC0
03FFFFC0
00003FC0
00001FC0
00001FC0
00001FC0
00001FC0
00001FC0
00001FC0
00001FC0
00003FC0
7FFFFFC0
7FFFFFC0
7FFFFF80
7FFFFF80
7FFFFF00
7FFFFC00
03FFF000
ENDCHAR
STARTCHAR 015B
ENCODING 347
SWIDTH 511 0
DWIDTH 27 0
BBX 23 41 2 -1
BITMAP
0003F0
0007E0
000FC0
000F80
001F80
003F00
003E00
007C00
000000
000000
000000
0FFFC0
3FFFFC
7FFFFC
FFFFFC
FFFFFC
FFFFFC
FF0000
FE0000
FE0000
FE0000
FE0000
FE0000
FFFFE0
FFFFF8
FFFFFC
7FFFFC
7FFFFE
1FFFFE
0001FE
0000FE
0000FE
0000FE
0000FE
0001FE
7FFFFE
7FFFFE
7FFFFC
7FFFFC
7FFFF8
03FFE0
ENDCHAR
STARTCHAR 015C
ENCODING 348
SWIDTH 587 0
DWIDTH 31 0
BBX 26 50 3 0
BITMAP
003F8000
007FC000
007FC000
00FFE000
01FBF000
03F1F800
07E0F800
00000000
00000000
00000000
03FFE000
0FFFFF80
3FFFFF80
7FFFFF80
7FFFFF80
FFFFFF80
FFFFFF80
FF000000
FE000000
FE000000
FE000000
FE000000
FE000000
FE000000
FE000000
FF000000
FF800000
FFFFFC00
FFFFFE00
7FFFFF00
7FFFFF80
3FFFFF80
1FFFFFC0
03FFFFC0
00003FC0
00001FC0
00001FC0
00001FC0
00001FC0
00001FC0
00001FC0
00001FC0
00003FC0
7FFFFFC0
7FFFFFC0
7FFFFF80
7FFFFF80
7FFFFF00
7FFFFC00
03FFF000
ENDCHAR
STARTCHAR 015D
ENCODING 349
SWIDTH 511 0
DWIDTH 27 0
BBX 23 41 2 -1
BITMAP
007E00
00FF00
01FF00
03FF80
03EFC0
07C7C0
0F83E0
1F01E0
000000
000000
000000
0FFFC0
3FFFFC
7FFFFC
FFFFFC
FFFFFC
FFFFFC
FF0000
FE0000
FE0000
FE0000
FE0000
FE0000
FFFFE0
FFFFF8
FFFFFC
7FFFFC
7FFFFE
1FFFFE
0001FE
0000FE
0000FE
0000FE
0000FE
0001FE
7FFFFE
7FFFFE
7FFFFC
7FFFFC
7FFFF8
03FFE0
ENDCHAR
STARTCHAR 015E
ENCODING 350
SWIDTH 587 0
DWIDTH 31 0
BBX 26 49 3 -9
BITMAP
03FFE000
0FFFFF80
3FFFFF80
7FFFFF80
7FFFFF80
FFFFFF80
FFFFFF80
FF000000
FE000000
FE000000
FE000000
FE000000
FE000000
FE000000
FE000000
FF000000
FF800000
FFFFFC00
FFFFFE00
7FFFFF00
7FFFFF80
3FFFFF80
1FFFFFC0
03FFFFC0
00003FC0
00001FC0
00001FC0
00001FC0
00001FC0
00001FC0
00001FC0
00001FC0
00003FC0
7FFFFFC0
7FFFFFC0
7FFFFF80
7FFFFF80
7FFFFF00
7FFFFC00
03FFF000
00000000
00000000
001F0000
001F0000
001F0000
007F0000
01FF0000
01FE0000
01FC0000
ENDCHAR
STARTCHAR 015F
ENCODING 351
SWIDTH 511 0
DWIDTH 27 0
BBX 23 39 2 -10
BITMAP
0FFFC0
3FFFFC
7FFFFC
FFFFFC
FFFFFC
FFFFFC
FF0000
FE0000
FE0000
FE0000
FE0000
FE0000
FFFFE0
FFFFF8
FFFFFC
7FFFFC
7FFFFE
1FFFFE
0001FE
0000FE
0000FE
0000FE
0000FE
0001FE
7FFFFE
7FFFFE
7FFFFC
7FFFFC
7FFFF8
03FFE0
000000
000000
03E000
03E000
03E000
0FE000
3FE000
3FC000
3F8000
ENDCHAR
STARTCHAR 0160
ENCODING 352
SWIDTH 587 0
DWIDTH 31 0
BBX 26 50 3 0
BITMAP
03E0F800
01F1F000
01FBE000
00FFE000
007FC000
003F8000
003F0000
00000000
00000000
00000000
03FFE000
0FFFFF80
3FFFFF80
7FFFFF80
7FFFFF80
FFFFFF80
FFFFFF80
FF000000
FE000000
FE000000
FE000000
FE000000
FE000000
FE000000
FE000000
FF000000
FF800000
FFFFFC00
FFFFFE00
7FFFFF00
7FFFFF80
3FFFFF80
1FFFFFC0
03FFFFC0
00003FC0
00001FC0
00001FC0
00001FC0
00001FC0
00001FC0
00001FC0
00001FC0
00003FC0
7FFFFFC0
7FFFFFC0
7FFFFF80
7FFFFF80
7FFFFF00
7FFFFC00
03FFF000
ENDCHAR
STARTCHAR 0161
ENCODING 353
SWIDTH 511 0
DWIDTH 27 0
BBX 23 41 2 -1
BITMAP
0F83F0
07C3E0
07E7C0
03FF80
01FF80
01FF00
00FE00
007E00
000000
000000
000000
0FFFC0
3FFFFC
7FFFFC
FFFFFC
FFFFFC
FFFFFC
FF0000
FE0000
FE0000
FE0000
FE0000
FE0000
FFFFE0
FFFFF8
FFFFFC
7FFFFC
7FFFFE
1FFFFE
0001FE
0000FE
0000FE
0000FE
0000FE
0001FE
7FFFFE
7FFFFE
7FFFFC
7FFFFC
7FFFF8
03FFE0
ENDCHAR
STARTCHAR 0162
ENCODING 354
SWIDTH 587 0
DWIDTH 31 0
BBX 28 48 2 -8
BITMAP
FFFFFFF0
FFFFFFF0
FFFFFFF0
FFFFFFF0
FFFFFFF0
FFFFFFF0
FFFFFFF0
003F8000
003F8000
003F8000
003F8000
003F8000
003F8000
003F8000
003F8000
003F8000
003F8000
003F8000
003F8000
003F8000
003F8000
003F8000
003F8000
003F8000
003F8000
003F8000
003F8000
003F8000
003F8000
003F8000
003F8000
003F8000
003F8000
003F8000
003F8000
003F8000
003F8000
003F8000
003F8000
003F8000
003F8000
01F00000
01F00000
03F00000
07F00000
1FE00000
1FE00000
1FC00000
ENDCHAR
STARTCHAR 0163
ENCODING 355
SWIDTH 378 0
DWIDTH 20 0
BBX 18 48 1 -11
BITMAP
07F000
07F000
07F000
07F000
07F000
07F000
07F000
0FF000
1FFFC0
FFFFC0
FFFFC0
FFFFC0
FFFFC0
FFFFC0
0FF000
0FF000
0FF000
0FF000
0FF000
0FF000
0FF000
0FF000
0FF000
0FF000
0FF000
0FF000
0FF000
0FF000
0FF000
0FF000
0FF000
07F800
07FE00
07FFC0
07FFC0
03FFC0
01FFC0
00FFC0
000000
000000
03E000
03E000
03E000
07E000
3FC000
3FC000
3F8000
3E0000
ENDCHAR
STARTCHAR 0164
ENCODING 356
SWIDTH 587 0
DWIDTH 31 0
BBX 28 52 2 -1
BITMAP
03E07C00
03F0F800
01F9F000
00FFF000
007FE000
007FC000
003F8000
001F8000
00000000
00000000
00000000
FFFFFFF0
FFFFFFF0
FFFFFFF0
FFFFFFF0
FFFFFFF0
FFFFFFF0
FFFFFFF0
003F8000
003F8000
003F8000
003F8000
003F8000
003F8000
003F8000
003F8000
003F8000
003F8000
003F8000
003F8000
003F8000
003F8000
003F8000
003F8000
003F8000
003F8000
003F8000
003F8000
003F8000
003F8000
003F8000
003F8000
003F8000
003F8000
003F8000
003F8000
003F8000
003F8000
003F8000
003F8000
003F8000
003F8000
ENDCHAR
STARTCHAR 0165
ENCODING 357
SWIDTH 416 0
DWIDTH 22 0
BBX 20 44 1 -1
BITMAP
0001F0
0001F0
0001F0
0001F0
0001F0
0001E0
07F1E0
07F1E0
07F1E0
07F1E0
07F000
07F000
07F000
0FF000
1FFFC0
FFFFC0
FFFFC0
FFFFC0
FFFFC0
FFFFC0
0FF000
0FF000
0FF000
0FF000
0FF000
0FF000
0FF000
0FF000
0FF000
0FF000
0FF000
0FF000
0FF000
0FF000
0FF000
0FF000
0FF000
07F800
07FE00
07FFC0
07FFC0
03FFC0
01FFC0
00FFC0
ENDCHAR
STARTCHAR 0166
ENCODING 358
SWIDTH 587 0
DWIDTH 31 0
BBX 29 41 1 -1
BITMAP
FFFFFFF8
FFFFFFF8
FFFFFFF8
FFFFFFF8
FFFFFFF8
FFFFFFF8
FFFFFFF8
001FC000
001FC000
001FC000
001FC000
001FC000
001FC000
001FC000
001FC000
001FC000
001FC000
07FFFE00
07FFFE00
07FFFE00
001FC000
001FC000
001FC000
001FC000
001FC000
001FC000
001FC000
001FC000
001FC000
001FC000
001FC000
001FC000
001FC000
001FC000
001FC000
001FC000
001FC000
001FC000
001FC000
001FC000
001FC000
ENDCHAR
STARTCHAR 0167
ENCODING 359
SWIDTH 378 0
DWIDTH 20 0
BBX 18 38 1 -1
BITMAP
07F000
07F000
07F000
07F000
07F000
07F000
07F000
0FF000
1FFFC0
FFFFC0
FFFFC0
FFFFC0
FFFFC0
FFFFC0
0FF000
0FF000
0FF000
0FF000
0FF000
0FF000
7FFF00
7FFF00
7FFF00
0FF000
0FF000
0FF000
0FF000
0FF000
0FF000
0FF000
0FF000
07F800
07FE00
07FF80
07FF80
03FF80
01FF80
00FF80
ENDCHAR
STARTCHAR 0168
ENCODING 360
SWIDTH 663 0
DWIDTH 35 0
BBX 30 51 3 -1
BITMAP
003C0200
00FF0E00
01FFFF00
03FFFF00
03FFFE00
0183F800
00007000
00000000
00000000
00000000
FF0003FC
FF0003FC
FF0003FC
FF0003FC
FF0003FC
FF0003FC
FF0003FC
FF0003FC
FF0003FC
FF0003FC
FF0003FC
FF0003FC
FF0003FC
FF0003FC
FF0003FC
FF0003FC
FF0003FC
FF0003FC
FF0003FC
FF0003FC
FF0003FC
FF0003FC
FF0003FC
FF0003FC
FF0003FC
FF0003FC
FF0003FC
FF0003FC
FF0003F8
7F0003F8
7F0007F8
7F8007F8
7FC00FF8
7FE01FF0
3FFFFFF0
3FFFFFE0
1FFFFFE0
1FFFFFC0
0FFFFF80
03FFFF00
00FFF800
ENDCHAR
STARTCHAR 0169
ENCODING 361
SWIDTH 549 0
DWIDTH 29 0
BBX 25 40 2 -1
BITMAP
01F01000
03FC7800
0FFFF800
1FFFF800
0FFFF000
0C0FE000
08030000
00000000
00000000
00000000
FE007F80
FE007F80
FE007F80
FE007F80
FE007F80
FE007F80
FE007F80
FE007F80
FE007F80
FE007F80
FE007F80
FE007F80
FE007F80
FE007F80
FE007F80
FE007F80
FE007F80
FE007F80
FE007F80
FE007F80
FE007F80
FF007F80
FF00FF80
FF83FF80
7FFFFF80
7FFFFF80
7FFFFF80
3FFF3F80
1FFC3F80
07F03F80
ENDCHAR
STARTCHAR 016A
ENCODING 362
SWIDTH 663 0
DWIDTH 35 0
BBX 30 49 3 -1
BITMAP
01FFFE00
01FFFE00
01FFFE00
01FFFE00
00000000
00000000
00000000
00000000
FF0003FC
FF0003FC
FF0003FC
FF0003FC
FF0003FC
FF0003FC
FF0003FC
FF0003FC
FF0003FC
FF0003FC
FF0003FC
FF0003FC
FF0003FC
FF0003FC
FF0003FC
FF0003FC
FF0003FC
FF0003FC
FF0003FC
FF0003FC
FF0003FC
FF0003FC
FF0003FC
FF0003FC
FF0003FC
FF0003FC
FF0003FC
FF0003FC
FF0003F8
7F0003F8
7F0007F8
7F8007F8
7FC00FF8
7FE01FF0
3FFFFFF0
3FFFFFE0
1FFFFFE0
1FFFFFC0
0FFFFF80
03FFFF00
00FFF800
ENDCHAR
STARTCHAR 016B
ENCODING 363
SWIDTH 549 0
DWIDTH 29 0
BBX 25 38 2 -1
BITMAP
07FFF000
07FFF000
07FFF000
07FFF000
00000000
00000000
00000000
00000000
FE007F80
FE007F80
FE007F80
FE007F80
FE007F80
FE007F80
FE007F80
FE007F80
FE007F80
FE007F80
FE007F80
FE007F80
FE007F80
FE007F80
FE007F80
FE007F80
FE007F80
FE007F80
FE007F80
FE007F80
FE007F80
FF007F80
FF00FF80
FF83FF80
7FFFFF80
7FFFFF80
7FFFFF80
3FFF3F80
1FFC3F80
07F03F80
ENDCHAR
STARTCHAR 016C
ENCODING 364
SWIDTH 663 0
DWIDTH 35 0
BBX 30 50 3 -1
BITMAP
00703800
00703800
00787800
003FF000
001FE000
000FC000
00000000
00000000
00000000
FF0003FC
FF0003FC
FF0003FC
FF0003FC
FF0003FC
FF0003FC
FF0003FC
FF0003FC
FF0003FC
FF0003FC
FF0003FC
FF0003FC
FF0003FC
FF0003FC
FF0003FC
FF0003FC
FF0003FC
FF0003FC
FF0003FC
FF0003FC
FF0003FC
FF0003FC
FF0003FC
FF0003FC
FF0003FC
FF0003FC
FF0003FC
FF0003FC
FF0003F8
7F0003F8
7F0007F8
7F8007F8
7FC00FF8
7FE01FF0
3FFFFFF0
3FFFFFE0
1FFFFFE0
1FFFFFC0
0FFFFF80
03FFFF00
00FFF800
ENDCHAR
STARTCHAR 016D
ENCODING 365
SWIDTH 549 0
DWIDTH 29 0
BBX 25 39 2 -1
BITMAP
03C1E000
01C1C000
01E3C000
01FFC000
00FF8000
003E0000
00000000
00000000
00000000
FE007F80
FE007F80
FE007F80
FE007F80
FE007F80
FE007F80
FE007F80
FE007F80
FE007F80
FE007F80
FE007F80
FE007F80
FE007F80
FE007F80
FE007F80
FE007F80
FE007F80
FE007F80
FE007F80
FE007F80
FE007F80
FF007F80
FF00FF80
FF83FF80
7FFFFF80
7FFFFF80
7FFFFF80
3FFF3F80
1FFC3F80
07F03F80
ENDCHAR
STARTCHAR 016E
ENCODING 366
SWIDTH 663 0
DWIDTH 35 0
BBX 30 55 3 -1
BITMAP
000FC000
001FE000
003FF000
003CF000
00387000
00387000
0038F000
003FF000
001FE000
000FC000
00000000
00000000
00000000
00000000
FF0003FC
FF0003FC
FF0003FC
FF0003FC
FF0003FC
FF0003FC
FF0003FC
FF0003FC
FF0003FC
FF0003FC
FF0003FC
FF0003FC
FF0003FC
FF0003FC
FF0003FC
FF0003FC
FF0003FC
FF0003FC
FF0003FC
FF0003FC
FF0003FC
FF0003FC
FF0003FC
FF0003FC
FF0003FC
FF0003FC
FF0003FC
FF0003FC
FF0003F8
7F0003F8
7F0007F8
7F8007F8
7FC00FF8
7FE01FF0
3FFFFFF0
3FFFFFE0
1FFFFFE0
1FFFFFC0
0FFFFF80
03FFFF00
00FFF800
ENDCHAR
STARTCHAR 016F
ENCODING 367
SWIDTH 549 0
DWIDTH 29 0
BBX 25 44 2 -1
BITMAP
003E0000
00FF0000
00FF8000
01E38000
01C3C000
01C3C000
01E38000
00FF8000
00FF0000
003E0000
00000000
00000000
00000000
00000000
FE007F80
FE007F80
FE007F80
FE007F80
FE007F80
FE007F80
FE007F80
FE007F80
FE007F80
FE007F80
FE007F80
FE007F80
FE007F80
FE007F80
FE007F80
FE007F80
FE007F80
FE007F80
FE007F80
FE007F80
FE007F80
FF007F80
FF00FF80
FF83FF80
7FFFFF80
7FFFFF80
7FFFFF80
3FFF3F80
1FFC3F80
07F03F80
ENDCHAR
STARTCHAR 0170
ENCODING 368
SWIDTH 663 0
DWIDTH 35 0
BBX 30 52 3 -1
BITMAP
0007E7F0
000FE7E0
000FCFC0
001F9F80
003F1F00
003E3E00
007C7C00
00F87C00
00000000
00000000
00000000
FF0003FC
FF0003FC
FF0003FC
FF0003FC
FF0003FC
FF0003FC
FF0003FC
FF0003FC
FF0003FC
FF0003FC
FF0003FC
FF0003FC
FF0003FC
FF0003FC
FF0003FC
FF0003FC
FF0003FC
FF0003FC
FF0003FC
FF0003FC
FF0003FC
FF0003FC
FF0003FC
FF0003FC
FF0003FC
FF0003FC
FF0003FC
FF0003FC
FF0003F8
7F0003F8
7F0007F8
7F8007F8
7FC00FF8
7FE01FF0
3FFFFFF0
3FFFFFE0
1FFFFFE0
1FFFFFC0
0FFFFF80
03FFFF00
00FFF800
ENDCHAR
STARTCHAR 0171
ENCODING 369
SWIDTH 549 0
DWIDTH 29 0
BBX 25 41 2 -1
BITMAP
003FBF80
003F3F00
007E7E00
00FC7C00
00F8F800
01F1F800
03E1F000
00000000
00000000
00000000
00000000
FE007F80
FE007F80
FE007F80
FE007F80
FE007F80
FE007F80
FE007F80
FE007F80
FE007F80
FE007F80
FE007F80
FE007F80
FE007F80
FE007F80
FE007F80
FE007F80
FE007F80
FE007F80
FE007F80
FE007F80
FE007F80
FF007F80
FF00FF80
FF83FF80
7FFFFF80
7FFFFF80
7FFFFF80
3FFF3F80
1FFC3F80
07F03F80
ENDCHAR
STARTCHAR 0172
ENCODING 370
SWIDTH 663 0
DWIDTH 35 0
BBX 30 51 3 -12
BITMAP
FF0003FC
FF0003FC
FF0003FC
FF0003FC
FF0003FC
FF0003FC
FF0003FC
FF0003FC
FF0003FC
FF0003FC
FF0003FC
FF0003FC
FF0003FC
FF0003FC
FF0003FC
FF0003FC
FF0003FC
FF0003FC
FF0003FC
FF0003FC
FF0003FC
FF0003FC
FF0003FC
FF0003FC
FF0003FC
FF0003FC
FF0003FC
FF0003FC
FF0003F8
7F0003F8
7F0007F8
7F8007F8
7FC00FF8
7FE01FF0
3FFFFFF0
3FFFFFE0
1FFFFFE0
1FFFFFC0
0FFFFF80
03FFFF00
00FFF800
000F0000
001E0000
001C0000
003C0000
003C0000
003E0000
003F8000
001F8000
001F8000
00078000
ENDCHAR
STARTCHAR 0173
ENCODING 371
SWIDTH 549 0
DWIDTH 29 0
BBX 25 40 2 -12
BITMAP
FE007F80
FE007F80
FE007F80
FE007F80
FE007F80
FE007F80
FE007F80
FE007F80
FE007F80
FE007F80
FE007F80
FE007F80
FE007F80
FE007F80
FE007F80
FE007F80
FE007F80
FE007F80
FE007F80
FE007F80
FE007F80
FF007F80
FF00FF80
FF83FF80
7FFFFF80
7FFFFF80
7FFFFF80
3FFF3F80
1FFC3F80
07F03F80
00001C00
00003C00
00007800
00007800
00007800
00007C00
00007F00
00007F00
00003F00
00000F00
ENDCHAR
STARTCHAR 0174
ENCODING 372
SWIDTH 985 0
DWIDTH 52 0
BBX 49 51 2 -1
BITMAP
000003F8000000
000007F8000000
00000FFC000000
00001FFE000000
00001F3F000000
00003E1F000000
00007C0F800000
00000000000000
00000000000000
00000000000000
FF0001FE007F80
FF0001FE007F80
FF0001FC007F80
7F8003FC007F00
7F8003FC007F00
7F8003FC00FF00
3F8003F800FF00
3FC007F800FE00
3FC007F800FE00
1FC007F801FE00
1FE007F001FE00
1FE007F801FC00
1FE00FF801FC00
0FE00FF803FC00
0FF00FFC03FC00
0FF00FFC03F800
07F01FFC03F800
07F81FFE03F800
07F81FFE07F800
03F81FFE07F000
03F83FFE07F000
03FC3FFF07F000
03FC3FFF0FF000
01FC3FFF0FE000
01FE3FFF8FE000
01FE7FFF8FE000
00FE7F3F9FE000
00FE7F3FDFC000
00FF7F3FDFC000
00FFFF1FDFC000
007FFE1FDFC000
007FFE1FFF8000
007FFE0FFF8000
003FFE0FFF8000
003FFC0FFF0000
003FFC07FF0000
001FFC07FF0000
001FF807FF0000
001FF807FE0000
001FF803FE0000
000FF803FE0000
ENDCHAR
STARTCHAR 0175
ENCODING 373
SWIDTH 833 0
DWIDTH 44 0
BBX 42 40 1 -1
BITMAP
00003F800000
00007FC00000
0000FFC00000
0000FFE00000
0001F3F00000
0003E1F80000
0007C0F80000
000000000000
000000000000
000000000000
FF003FC03FC0
FF003F803F80
7F003F807F80
7F807F807F80
7F807F807F00
7F807F00FF00
3F807F00FF00
3FC0FF00FF00
3FC0FF00FE00
1FC0FF01FE00
1FE0FF81FE00
1FE0FF81FC00
0FE1FF81FC00
0FE1FFC3FC00
0FF1FFC3F800
0FF1FFC3F800
07F3FFE3F800
07F3FFE7F800
07FBFFF7F000
03FBFFF7F000
03FFF7FFF000
03FFF7FFE000
03FFE3FFE000
01FFE3FFE000
01FFE3FFC000
01FFC1FFC000
00FFC1FFC000
00FFC0FFC000
00FFC0FF8000
007F80FF8000
ENDCHAR
STARTCHAR 0176
ENCODING 374
SWIDTH 663 0
DWIDTH 35 0
BBX 31 51 2 -1
BITMAP
000FE000
001FF000
001FF800
003FF800
007E7C00
00FC3E00
01F81F00
00000000
00000000
00000000
FF0001FE
FF0001FE
7F8001FE
7F8003FC
3FC003FC
3FC007F8
1FC007F8
1FE00FF0
0FE00FF0
0FE00FE0
0FF01FE0
07F01FE0
07F83FC0
03F83FC0
03F83F80
01FC7F80
01FC7F00
01FEFF00
00FEFE00
00FFFE00
007FFC00
007FFC00
003FFC00
003FF800
001FF800
001FF000
001FF000
000FE000
000FE000
000FE000
000FE000
000FE000
000FE000
000FE000
000FE000
000FE000
000FE000
000FE000
000FE000
000FE000
000FE000
ENDCHAR
STARTCHAR 0177
ENCODING 375
SWIDTH 587 0
DWIDTH 31 0
BBX 28 53 1 -13
BITMAP
001FC000
001FC000
003FE000
007FF000
00FDF000
00F8F800
01F07C00
00000000
00000000
00000000
00000000
FF0007F0
FF000FF0
FF000FF0
7F000FF0
7F800FE0
7F801FE0
3F801FE0
3F801FE0
3FC01FC0
3FC03FC0
1FC03FC0
1FC03FC0
1FE03F80
1FE07F80
0FE07F80
0FE07F00
0FF07F00
0FF0FF00
07F0FF00
07F0FE00
07F8FE00
07FDFE00
03FFFE00
03FFFC00
01FFFC00
00FFFC00
007FFC00
001FF800
0003F800
0007F800
0007F800
0007F000
000FF000
000FF000
000FE000
000FE000
001FE000
001FC000
001FC000
003F8000
003F0000
003F0000
ENDCHAR
STARTCHAR 0178
ENCODING 376
SWIDTH 663 0
DWIDTH 35 0
BBX 31 51 2 -1
BITMAP
01E00700
03F00F80
03F01F80
03F01FC0
03F00F80
01E00700
00000000
00000000
00000000
00000000
FF0001FE
FF0001FE
7F8001FE
7F8003FC
3FC003FC
3FC007F8
3FC007F8
1FE00FF0
1FE00FF0
0FE00FE0
0FF01FE0
07F01FE0
07F83FC0
07F83FC0
03F83F80
03FC7F80
01FC7F00
01FEFF00
01FEFE00
00FFFE00
00FFFC00
007FFC00
007FFC00
003FF800
003FF800
003FF000
001FF000
001FE000
000FE000
000FE000
000FE000
000FE000
000FE000
000FE000
000FE000
000FE000
000FE000
000FE000
000FE000
000FE000
000FE000
ENDCHAR
STARTCHAR 0179
ENCODING 377
SWIDTH 549 0
DWIDTH 29 0
BBX 27 52 1 -1
BITMAP
0000FC00
0001F800
0001F800
0003F000
0007E000
0007C000
000F8000
001F0000
00000000
00000000
00000000
FFFFFFE0
FFFFFFE0
FFFFFFE0
FFFFFFE0
FFFFFFE0
FFFFFFE0
FFFFFFE0
00003FE0
00007FC0
0000FF80
0000FF80
0001FF00
0003FF00
0003FE00
0007FC00
000FFC00
000FF800
001FF000
001FF000
003FE000
007FE000
007FC000
00FF8000
01FF8000
01FF0000
03FF0000
07FE0000
07FC0000
0FFC0000
1FF80000
1FF00000
3FF00000
3FE00000
7FE00000
FFFFFFE0
FFFFFFE0
FFFFFFE0
FFFFFFE0
FFFFFFE0
FFFFFFE0
FFFFFFE0
ENDCHAR
STARTCHAR 017A
ENCODING 378
SWIDTH 473 0
DWIDTH 25 0
BBX 23 40 1 0
BITMAP
0003F0
0007E0
000FC0
000F80
001F80
003F00
003E00
000000
000000
000000
000000
FFFFFE
FFFFFE
FFFFFE
FFFFFE
FFFFFE
FFFFFE
0007FE
0007FC
000FF8
001FF0
003FF0
003FE0
007FC0
00FFC0
01FF80
01FF00
03FE00
07FE00
0FFC00
0FF800
1FF000
3FF000
7FE000
7FFFFE
7FFFFE
7FFFFE
7FFFFE
7FFFFE
7FFFFE
ENDCHAR
STARTCHAR 017B
ENCODING 379
SWIDTH 549 0
DWIDTH 29 0
BBX 27 51 1 -1
BITMAP
001F8000
001F8000
001F8000
001F8000
001F8000
001F8000
000F0000
00000000
00000000
00000000
FFFFFFE0
FFFFFFE0
FFFFFFE0
FFFFFFE0
FFFFFFE0
FFFFFFE0
FFFFFFE0
00003FE0
00007FC0
0000FF80
0000FF80
0001FF00
0003FF00
0003FE00
0007FC00
000FFC00
000FF800
001FF000
001FF000
003FE000
007FE000
007FC000
00FF8000
01FF8000
01FF0000
03FF0000
07FE0000
07FC0000
0FFC0000
1FF80000
1FF00000
3FF00000
3FE00000
7FE00000
FFFFFFE0
FFFFFFE0
FFFFFFE0
FFFFFFE0
FFFFFFE0
FFFFFFE0
FFFFFFE0
ENDCHAR
STARTCHAR 017C
ENCODING 380
SWIDTH 473 0
DWIDTH 25 0
BBX 23 39 1 0
BITMAP
007C00
00FE00
00FE00
00FE00
00FE00
00FE00
003C00
000000
000000
000000
FFFFFE
FFFFFE
FFFFFE
FFFFFE
FFFFFE
FFFFFE
0007FE
0007FC
000FF8
001FF0
003FF0
003FE0
007FC0
00FFC0
01FF80
01FF00
03FE00
07FE00
0FFC00
0FF800
1FF000
3FF000
7FE000
7FFFFE
7FFFFE
7FFFFE
7FFFFE
7FFFFE
7FFFFE
ENDCHAR
STARTCHAR 017D
ENCODING 381
SWIDTH 549 0
DWIDTH 29 0
BBX 27 52 1 -1
BITMAP
03E07C00
03F0F800
01F9F000
00FFF000
007FE000
007FC000
003F8000
001F8000
00000000
00000000
00000000
FFFFFFE0
FFFFFFE0
FFFFFFE0
FFFFFFE0
FFFFFFE0
FFFFFFE0
FFFFFFE0
00003FE0
00007FC0
0000FF80
0000FF80
0001FF00
0003FF00
0003FE00
0007FC00
000FFC00
000FF800
001FF000
001FF000
003FE000
007FE000
007FC000
00FF8000
01FF8000
01FF0000
03FF0000
07FE0000
07FC0000
0FFC0000
1FF80000
1FF00000
3FF00000
3FE00000
7FE00000
FFFFFFE0
FFFFFFE0
FFFFFFE0
FFFFFFE0
FFFFFFE0
FFFFFFE0
FFFFFFE0
ENDCHAR
STARTCHAR 017E
ENCODING 382
SWIDTH 473 0
DWIDTH 25 0
BBX 23 40 1 0
BITMAP
0F83E0
0FC7E0
07EFC0
03FF80
01FF00
01FF00
00FE00
000000
000000
000000
000000
FFFFFE
FFFFFE
FFFFFE
FFFFFE
FFFFFE
FFFFFE
0007FE
0007FC
000FF8
001FF0
003FF0
003FE0
007FC0
00FFC0
01FF80
01FF00
03FE00
07FE00
0FFC00
0FF800
1FF000
3FF000
7FE000
7FFFFE
7FFFFE
7FFFFE
7FFFFE
7FFFFE
7FFFFE
ENDCHAR
STARTCHAR 0192
ENCODING 402
SWIDTH 587 0
DWIDTH 31 0
BBX 29 53 1 -11
BITMAP
000007F0
00001FF8
00003FF8
00007FF8
0000FFF8
0000FFF8
0001FF00
0001FE00
0003FC00
0003F800
0003F800
0007F800
0007F800
0007F000
0007F000
0007F000
00FFFFC0
00FFFFC0
00FFFFC0
01FFFFC0
01FFFF80
01FFFF80
001FE000
001FE000
001FE000
001FC000
001FC000
001FC000
001FC000
003FC000
003FC000
003FC000
003F8000
003F8000
003F8000
007F8000
007F8000
007F8000
007F0000
007F0000
007F0000
00FF0000
00FF0000
00FE0000
01FE0000
01FE0000
03FC0000
FFFC0000
FFF80000
FFF80000
FFF00000
FFE00000
1F800000
ENDCHAR
STARTCHAR 02C6
ENCODING 710
SWIDTH 378 0
DWIDTH 20 0
BBX 16 7 2 28
BITMAP
07F0
0FF0
0FF8
1FFC
3F7C
7E3E
F81F
ENDCHAR
STARTCHAR 02C7
ENCODING 711
SWIDTH 378 0
DWIDTH 20 0
BBX 16 7 2 28
BITMAP
FC1F
7E3E
3F7C
1FFC
0FF8
0FF0
07E0
ENDCHAR
STARTCHAR 02D8
ENCODING 728
SWIDTH 303 0
DWIDTH 16 0
BBX 12 6 2 28
BITMAP
E070
E070
F0F0
7FE0
3FC0
1F80
ENDCHAR
STARTCHAR 02D9
ENCODING 729
SWIDTH 189 0
DWIDTH 10 0
BBX 6 7 2 27
BITMAP
FC
FC
FC
FC
FC
FC
7C
ENDCHAR
STARTCHAR 02DA
ENCODING 730
SWIDTH 284 0
DWIDTH 15 0
BBX 11 11 2 29
BITMAP
1F00
3F80
7FC0
F1C0
E1E0
E0E0
E1E0
F3C0
7FC0
3F80
1F00
ENDCHAR
STARTCHAR 02DB
ENCODING 731
SWIDTH 208 0
DWIDTH 11 0
BBX 7 10 2 -11
BITMAP
1C
38
70
F0
F0
F8
FE
7E
3E
1E
ENDCHAR
STARTCHAR 02DC
ENCODING 732
SWIDTH 416 0
DWIDTH 22 0
BBX 18 7 2 28
BITMAP
070080
1FC180
7FFFC0
FFFFC0
FFFF80
70FF00
403C00
ENDCHAR
STARTCHAR 02DD
ENCODING 733
SWIDTH 397 0
DWIDTH 21 0
BBX 19 7 1 28
BITMAP
0FEFE0
1F8FC0
1F9F80
3F3F00
7E3E00
7C7C00
F8F800
ENDCHAR
STARTCHAR 0338
ENCODING 824
SWIDTH 625 0
DWIDTH 33 0
BBX 28 41 3 -1
BITMAP
03FFFC00
0FFFFF00
3FFFFF80
3FFFFFC0
7FFFFFE0
7FFFFFE0
FFFFFFE0
FF803FE0
FF007FE0
FE007FF0
FE00FFF0
FE00FFF0
FE01EFF0
FE01EFF0
FE03CFF0
FE03CFF0
FE078FF0
FE078FF0
FE0F0FF0
FE0F0FF0
FE1E0FF0
FE1E0FF0
FE3C0FF0
FE3C0FF0
FE7C0FF0
FE780FF0
FEF80FF0
FEF00FF0
FEF00FF0
FFE00FF0
FFE00FF0
FFC00FE0
FFC00FE0
FF801FE0
FFFFFFE0
FFFFFFE0
7FFFFFC0
7FFFFFC0
3FFFFF80
0FFFFF00
03FFFC00
ENDCHAR
STARTCHAR 03A9
ENCODING 937
SWIDTH 757 0
DWIDTH 40 0
BBX 35 39 3 -1
BITMAP
000FFC0000
007FFF8000
01FFFFE000
03FFFFF800
0FFFFFFC00
0FFFFFFE00
1FFFFFFE00
3FF807FF00
3FE001FF00
7FC000FF80
7F80007F80
FF00003FC0
FF00003FC0
FF00003FC0
FE00001FC0
FE00001FC0
FE00001FC0
FE00001FC0
FE00001FC0
FE00001FC0
FE00001FC0
FE00001FC0
FE00001FC0
FE00001FC0
FE00001FC0
FF00003FC0
7F00003F80
7F00003F80
3F80007F00
1FC000FF00
1FE001FE00
07F003FC00
1FF803FE00
FFF803FFE0
FFF803FFE0
FFF803FFE0
FFF803FFE0
FFF803FFE0
FFF803FFE0
ENDCHAR
STARTCHAR 03C0
ENCODING 960
SWIDTH 644 0
DWIDTH 34 0
BBX 32 30 1 -1
BITMAP
FFFFFFFC
FFFFFFFC
FFFFFFFC
FFFFFFFC
FFFFFFFC
FFFFFFFC
FFFFFFFC
0FE03F80
0FE03F80
0FE03F80
0FE03F80
0FE03F80
0FE03F80
0FE03F80
0FE03F80
0FE03F80
0FE03F80
0FE03F80
0FE03F80
0FE03F80
0FE03F80
0FE03F80
0FE03F80
0FE03FC0
0FE03FFF
0FE03FFF
0FE01FFF
0FE00FFF
0FE007FF
0FE003FC
ENDCHAR
STARTCHAR 1E02
ENCODING 7682
SWIDTH 606 0
DWIDTH 32 0
BBX 28 51 3 -1
BITMAP
003F0000
003F0000
003F0000
003F0000
003F0000
003F0000
001E0000
00000000
00000000
00000000
FFFFF000
FFFFFE00
FFFFFF00
FFFFFF80
FFFFFFC0
FFFFFFC0
FFFFFFC0
FF003FE0
FF001FE0
FF001FE0
FF000FE0
FF000FE0
FF000FE0
FF000FE0
FF001FE0
FF001FC0
FF007FC0
FFFFFF80
FFFFFF80
FFFFFE00
FFFFFE00
FFFFFF80
FFFFFFC0
FF003FC0
FF001FE0
FF000FE0
FF000FE0
FF000FF0
FF000FF0
FF000FF0
FF000FF0
FF000FF0
FF000FE0
FF001FE0
FFFFFFE0
FFFFFFE0
FFFFFFC0
FFFFFF80
FFFFFF00
FFFFFE00
FFFFF800
ENDCHAR
STARTCHAR 1E03
ENCODING 7683
SWIDTH 549 0
DWIDTH 29 0
BBX 25 52 2 -1
BITMAP
3C000000
7E000000
7E000000
7E000000
7E000000
7E000000
7E000000
00000000
00000000
00000000
FE000000
FE000000
FE000000
FE000000
FE000000
FE000000
FE000000
FE000000
FE000000
FE000000
FE000000
FE000000
FE000000
FE07E000
FE7FF800
FFFFFC00
FFFFFE00
FFFFFF00
FFFFFF00
FF80FF00
FF007F80
FF007F80
FF007F80
FF007F80
FF003F80
FF003F80
FF003F80
FF003F80
FF003F80
FF003F80
FF003F80
FF007F80
FF007F80
FF007F80
FF00FF00
FFF9FF00
FFFFFF00
FFFFFE00
FFFFFE00
FEFFFC00
FE3FF800
FC07E000
ENDCHAR
STARTCHAR 1E0A
ENCODING 7690
SWIDTH 663 0
DWIDTH 35 0
BBX 30 51 3 -1
BITMAP
001F8000
003F8000
003F8000
003F8000
003F8000
001F8000
000F0000
00000000
00000000
00000000
FFFFF000
FFFFFE00
FFFFFF00
FFFFFF80
FFFFFFC0
FFFFFFE0
FFFFFFF0
FF001FF0
FF000FF0
FF0007F8
FF0007F8
FF0003F8
FF0003F8
FF0003FC
FF0003FC
FF0003FC
FF0003FC
FF0001FC
FF0001FC
FF0001FC
FF0001FC
FF0001FC
FF0001FC
FF0001FC
FF0003FC
FF0003FC
FF0003FC
FF0003FC
FF0003F8
FF0003F8
FF0007F8
FF0007F8
FF000FF0
FF001FF0
FFFFFFE0
FFFFFFE0
FFFFFFC0
FFFFFF80
FFFFFF00
FFFFFE00
FFFFF800
ENDCHAR
STARTCHAR 1E0B
ENCODING 7691
SWIDTH 549 0
DWIDTH 29 0
BBX 25 52 2 -1
BITMAP
00001F00
00003F00
00003F00
00003F00
00003F00
00003F00
00003F00
00000000
00000000
00000000
00003F80
00003F80
00003F80
00003F80
00003F80
00003F80
00003F80
00003F80
00003F80
00003F80
00003F80
00003F80
00003F80
03F03F80
0FFF3F80
1FFFFF80
3FFFFF80
7FFFFF80
7FFFFF80
7F80FF80
7F003F80
FF003F80
FF003F80
FF003F80
FE003F80
FF003F80
FE003F80
FE003F80
FE003F80
FE003F80
FF003F80
FF003F80
FF003F80
FF003F80
7F807F80
7FCFFF80
7FFFFF80
3FFFFF80
3FFFFF80
1FFFBF80
0FFE3F80
03F01F80
ENDCHAR
STARTCHAR 1E1E
ENCODING 7710
SWIDTH 568 0
DWIDTH 30 0
BBX 25 51 3 -1
BITMAP
001F0000
003F8000
003F8000
003F8000
003F8000
003F8000
000F0000
00000000
00000000
00000000
07FFF000
1FFFFF80
3FFFFF80
7FFFFF80
7FFFFF80
FFFFFF80
FFFFFF80
FF000000
FF000000
FE000000
FE000000
FE000000
FE000000
FE000000
FE000000
FE000000
FE000000
FFFFFE00
FFFFFE00
FFFFFE00
FFFFFE00
FFFFFE00
FFFFFE00
FFFF0000
FE000000
FE000000
FE000000
FE000000
FE000000
FE000000
FE000000
FE000000
FE000000
FE000000
FE000000
FE000000
FE000000
FE000000
FE000000
FE000000
FE000000
ENDCHAR
STARTCHAR 1E1F
ENCODING 7711
SWIDTH 397 0
DWIDTH 21 0
BBX 20 54 1 -1
BITMAP
003C00
007E00
007E00
007E00
007E00
007E00
007E00
000000
000000
000000
001C00
01FFE0
03FFF0
07FFF0
07FFF0
07FFF0
0FF000
0FF000
0FF000
0FF000
0FF000
0FF000
0FF000
0FF000
3FFFC0
FFFFC0
FFFFC0
FFFFC0
FFFFC0
FFFFC0
0FF000
0FF000
0FF000
0FF000
0FF000
0FF000
0FF000
0FF000
0FF000
0FF000
0FF000
0FF000
0FF000
0FF000
0FF000
0FF000
0FF000
0FF000
0FF000
0FF000
0FF000
0FF000
0FF000
0FF000
ENDCHAR
STARTCHAR 1E40
ENCODING 7744
SWIDTH 852 0
DWIDTH 45 0
BBX 40 51 2 -1
BITMAP
00007E0000
00007E0000
00007E0000
00007E0000
00007E0000
00007E0000
00003C0000
0000000000
0000000000
0000000000
0FFC001FF8
1FFC003FF8
1FFC003FF8
1FFE003FF8
1FFE003FF8
1FFE007FF8
1FFE007FFC
1FFF007FFC
1FFF007FFC
1FFF007FFC
1FFF00FFFC
1FFF80FFFC
1FFF80FFFC
3FFF80FFFC
3FFF81FFFC
3FFF81FDFC
3FFFC1FDFC
3F9FC1FDFC
3F9FC3FDFE
3F9FC3F9FE
3F9FE3F9FE
3F8FE3F9FE
3F8FE3F8FE
3F8FE7F0FE
3F8FF7F0FE
7F87F7F0FE
7F87F7F0FE
7F87FFF0FE
7F87FFE0FE
7F03FFE0FF
7F03FFE0FF
7F03FFE0FF
7F03FFC0FF
7F03FFC07F
7F01FFC07F
7F01FFC07F
7F01FFC07F
FF01FF807F
FF00FF807F
FF00FF807F
FF00FF807F
ENDCHAR
STARTCHAR 1E41
ENCODING 7745
SWIDTH 871 0
DWIDTH 46 0
BBX 42 40 2 -1
BITMAP
00001F800000
00001F800000
00001F800000
00001F800000
00001F800000
00001F800000
00000F800000
000000000000
000000000000
000000000000
FE07F003F800
FE1FFC1FFE00
FE7FFE7FFF00
FFFFFFFFFF80
FFFFFFFFFF80
FFFFFFFFFFC0
FFE0FFF03FC0
FF807FC03FC0
FF007F801FC0
FF007F801FC0
FF003F801FC0
FF003F801FC0
FF003F801FC0
FF003F801FC0
FF003F801FC0
FF003F801FC0
FF003F801FC0
FF003F801FC0
FF003F801FC0
FF003F801FC0
FF003F801FC0
FF003F801FC0
FF003F801FC0
FF003F801FC0
FF003F801FC0
FF003F801FC0
FF003F801FC0
FF003F801FC0
FF003F801FC0
FF003F801FC0
ENDCHAR
STARTCHAR 1E56
ENCODING 7766
SWIDTH 606 0
DWIDTH 32 0
BBX 27 51 3 -1
BITMAP
007E0000
007E0000
007E0000
007E0000
007E0000
007E0000
003C0000
00000000
00000000
00000000
FFFFF000
FFFFFE00
FFFFFF00
FFFFFF80
FFFFFF80
FFFFFFC0
FFFFFFC0
FE003FC0
FE001FE0
FE001FE0
FE001FE0
FE000FE0
FE000FE0
FE000FE0
FE001FE0
FE001FE0
FE001FE0
FE001FE0
FE003FC0
FFFFFFC0
FFFFFFC0
FFFFFF80
FFFFFF80
FFFFFF00
FFFFFC00
FE01E000
FE000000
FE000000
FE000000
FE000000
FE000000
FE000000
FE000000
FE000000
FE000000
FE000000
FE000000
FE000000
FE000000
FE000000
FE000000
ENDCHAR
STARTCHAR 1E57
ENCODING 7767
SWIDTH 549 0
DWIDTH 29 0
BBX 25 53 2 -14
BITMAP
003F0000
003F0000
003F0000
003F0000
003F0000
003F0000
001E0000
00000000
00000000
00000000
FE07E000
FE3FF800
FE7FFC00
FFFFFE00
FFFFFF00
FFFFFF00
FFF9FF00
FF807F80
FF007F80
FF003F80
FF003F80
FF003F80
FF003F80
FF003F80
FF003F80
FF003F80
FF003F80
FF003F80
FF003F80
FF003F80
FF007F80
FF007F80
FF80FF80
FFFFFF00
FFFFFF00
FFFFFE00
FFFFFE00
FFFFFC00
FF0FF000
FF000000
FF000000
FF000000
FF000000
FF000000
FF000000
FF000000
FF000000
FF000000
FF000000
FF000000
FF000000
FF000000
FF000000
ENDCHAR
STARTCHAR 1E60
ENCODING 7776
SWIDTH 587 0
DWIDTH 31 0
BBX 26 50 3 0
BITMAP
003E0000
007F0000
007F0000
007F0000
007F0000
007F0000
001E0000
00000000
00000000
00000000
03FFE000
0FFFFF80
3FFFFF80
7FFFFF80
7FFFFF80
FFFFFF80
FFFFFF80
FF000000
FE000000
FE000000
FE000000
FE000000
FE000000
FE000000
FE000000
FF000000
FF800000
FFFFFC00
FFFFFE00
7FFFFF00
7FFFFF80
3FFFFF80
1FFFFFC0
03FFFFC0
00003FC0
00001FC0
00001FC0
00001FC0
00001FC0
00001FC0
00001FC0
00001FC0
00003FC0
7FFFFFC0
7FFFFFC0
7FFFFF80
7FFFFF80
7FFFFF00
7FFFFC00
03FFF000
ENDCHAR
STARTCHAR 1E61
ENCODING 7777
SWIDTH 511 0
DWIDTH 27 0
BBX 23 40 2 -1
BITMAP
007E00
007E00
007E00
007E00
007E00
007E00
003C00
000000
000000
000000
0FFFC0
3FFFFC
7FFFFC
FFFFFC
FFFFFC
FFFFFC
FF0000
FE0000
FE0000
FE0000
FE0000
FE0000
FFFFE0
FFFFF8
FFFFFC
7FFFFC
7FFFFE
1FFFFE
0001FE
0000FE
0000FE
0000FE
0000FE
0001FE
7FFFFE
7FFFFE
7FFFFC
7FFFFC
7FFFF8
03FFE0
ENDCHAR
STARTCHAR 1E6A
ENCODING 7786
SWIDTH 587 0
DWIDTH 31 0
BBX 28 51 2 -1
BITMAP
001F8000
001F8000
001F8000
001F8000
001F8000
001F8000
000F0000
00000000
00000000
00000000
FFFFFFF0
FFFFFFF0
FFFFFFF0
FFFFFFF0
FFFFFFF0
FFFFFFF0
FFFFFFF0
003F8000
003F8000
003F8000
003F8000
003F8000
003F8000
003F8000
003F8000
003F8000
003F8000
003F8000
003F8000
003F8000
003F8000
003F8000
003F8000
003F8000
003F8000
003F8000
003F8000
003F8000
003F8000
003F8000
003F8000
003F8000
003F8000
003F8000
003F8000
003F8000
003F8000
003F8000
003F8000
003F8000
003F8000
ENDCHAR
STARTCHAR 1E6B
ENCODING 7787
SWIDTH 378 0
DWIDTH 20 0
BBX 18 48 1 -1
BITMAP
03C000
07E000
07E000
07E000
07E000
07E000
07E000
000000
000000
000000
07F000
07F000
07F000
07F000
07F000
07F000
07F000
0FF000
1FFFC0
FFFFC0
FFFFC0
FFFFC0
FFFFC0
FFFFC0
0FF000
0FF000
0FF000
0FF000
0FF000
0FF000
0FF000
0FF000
0FF000
0FF000
0FF000
0FF000
0FF000
0FF000
0FF000
0FF000
0FF000
07F800
07FE00
07FFC0
07FFC0
03FFC0
01FFC0
00FFC0
ENDCHAR
STARTCHAR 1E80
ENCODING 7808
SWIDTH 985 0
DWIDTH 52 0
BBX 49 52 2 -1
BITMAP
0000FC00000000
00007E00000000
00003F00000000
00001F00000000
00000F80000000
00000FC0000000
000007C0000000
000003E0000000
00000000000000
00000000000000
00000000000000
FF0001FE007F80
FF0001FE007F80
FF0001FC007F80
7F8003FC007F00
7F8003FC007F00
7F8003FC00FF00
3F8003F800FF00
3FC007F800FE00
3FC007F800FE00
1FC007F801FE00
1FE007F001FE00
1FE007F801FC00
1FE00FF801FC00
0FE00FF803FC00
0FF00FFC03FC00
0FF00FFC03F800
07F01FFC03F800
07F81FFE03F800
07F81FFE07F800
03F81FFE07F000
03F83FFE07F000
03FC3FFF07F000
03FC3FFF0FF000
01FC3FFF0FE000
01FE3FFF8FE000
01FE7FFF8FE000
00FE7F3F9FE000
00FE7F3FDFC000
00FF7F3FDFC000
00FFFF1FDFC000
007FFE1FDFC000
007FFE1FFF8000
007FFE0FFF8000
003FFE0FFF8000
003FFC0FFF0000
003FFC07FF0000
001FFC07FF0000
001FF807FF0000
001FF807FE0000
001FF803FE0000
000FF803FE0000
ENDCHAR
STARTCHAR 1E81
ENCODING 7809
SWIDTH 833 0
DWIDTH 44 0
BBX 42 41 1 -1
BITMAP
0007E0000000
0007F0000000
0003F0000000
0001F8000000
0000F8000000
00007C000000
00003E000000
00001E000000
000000000000
000000000000
000000000000
FF003FC03FC0
FF003F803F80
7F003F807F80
7F807F807F80
7F807F807F00
7F807F00FF00
3F807F00FF00
3FC0FF00FF00
3FC0FF00FE00
1FC0FF01FE00
1FE0FF81FE00
1FE0FF81FC00
0FE1FF81FC00
0FE1FFC3FC00
0FF1FFC3F800
0FF1FFC3F800
07F3FFE3F800
07F3FFE7F800
07FBFFF7F000
03FBFFF7F000
03FFF7FFF000
03FFF7FFE000
03FFE3FFE000
01FFE3FFE000
01FFE3FFC000
01FFC1FFC000
00FFC1FFC000
00FFC0FFC000
00FFC0FF8000
007F80FF8000
ENDCHAR
STARTCHAR 1E82
ENCODING 7810
SWIDTH 985 0
DWIDTH 52 0
BBX 49 52 2 -1
BITMAP
0000001FC00000
0000001F800000
0000003F000000
0000007E000000
0000007C000000
000000F8000000
000001F0000000
000001E0000000
00000000000000
00000000000000
00000000000000
FF0001FE007F80
FF0001FE007F80
FF0001FC007F80
7F8003FC007F00
7F8003FC007F00
7F8003FC00FF00
3F8003F800FF00
3FC007F800FE00
3FC007F800FE00
1FC007F801FE00
1FE007F001FE00
1FE007F801FC00
1FE00FF801FC00
0FE00FF803FC00
0FF00FFC03FC00
0FF00FFC03F800
07F01FFC03F800
07F81FFE03F800
07F81FFE07F800
03F81FFE07F000
03F83FFE07F000
03FC3FFF07F000
03FC3FFF0FF000
01FC3FFF0FE000
01FE3FFF8FE000
01FE7FFF8FE000
00FE7F3F9FE000
00FE7F3FDFC000
00FF7F3FDFC000
00FFFF1FDFC000
007FFE1FDFC000
007FFE1FFF8000
007FFE0FFF8000
003FFE0FFF8000
003FFC0FFF0000
003FFC07FF0000
001FFC07FF0000
001FF807FF0000
001FF807FE0000
001FF803FE0000
000FF803FE0000
ENDCHAR
STARTCHAR 1E83
ENCODING 7811
SWIDTH 833 0
DWIDTH 44 0
BBX 42 41 1 -1
BITMAP
000001F80000
000003F80000
000003F00000
000007E00000
000007C00000
00000F800000
00001F000000
00001E000000
000000000000
000000000000
000000000000
FF003FC03FC0
FF003F803F80
7F003F807F80
7F807F807F80
7F807F807F00
7F807F00FF00
3F807F00FF00
3FC0FF00FF00
3FC0FF00FE00
1FC0FF01FE00
1FE0FF81FE00
1FE0FF81FC00
0FE1FF81FC00
0FE1FFC3FC00
0FF1FFC3F800
0FF1FFC3F800
07F3FFE3F800
07F3FFE7F800
07FBFFF7F000
03FBFFF7F000
03FFF7FFF000
03FFF7FFE000
03FFE3FFE000
01FFE3FFE000
01FFE3FFC000
01FFC1FFC000
00FFC1FFC000
00FFC0FFC000
00FFC0FF8000
007F80FF8000
ENDCHAR
STARTCHAR 1E84
ENCODING 7812
SWIDTH 985 0
DWIDTH 52 0
BBX 49 50 2 -1
BITMAP
0000F007800000
0001F807C00000
0001F80FC00000
0001F80FC00000
0001F807C00000
0000F003800000
00000000000000
00000000000000
00000000000000
FF0001FE007F80
FF0001FE007F80
FF0001FC007F80
7F8003FC007F00
7F8003FC007F00
7F8003FC00FF00
3F8003F800FF00
3FC007F800FE00
3FC007F800FE00
1FC007F801FE00
1FE007F001FE00
1FE007F801FC00
1FE00FF801FC00
0FE00FF803FC00
0FF00FFC03FC00
0FF00FFC03F800
07F01FFC03F800
07F81FFE03F800
07F81FFE07F800
03F81FFE07F000
03F83FFE07F000
03FC3FFF07F000
03FC3FFF0FF000
01FC3FFF0FE000
01FE3FFF8FE000
01FE7FFF8FE000
00FE7F3F9FE000
00FE7F3FDFC000
00FF7F3FDFC000
00FFFF1FDFC000
007FFE1FDFC000
007FFE1FFF8000
007FFE0FFF8000
003FFE0FFF8000
003FFC0FFF0000
003FFC07FF0000
001FFC07FF0000
001FF807FF0000
001FF807FE0000
001FF803FE0000
000FF803FE0000
ENDCHAR
STARTCHAR 1E85
ENCODING 7813
SWIDTH 833 0
DWIDTH 44 0
BBX 42 39 1 -1
BITMAP
000F003C0000
000F807E0000
001F807E0000
001F807E0000
000F807C0000
000700380000
000000000000
000000000000
000000000000
FF003FC03FC0
FF003F803F80
7F003F807F80
7F807F807F80
7F807F807F00
7F807F00FF00
3F807F00FF00
3FC0FF00FF00
3FC0FF00FE00
1FC0FF01FE00
1FE0FF81FE00
1FE0FF81FC00
0FE1FF81FC00
0FE1FFC3FC00
0FF1FFC3F800
0FF1FFC3F800
07F3FFE3F800
07F3FFE7F800
07FBFFF7F000
03FBFFF7F000
03FFF7FFF000
03FFF7FFE000
03FFE3FFE000
01FFE3FFE000
01FFE3FFC000
01FFC1FFC000
00FFC1FFC000
00FFC0FFC000
00FFC0FF8000
007F80FF8000
ENDCHAR
STARTCHAR 1EF2
ENCODING 7922
SWIDTH 663 0
DWIDTH 35 0
BBX 31 52 2 -1
BITMAP
01FC0000
00FC0000
007E0000
003F0000
001F0000
001F8000
000F8000
0007C000
00000000
00000000
00000000
FF0001FE
FF0001FE
7F8001FE
7F8003FC
3FC003FC
3FC007F8
1FC007F8
1FE00FF0
0FE00FF0
0FE00FE0
0FF01FE0
07F01FE0
07F83FC0
03F83FC0
03F83F80
01FC7F80
01FC7F00
01FEFF00
00FEFE00
00FFFE00
007FFC00
007FFC00
003FFC00
003FF800
001FF800
001FF000
001FF000
000FE000
000FE000
000FE000
000FE000
000FE000
000FE000
000FE000
000FE000
000FE000
000FE000
000FE000
000FE000
000FE000
000FE000
ENDCHAR
STARTCHAR 1EF3
ENCODING 7923
SWIDTH 587 0
DWIDTH 31 0
BBX 28 53 1 -13
BITMAP
03F00000
01F80000
00FC0000
007C0000
007E0000
003F0000
001F0000
00000000
00000000
00000000
00000000
FF0007F0
FF000FF0
FF000FF0
7F000FF0
7F800FE0
7F801FE0
3F801FE0
3F801FE0
3FC01FC0
3FC03FC0
1FC03FC0
1FC03FC0
1FE03F80
1FE07F80
0FE07F80
0FE07F00
0FF07F00
0FF0FF00
07F0FF00
07F0FE00
07F8FE00
07FDFE00
03FFFE00
03FFFC00
01FFFC00
00FFFC00
007FFC00
001FF800
0003F800
0007F800
0007F800
0007F000
000FF000
000FF000
000FE000
000FE000
001FE000
001FC000
001FC000
003F8000
003F0000
003F0000
ENDCHAR
STARTCHAR 2013
ENCODING 8211
SWIDTH 511 0
DWIDTH 27 0
BBX 25 6 1 12
BITMAP
FFFFFF80
FFFFFF80
FFFFFF80
FFFFFF80
FFFFFF80
FFFFFF80
ENDCHAR
STARTCHAR 2014
ENCODING 8212
SWIDTH 738 0
DWIDTH 39 0
BBX 37 6 1 12
BITMAP
FFFFFFFFF8
FFFFFFFFF8
FFFFFFFFF8
FFFFFFFFF8
FFFFFFFFF8
FFFFFFFFF8
ENDCHAR
STARTCHAR 2018
ENCODING 8216
SWIDTH 265 0
DWIDTH 14 0
BBX 7 13 3 27
BITMAP
3E
7E
7E
FC
F8
F8
FE
FE
FE
FE
FE
FE
FE
ENDCHAR
STARTCHAR 2019
ENCODING 8217
SWIDTH 265 0
DWIDTH 14 0
BBX 7 13 3 25
BITMAP
FE
FE
FE
FE
FE
FE
FE
3E
3E
3E
FE
FC
F8
ENDCHAR
STARTCHAR 201A
ENCODING 8218
SWIDTH 265 0
DWIDTH 14 0
BBX 7 13 3 -7
BITMAP
FE
FE
FE
FE
FE
FE
FE
3E
3E
3E
FE
FC
F8
ENDCHAR
STARTCHAR 201C
ENCODING 8220
SWIDTH 416 0
DWIDTH 22 0
BBX 17 13 3 27
BITMAP
3E1F00
7E3F00
FE3F00
F87E00
F87E00
FC7E00
FE7F80
FE7F80
FE7F80
FE7F80
FE7F80
FE7F80
FE3F00
ENDCHAR
STARTCHAR 201D
ENCODING 8221
SWIDTH 416 0
DWIDTH 22 0
BBX 17 13 3 25
BITMAP
FE3F00
FE7F80
FE7F80
FE7F80
FE7F80
FE7F80
FE7F80
7E3F80
3E1F80
3E1F00
FE3F00
FC3F00
F83C00
ENDCHAR
STARTCHAR 201E
ENCODING 8222
SWIDTH 416 0
DWIDTH 22 0
BBX 17 14 3 -8
BITMAP
7C3E00
FE7F80
FE7F80
FE7F80
FE7F80
FE7F80
FE7F80
FE3F80
3E1F80
3E1F80
7E1F00
FE3F00
FC3E00
F83C00
ENDCHAR
STARTCHAR 2020
ENCODING 8224
SWIDTH 435 0
DWIDTH 23 0
BBX 21 45 1 -4
BITMAP
01FC00
01FC00
01FC00
01FC00
01FC00
01FC00
01FC00
01FC00
01FC00
01FC00
01FC00
FFFFF8
FFFFF8
FFFFF8
FFFFF8
FFFFF8
FFFFF8
07FF80
01FC00
01FC00
01FC00
01FC00
01FC00
01FC00
01FC00
01FC00
01FC00
01FC00
01FC00
01FC00
01FC00
01FC00
01FC00
01FC00
01FC00
01FC00
01FC00
01FC00
01FC00
01FC00
01FC00
01FC00
01FC00
01FC00
01FC00
ENDCHAR
STARTCHAR 2021
ENCODING 8225
SWIDTH 454 0
DWIDTH 24 0
BBX 21 45 1 -4
BITMAP
01FC00
01FC00
01FC00
01FC00
01FC00
01FC00
01FC00
01FC00
01FC00
01FC00
01FC00
FFFFF8
FFFFF8
FFFFF8
FFFFF8
FFFFF8
FFFFF8
07FF80
01FC00
01FC00
01FC00
01FC00
01FC00
01FC00
01FC00
01FC00
01FC00
FFFFF8
FFFFF8
FFFFF8
FFFFF8
FFFFF8
FFFFF8
07FF00
01FC00
01FC00
01FC00
01FC00
01FC00
01FC00
01FC00
01FC00
01FC00
01FC00
01FC00
ENDCHAR
STARTCHAR 2022
ENCODING 8226
SWIDTH 303 0
DWIDTH 16 0
BBX 10 10 3 15
BITMAP
7F80
FFC0
FFC0
FFC0
FFC0
FFC0
FFC0
FFC0
FFC0
7F80
ENDCHAR
STARTCHAR 2026
ENCODING 8230
SWIDTH 814 0
DWIDTH 43 0
BBX 10 7 16 -1
BITMAP
FFC0
FFC0
FFC0
FFC0
FFC0
FFC0
FF80
ENDCHAR
STARTCHAR 2030
ENCODING 8240
SWIDTH 1383 0
DWIDTH 73 0
BBX 69 40 2 0
BITMAP
1FFF0000FC00000000
3FFF8000F800000000
7FFFC001F000000000
FFFFE003F000000000
FFFFE003E000000000
FC07E007E000000000
F803E007C000000000
F803E00F8000000000
F803E00F8000000000
F803E01F0000000000
F803E03F0000000000
F803E03E0000000000
F803E07E0000000000
F803E07C0000000000
F803E0F80000000000
FC07E1F80000000000
FFFFE1F00000000000
FFFFE3F00000000000
7FFFC3E00000000000
3FFF87E1FFF007FFC0
1FFF07C7FFF81FFFE0
00000F87FFFC1FFFF0
00001F8FFFFE3FFFF8
00001F0FFFFE3FFFF8
00003F0FC07E3F01F8
00003E0F803E3E00F8
00007C0F803E3E00F8
0000FC0F803E3E00F8
0000F80F803E3E00F8
0001F80F803E3E00F8
0001F00F803E3E00F8
0003F00F803E3E00F8
0007E00F803E3E00F8
0007C00F803E3E00F8
000FC00FC07E3F01F8
000F800FFFFE3FFFF8
001F800FFFFE3FFFF8
001F0007FFFC1FFFF0
003E0007FFF80FFFE0
007E0001FFF007FFC0
ENDCHAR
STARTCHAR 2039
ENCODING 8249
SWIDTH 360 0
DWIDTH 19 0
BBX 15 21 2 8
BITMAP
0030
0078
00FC
01FE
03FC
07F8
0FF0
1FE0
3FC0
7F80
FF00
7F80
3FC0
1FE0
0FF0
07F8
03FC
01FE
00FC
0078
0030
ENDCHAR
STARTCHAR 203A
ENCODING 8250
SWIDTH 360 0
DWIDTH 19 0
BBX 15 21 2 8
BITMAP
1800
3C00
7E00
FF00
7F80
3FC0
1FE0
0FF0
07F8
03FC
01FE
03FC
07F8
0FF0
1FE0
3FC0
7F80
FF00
7E00
3C00
1800
ENDCHAR
STARTCHAR 2044
ENCODING 8260
SWIDTH 322 0
DWIDTH 17 0
BBX 24 40 -3 -1
BITMAP
00003F
00003E
00007E
00007C
0000FC
0000F8
0001F8
0001F0
0003F0
0003E0
0007E0
0007C0
000FC0
000F80
001F80
001F00
001F00
003E00
003E00
007C00
007C00
00FC00
00F800
01F800
01F000
03F000
03E000
07E000
07C000
0FC000
0F8000
1F8000
1F0000
3F0000
3E0000
7E0000
7C0000
7C0000
F80000
F80000
ENDCHAR
STARTCHAR 2070
ENCODING 8304
SWIDTH 454 0
DWIDTH 24 0
BBX 20 25 2 20
BITMAP
1FFF80
3FFFE0
7FFFE0
7FFFF0
7FFFF0
FE03F0
FC03F0
FC03F0
FC03F0
FC03F0
FC03F0
FC03F0
FC03F0
FC03F0
FC03F0
FC03F0
FC03F0
FC03F0
FC03F0
FE07F0
7FFFF0
7FFFF0
7FFFE0
3FFFC0
0FFF80
ENDCHAR
STARTCHAR 2074
ENCODING 8308
SWIDTH 435 0
DWIDTH 23 0
BBX 21 25 1 20
BITMAP
00FC00
00FC00
01F800
01F800
03F000
03F000
07E3E0
07E7E0
0FC7E0
0FC7E0
1F87E0
1F87E0
3F07E0
3F07E0
7E07F8
7FFFF8
FFFFF8
FFFFF8
FFFFF8
7FFFE0
0007E0
0007E0
0007E0
0007E0
0007E0
ENDCHAR
STARTCHAR 2075
ENCODING 8309
SWIDTH 416 0
DWIDTH 22 0
BBX 18 25 2 20
BITMAP
7FFF80
7FFF80
7FFF80
7FFF80
7FFF80
7C0000
7C0000
7C0000
7C0000
7FFE00
FFFF00
FFFF80
FFFFC0
FFFFC0
F80FC0
F807C0
0007C0
0007C0
0007C0
000FC0
FFFFC0
FFFFC0
FFFFC0
FFFF80
FFFE00
ENDCHAR
STARTCHAR 2076
ENCODING 8310
SWIDTH 435 0
DWIDTH 23 0
BBX 20 26 2 20
BITMAP
03FE00
1FFFE0
3FFFE0
3FFFE0
7FFFE0
7F8000
7E0000
FC0000
FC0000
FC0000
FDFF00
FFFFC0
FFFFE0
FFFFE0
FFFFE0
FC07F0
FC03F0
FC03F0
FC03F0
7E03F0
7F07F0
7FFFE0
3FFFE0
3FFFE0
1FFFC0
07FF00
ENDCHAR
STARTCHAR 2077
ENCODING 8311
SWIDTH 397 0
DWIDTH 21 0
BBX 19 25 1 20
BITMAP
FFFFC0
FFFFE0
FFFFE0
FFFFE0
FFFFC0
000FC0
001FC0
001F80
003F80
003F00
003F00
007E00
007E00
00FE00
00FC00
00FC00
01F800
01F800
03F800
03F000
07F000
07E000
07E000
0FC000
0FC000
ENDCHAR
STARTCHAR 2078
ENCODING 8312
SWIDTH 454 0
DWIDTH 24 0
BBX 19 26 3 20
BITMAP
1FFF00
7FFF80
7FFFC0
FFFFC0
FFFFE0
FC07E0
F807E0
F807E0
F807E0
F807E0
FC07C0
FFFFC0
FFFF00
7FFFC0
3FFFC0
FFFFE0
FC07E0
F807E0
F807E0
F807E0
FC07E0
FFFFE0
FFFFE0
FFFFC0
7FFF80
1FFF00
ENDCHAR
STARTCHAR 2079
ENCODING 8313
SWIDTH 435 0
DWIDTH 23 0
BBX 19 26 2 19
BITMAP
1FFE00
7FFF00
7FFF80
FFFFC0
FFFFC0
FE1FC0
FC07E0
F807E0
F807E0
FC07E0
FC07E0
FFFFE0
FFFFE0
7FFFE0
7FFFE0
1FFFE0
0007E0
0007E0
0007E0
0007E0
000FC0
7FFFC0
7FFFC0
7FFF80
7FFF00
7FFE00
ENDCHAR
STARTCHAR 2080
ENCODING 8320
SWIDTH 454 0
DWIDTH 24 0
BBX 20 25 2 -10
BITMAP
0FFF80
3FFFC0
7FFFE0
7FFFF0
7FFFF0
FE07F0
FC03F0
FC03F0
FC03F0
FC03F0
FC03F0
FC03F0
FC03F0
FC03F0
FC03F0
FC03F0
FC03F0
FC03F0
FC03F0
FE03F0
7FFFF0
7FFFF0
7FFFE0
3FFFE0
1FFF80
ENDCHAR
STARTCHAR 2081
ENCODING 8321
SWIDTH 265 0
DWIDTH 14 0
BBX 11 26 1 -11
BITMAP
0FE0
3FE0
FFE0
FFE0
FFE0
F7E0
07E0
07E0
07E0
07E0
07E0
07E0
07E0
07E0
07E0
07E0
07E0
07E0
07E0
07E0
07E0
07E0
07E0
07E0
07E0
07E0
ENDCHAR
STARTCHAR 2082
ENCODING 8322
SWIDTH 397 0
DWIDTH 21 0
BBX 19 25 1 -10
BITMAP
3FFE00
FFFF00
FFFF80
FFFFC0
FFFFC0
000FC0
0007E0
0007E0
0007E0
000FC0
000FC0
001F80
003F80
007F00
00FE00
01FC00
03F800
0FF000
1FE000
7FC000
FFFFE0
FFFFE0
FFFFE0
FFFFE0
FFFFE0
ENDCHAR
STARTCHAR 2083
ENCODING 8323
SWIDTH 416 0
DWIDTH 22 0
BBX 18 25 1 -11
BITMAP
7FFE00
FFFF80
FFFF80
FFFFC0
FFFFC0
000FC0
0007C0
0007C0
0007C0
000FC0
1FFFC0
1FFF80
1FFF00
1FFF80
1FFFC0
001FC0
000FC0
0007C0
0007C0
000FC0
FFFFC0
FFFFC0
FFFFC0
FFFF80
7FFE00
ENDCHAR
STARTCHAR 2084
ENCODING 8324
SWIDTH 435 0
DWIDTH 23 0
BBX 21 26 1 -11
BITMAP
00FE00
00FC00
01FC00
01F800
03F800
03F000
07F000
07E3E0
0FE3E0
0FC7E0
1FC7E0
1F87E0
3F87E0
3F07E0
7F07E0
7FFFF8
FFFFF8
FFFFF8
FFFFF8
FFFFF8
0007E0
0007E0
0007E0
0007E0
0007E0
0007E0
ENDCHAR
STARTCHAR 2085
ENCODING 8325
SWIDTH 416 0
DWIDTH 22 0
BBX 18 26 2 -11
BITMAP
7FFF80
7FFF80
7FFF80
7FFF80
7FFF80
7C0000
7C0000
7C0000
7C0000
7FFE00
FFFF00
FFFF80
FFFFC0
FFFFC0
FC0FC0
F807C0
0007C0
0007C0
0007C0
0007C0
C01FC0
FFFFC0
FFFFC0
FFFF80
FFFF00
1FFE00
ENDCHAR
STARTCHAR 2086
ENCODING 8326
SWIDTH 435 0
DWIDTH 23 0
BBX 20 25 2 -9
BITMAP
0FFFC0
1FFFE0
3FFFE0
3FFFE0
7FFFE0
7E0000
7E0000
FC0000
FC0000
FC0000
FDFF00
FFFFC0
FFFFE0
FFFFE0
FFFFE0
FC03F0
FC03F0
FC03F0
7E03F0
7E07F0
7FFFE0
7FFFE0
3FFFE0
1FFFC0
0FFF80
ENDCHAR
STARTCHAR 2087
ENCODING 8327
SWIDTH 397 0
DWIDTH 21 0
BBX 19 26 1 -11
BITMAP
FFFFC0
FFFFE0
FFFFE0
FFFFE0
FFFFE0
000FC0
001FC0
001F80
001F80
003F00
003F00
007F00
007E00
00FE00
00FC00
00FC00
01F800
01F800
03F800
03F000
03F000
07E000
07E000
0FE000
0FC000
1FC000
ENDCHAR
STARTCHAR 2088
ENCODING 8328
SWIDTH 454 0
DWIDTH 24 0
BBX 19 26 3 -12
BITMAP
1FFF00
7FFF80
FFFFC0
FFFFE0
FFFFE0
FC07E0
F807E0
F807E0
F807E0
FC07E0
FFFFC0
FFFF80
7FFFC0
3FFFC0
7FFFE0
FC07E0
F807E0
F807E0
F807E0
F807E0
FC07E0
FFFFE0
FFFFC0
FFFFC0
7FFF80
1FFF00
ENDCHAR
STARTCHAR 2089
ENCODING 8329
SWIDTH 435 0
DWIDTH 23 0
BBX 19 26 2 -11
BITMAP
1FFE00
7FFF00
FFFF80
FFFFC0
FFFFC0
FC0FC0
FC07E0
F807E0
F807E0
FC07E0
FC07E0
FFFFE0
FFFFE0
7FFFE0
7FFFE0
1FF7E0
0007E0
0007E0
0007E0
000FE0
001FC0
7FFFC0
7FFF80
7FFF80
7FFF00
0FF800
ENDCHAR
STARTCHAR 20AC
ENCODING 8364
SWIDTH 625 0
DWIDTH 33 0
BBX 31 40 1 -1
BITMAP
0000C000
001FFFE0
007FFFFE
01FFFFFE
03FFFFFE
03FFFFFE
07FFFFFE
07FE001E
07F80000
0FF00000
0FF00000
0FE00000
0FE00000
0FE00000
0FE00000
FFFFFF00
FFFFFF00
FFFFFF00
FFFFFF00
0FE00000
0FE00000
0FE00000
0FE00000
FFFFFF00
FFFFFF00
FFFFFF00
FFFFFF00
0FE00000
0FE00000
0FE00000
0FF00000
0FF00000
07F80000
07FF01FE
03FFFFFE
03FFFFFE
01FFFFFE
00FFFFFE
003FFFF8
0007FF80
ENDCHAR
STARTCHAR 2113
ENCODING 8467
SWIDTH 454 0
DWIDTH 24 0
BBX 21 39 1 0
BITMAP
007E00
01FF80
07FFE0
0FFFE0
0FFFF0
0FFFF0
1FE3F8
1FE3F8
1FE3F8
1FE3F8
1FE3F8
1FE3F8
1FE7F0
1FE7F0
1FEFF0
1FEFE0
1FFFC0
1FFFC0
1FFF80
1FFF00
1FFE00
1FFC00
1FF800
3FF000
7FE000
FFE000
7FE000
7FE000
7FE000
1FE000
1FE000
1FE000
1FF000
0FFE00
0FFFE0
0FFFE0
07FFE0
03FFE0
00FFE0
ENDCHAR
STARTCHAR 2116
ENCODING 8470
SWIDTH 1098 0
DWIDTH 58 0
BBX 54 41 3 -2
BITMAP
0FE00003FFFF80
3FF8000FFFFFE0
7FFC001FFFFFF0
7FFE003FFFFFF8
FFFE007FFFFFF8
FFFF007FF87FF8
FFFF007F8000FC
FE7F007F0000FC
FE7F00FF0F80FC
FE7F80FF0F80FC
FE3F80FF0F80FC
FE3F80FF0FC0FC
FE3FC0FF0FC0FC
FE3FC0FF0FC1F8
FE1FC0FF0FFFF8
FE1FC0FF07FFF8
FE1FE0FF07FFF0
FE1FE0FF03FFF0
FE0FE0FF01FFC0
FE0FE0FF000000
FE0FF0FF000000
FE07F0FF000000
FE07F0FF000000
FE07F8FF000000
FE07F8FF000000
FE03F8FF000000
FE03F8FF000000
FE03FCFF000000
FE01FCFF000000
FE01FCFF000000
FE01FCFF000000
FE01FEFF000000
FE00FEFF000000
FE00FEFF000000
FE00FFFF000000
FE00FFFF000000
FE007FFE000000
FE007FFE000000
FE003FFC000000
FE001FF8000000
FE000FE0000000
ENDCHAR
STARTCHAR 2122
ENCODING 8482
SWIDTH 701 0
DWIDTH 37 0
BBX 36 18 1 22
BITMAP
FFFE7E0F80
FFFE7E0FC0
FFFE7E0FC0
FFFE7F1FC0
07C07F1FC0
07C07F1FC0
07C07F1FC0
07C07FBFC0
07C07FBFC0
07C0FFBFE0
07C0FBFBE0
07C0FBFBE0
07C0FBFBE0
07C0FBFBE0
07C0F9FBE0
07C0F9F3E0
07C0F9F1E0
07C0F1F1F0
ENDCHAR
STARTCHAR 212E
ENCODING 8494
SWIDTH 701 0
DWIDTH 37 0
BBX 32 30 2 -1
BITMAP
000FF800
00781F00
01C003C0
038000E0
07000070
0E000038
1C00003C
3C00003C
3C00003E
7C00003E
7C00003E
7C00003F
7C00003F
7C00003F
FC00003F
FFFFFFFF
FC000000
7C000000
7C000000
7C000000
7C000000
3C000000
3C000000
1C000000
1C000038
0E000070
070000E0
01C003C0
00F81F00
001FF800
ENDCHAR
STARTCHAR 2202
ENCODING 8706
SWIDTH 625 0
DWIDTH 33 0
BBX 28 39 2 -1
BITMAP
003FC000
01FFF800
07FFFC00
1FFFFE00
3FFFFF00
1FFFFF80
1FFFFFC0
1F807FC0
1C003FE0
00001FE0
00000FE0
00000FF0
00000FF0
00000FF0
003E0FF0
01FFC7F0
07FFF7F0
0FFFFFF0
1FFFFFF0
3FFFFFF0
3FFFFFF0
7FE03FF0
7F800FF0
7F000FF0
FF000FF0
FF000FF0
FF000FE0
FF001FE0
FF001FE0
FF003FC0
7F803FC0
7FC0FFC0
7FFFFF80
3FFFFF00
1FFFFF00
0FFFFE00
07FFFC00
01FFF000
007FC000
ENDCHAR
STARTCHAR 2206
ENCODING 8710
SWIDTH 720 0
DWIDTH 38 0
BBX 36 41 1 -1
BITMAP
0000F00000
0000F80000
0001F80000
0001F80000
0003FC0000
0003FC0000
0003FE0000
0007FE0000
0007FE0000
000FFF0000
000FFF0000
000FFF8000
001FDF8000
001FDF8000
003FCFC000
003F8FC000
003F8FC000
007F87E000
007F07E000
00FF03F000
00FE03F000
00FE03F000
01FE01F800
01FC01F800
03FC01FC00
03F800FC00
03F800FC00
07F8007E00
07F0007E00
0FF0007E00
0FE0003F00
0FE0003F00
1FE0001F80
1FC0001F80
3FFFFFFF80
3FFFFFFFC0
3FFFFFFFC0
7FFFFFFFE0
7FFFFFFFE0
FFFFFFFFE0
FFFFFFFFF0
ENDCHAR
STARTCHAR 220F
ENCODING 8719
SWIDTH 644 0
DWIDTH 34 0
BBX 33 41 1 -1
BITMAP
FFFFFFFF80
FFFFFFFF80
FFFFFFFF80
FFFFFFFF80
FFFFFFFF80
FFFFFFFF80
FFFFFFFF80
0FE007F800
0FE007F800
0FE007F800
0FE007F800
0FE007F800
0FE007F800
0FE007F800
0FE007F800
0FE007F800
0FE007F800
0FE007F800
0FE007F800
0FE007F800
0FE007F800
0FE007F800
0FE007F800
0FE007F800
0FE007F800
0FE007F800
0FE007F800
0FE007F800
0FE007F800
0FE007F800
0FE007F800
0FE007F800
0FE007F800
0FE007F800
0FE007F800
0FE007F800
0FE007F800
0FE007F800
0FE007F800
0FE007F800
0FE007F800
ENDCHAR
STARTCHAR 2211
ENCODING 8721
SWIDTH 568 0
DWIDTH 30 0
BBX 27 51 2 -11
BITMAP
FFFFFFE0
FFFFFFE0
FFFFFFE0
FFFFFFE0
FFFFFFE0
FFFFFFE0
FFFFFFE0
FF800000
7FC00000
7FC00000
3FE00000
3FF00000
1FF00000
0FF80000
0FF80000
07FC0000
07FE0000
03FE0000
01FF0000
01FF0000
00FF8000
007FC000
007FC000
003FE000
003FE000
001FF000
003FE000
003FE000
007FC000
00FF8000
00FF8000
01FF0000
01FF0000
03FE0000
07FC0000
07FC0000
0FF80000
1FF80000
1FF00000
3FE00000
3FE00000
7FC00000
FFC00000
FF800000
FFFFFFE0
FFFFFFE0
FFFFFFE0
FFFFFFE0
FFFFFFE0
FFFFFFE0
FFFFFFE0
ENDCHAR
STARTCHAR 2212
ENCODING 8722
SWIDTH 454 0
DWIDTH 24 0
BBX 22 6 1 16
BITMAP
FFFFFC
FFFFFC
FFFFFC
FFFFFC
FFFFFC
FFFFFC
ENDCHAR
STARTCHAR 221A
ENCODING 8730
SWIDTH 663 0
DWIDTH 35 0
BBX 33 43 1 -1
BITMAP
0000007F80
0000007F80
000000FF00
000000FF00
000000FE00
000001FE00
000001FE00
000003FC00
000003FC00
000003FC00
000007F800
000007F800
000007F000
00000FF000
00000FF000
00001FE000
00001FE000
00001FE000
00003FC000
00003FC000
00007FC000
00007F8000
00007F8000
FF80FF0000
FF80FF0000
FFC0FF0000
FFC1FE0000
FFC1FE0000
FFE3FE0000
FFE3FC0000
0FF3FC0000
0FF7F80000
07FFF80000
07FFF80000
03FFF00000
03FFF00000
01FFF00000
01FFE00000
00FFE00000
00FFC00000
007FC00000
007FC00000
003F800000
ENDCHAR
STARTCHAR 221E
ENCODING 8734
SWIDTH 757 0
DWIDTH 40 0
BBX 36 18 2 9
BITMAP
07F000FE00
1FFC03FF80
3FFF0FFFC0
7FFF9FFFE0
7FFFFFFFE0
FF3FFFCFF0
FC0FFF03F0
FC07FE03F0
FC03FC01F0
FC03FC01F0
FC07FE03F0
FC0FFF03F0
FF3FFFCFF0
7FFFFFFFE0
7FFF9FFFE0
3FFF0FFFC0
1FFE07FF80
07F800FE00
ENDCHAR
STARTCHAR 222B
ENCODING 8747
SWIDTH 435 0
DWIDTH 23 0
BBX 22 53 1 -11
BITMAP
0007F0
001FFC
003FFC
007FFC
007FFC
00FFFC
00FF80
00FF00
00FE00
01FE00
01FE00
01FC00
01FC00
01FC00
01FC00
01FC00
01FC00
01FC00
01FC00
01FC00
01FC00
01FC00
01FC00
01FC00
01FC00
01FC00
01FC00
01FC00
01FC00
01FC00
01FC00
01FC00
01FC00
01FC00
01FC00
01FC00
01FC00
01FC00
01FC00
01FC00
01FC00
01FC00
01FC00
03FC00
03FC00
03FC00
07F800
FFF800
FFF800
FFF000
FFF000
FFE000
3F8000
ENDCHAR
STARTCHAR 2248
ENCODING 8776
SWIDTH 511 0
DWIDTH 27 0
BBX 23 17 2 10
BITMAP
07C00C
1FF83C
7FFFFE
FFFFFE
FFFFF8
783FF0
6007C0
000000
000000
000000
07E00C
1FF83C
7FFFFE
FFFFFC
FFFFF8
783FF0
4007C0
ENDCHAR
STARTCHAR 2260
ENCODING 8800
SWIDTH 454 0
DWIDTH 24 0
BBX 22 25 1 6
BITMAP
0000F0
0000E0
0001E0
0003C0
FFFFFC
FFFFFC
FFFFFC
FFFFFC
FFFFFC
FFFFFC
003C00
003C00
007800
007000
00F000
FFFFFC
FFFFFC
FFFFFC
FFFFFC
FFFFFC
FFFFFC
0F0000
1E0000
1E0000
3C0000
ENDCHAR
STARTCHAR 2264
ENCODING 8804
SWIDTH 454 0
DWIDTH 24 0
BBX 20 29 2 4
BITMAP
000070
0001F0
000FF0
007FF0
03FFF0
1FFFF0
7FFFF0
FFFF00
FFF800
FFC000
FF8000
FFF000
FFFE00
FFFFC0
1FFFF0
07FFF0
00FFF0
001FF0
0007F0
0000F0
000030
000000
000000
FFFFF0
FFFFF0
FFFFF0
FFFFF0
FFFFF0
FFFFF0
ENDCHAR
STARTCHAR 2265
ENCODING 8805
SWIDTH 454 0
DWIDTH 24 0
BBX 20 29 2 4
BITMAP
C00000
F80000
FF0000
FFE000
FFFC00
FFFF00
FFFFE0
1FFFF0
01FFF0
003FF0
001FF0
00FFF0
07FFF0
3FFFF0
FFFF80
FFFE00
FFF000
FF8000
FE0000
F00000
800000
000000
000000
FFFFF0
FFFFF0
FFFFF0
FFFFF0
FFFFF0
FFFFF0
ENDCHAR
STARTCHAR 25CA
ENCODING 9674
SWIDTH 511 0
DWIDTH 27 0
BBX 25 41 1 -1
BITMAP
003E0000
003E0000
007F0000
007F0000
00FF8000
00FFC000
01FFC000
03FFE000
03FFE000
07FFF000
07F7F000
0FE3F800
1FE3F800
1FC1FC00
3FC0FC00
3F80FE00
7F807E00
7F007F00
FE003F00
FE003F80
7F007F80
7F807F80
3F80FF00
3FC0FF00
1FC1FE00
1FE1FC00
1FE3FC00
0FF3F800
0FF7F800
07FFF000
07FFF000
03FFE000
03FFE000
01FFC000
01FFC000
00FF8000
00FF8000
007F0000
007F0000
003E0000
003E0000
ENDCHAR
STARTCHAR FB00
ENCODING 64256
SWIDTH 795 0
DWIDTH 42 0
BBX 40 44 1 -1
BITMAP
00000000C0
007F800FFF
00FFF01FFF
01FFF03FFF
03FFF03FFF
03FFF07FFF
07FFF07F80
07F8007F00
07F8007F00
07F0007F00
07F0007F00
07F0007F00
07F0007F00
07F0007F00
3FFFFFFFFE
FFFFFFFFFE
FFFFFFFFFE
FFFFFFFFFE
FFFFFFFFFE
FFFFFFFFFE
07F0007F00
07F0007F00
07F0007F00
07F0007F00
07F0007F00
07F0007F00
07F0007F00
07F0007F00
07F0007F00
07F0007F00
07F0007F00
07F0007F00
07F0007F00
07F0007F00
07F0007F00
07F0007F00
07F0007F00
07F0007F00
07F0007F00
07F0007F00
07F0007F00
07F0007F00
07F0007F00
07F0007F00
ENDCHAR
STARTCHAR FB01
ENCODING 64257
SWIDTH 625 0
DWIDTH 33 0
BBX 30 44 1 -1
BITMAP
0001C000
001FFFE0
007FFFF0
00FFFFF0
01FFFFF0
03FFFFF0
07FE0000
07F80000
07F00000
0FF00000
0FF00000
0FF00000
0FF00000
0FF00000
3FFFFC00
FFFFFFFC
FFFFFFFC
FFFFFFFC
FFFFFFFC
FFFFFFFC
0FF001FC
0FF001FC
0FF001FC
0FF001FC
0FF001FC
0FF001FC
0FF001FC
0FF001FC
0FF001FC
0FF001FC
0FF001FC
0FF001FC
0FF001FC
0FF001FC
0FF001FC
0FF001FC
0FF001FC
0FF001FC
0FF001FC
0FF001FC
0FF001FC
0FF001FC
0FF001FC
0FF001FC
ENDCHAR
STARTCHAR FB02
ENCODING 64258
SWIDTH 720 0
DWIDTH 38 0
BBX 36 44 1 -1
BITMAP
0007FFF000
007FFFFC00
00FFFFFC00
01FFFFFC00
03FFFFFC00
07FFFFFC00
07FC01FC00
07F001FC00
0FF001FC00
0FF001FC00
0FF001FC00
0FF001FC00
0FF001FC00
0FF001FC00
3FFFC1FC00
FFFFC1FC00
FFFFC1FC00
FFFFC1FC00
FFFFC1FC00
FFFFC1FC00
0FF001FC00
0FF001FC00
0FF001FC00
0FF001FC00
0FF001FC00
0FF001FC00
0FF001FC00
0FF001FC00
0FF001FC00
0FF001FC00
0FF001FC00
0FF001FC00
0FF001FC00
0FF001FC00
0FF001FC00
0FF001FE00
0FF001FE00
0FF001FF00
0FF001FF80
0FF000FFF0
0FF000FFF0
0FF0007FF0
0FF0007FF0
0FF0001FF0
ENDCHAR
STARTCHAR FB03
ENCODING 64259
SWIDTH 1004 0
DWIDTH 53 0
BBX 50 44 1 -1
BITMAP
000000001C0000
007F8003FFFC00
00FFF007FFFF00
01FFF01FFFFF00
03FFF01FFFFF00
03FFF03FFFFF00
07FFF07FE00000
07F8007F800000
07F8007F000000
07F000FF000000
07F000FF000000
07F000FF000000
07F000FF000000
07F000FF000000
3FFFFFFFFFC000
FFFFFFFFFFFFC0
FFFFFFFFFFFFC0
FFFFFFFFFFFFC0
FFFFFFFFFFFFC0
FFFFFFFFFFFFC0
07F000FE003FC0
07F000FE003FC0
07F000FE003FC0
07F000FE003FC0
07F000FE003FC0
07F000FE003FC0
07F000FE003FC0
07F000FE003FC0
07F000FE003FC0
07F000FE003FC0
07F000FE003FC0
07F000FE003FC0
07F000FE003FC0
07F000FE003FC0
07F000FE003FC0
07F000FE003FC0
07F000FE003FC0
07F000FE003FC0
07F000FE003FC0
07F000FE003FC0
07F000FE003FC0
07F000FE003FC0
07F000FE003FC0
07F000FE003FC0
ENDCHAR
STARTCHAR FB04
ENCODING 64260
SWIDTH 1098 0
DWIDTH 58 0
BBX 56 44 1 -1
BITMAP
000000003E0000
007F8007FFFFC0
00FFF00FFFFFC0
01FFF01FFFFFC0
03FFF03FFFFFC0
03FFF07FFFFFC0
07FFF07FC01FC0
07F8007F001FC0
07F800FF001FC0
07F000FF001FC0
07F000FF001FC0
07F000FF001FC0
07F000FF001FC0
07F000FF001FC0
3FFFFFFFFC1FC0
FFFFFFFFFC1FC0
FFFFFFFFFC1FC0
FFFFFFFFFC1FC0
FFFFFFFFFC1FC0
FFFFFFFFFC1FC0
07F000FF001FC0
07F000FF001FC0
07F000FF001FC0
07F000FF001FC0
07F000FF001FC0
07F000FF001FC0
07F000FF001FC0
07F000FF001FC0
07F000FF001FC0
07F000FF001FC0
07F000FF001FC0
07F000FF001FC0
07F000FF001FC0
07F000FF001FC0
07F000FF001FC0
07F000FF001FE0
07F000FF001FE0
07F000FF001FF0
07F000FF001FF8
07F000FF000FFF
07F000FF000FFF
07F000FF0007FF
07F000FF0007FF
07F000FF0001FF
ENDCHAR
STARTCHAR FB06
ENCODING 64262
SWIDTH 890 0
DWIDTH 47 0
BBX 44 38 2 -1
BITMAP
00000001FC00
00000001FC00
00000001FC00
00000001FC00
00000001FC00
00000001FC00
00000003FC00
00000003FC00
0FFFFFFFFFF0
3FFFFFFFFFF0
7FFFFFFFFFF0
FFFFFFFFFFF0
FFFFFFFFFFF0
FFFFFFFFFFF0
FE000003FC00
FE000003FC00
FE000003FC00
FE000003FC00
FE000003FC00
FE000003FC00
FFFFE003FC00
FFFFF803FC00
FFFFFC03FC00
7FFFFC03FC00
7FFFFE03FC00
1FFFFE03FC00
0001FE03FC00
0000FE03FC00
0000FE03FC00
0000FE03FC00
0000FE03FC00
0001FE03FE00
7FFFFE01FF80
7FFFFE01FFE0
7FFFFC01FFE0
7FFFFC00FFE0
7FFFF8007FE0
03FFE0003FE0
ENDCHAR
ENDFONT
